<mxfile host="app.diagrams.net" agent="Mozilla/5.0 (Windows NT 10.0; Win64; x64) AppleWebKit/537.36 (KHTML, like Gecko) Chrome/132.0.0.0 Safari/537.36" version="26.0.12">
  <diagram name="Page-1" id="yI-C0gf3FrSEKFwBEUkR">
    <mxGraphModel grid="0" page="1" gridSize="10" guides="1" tooltips="1" connect="1" arrows="1" fold="1" pageScale="1" pageWidth="827" pageHeight="1169" math="0" shadow="0">
      <root>
        <mxCell id="0" />
        <mxCell id="1" parent="0" />
        <mxCell id="Dj-Ovf57cEZ3DP5Jcv66-1" value="&lt;h1 style=&quot;margin-top: 0px;&quot;&gt;Contexte&lt;/h1&gt;&lt;p&gt;Le pricing des &lt;b&gt;fruits et légumes&lt;/b&gt; est faux sur &lt;b&gt;UberEats et Deliveroo Proxi&lt;/b&gt;. Il faut donc &lt;b&gt;charger les prix manuellement&lt;/b&gt; via ML (Massive Load).&lt;/p&gt;" style="text;html=1;whiteSpace=wrap;overflow=hidden;rounded=0;" vertex="1" parent="1">
          <mxGeometry x="40" y="63" width="774" height="70" as="geometry" />
        </mxCell>
        <mxCell id="Dj-Ovf57cEZ3DP5Jcv66-5" style="edgeStyle=orthogonalEdgeStyle;rounded=0;orthogonalLoop=1;jettySize=auto;html=1;exitX=0.128;exitY=1.083;exitDx=0;exitDy=0;entryX=0;entryY=0.5;entryDx=0;entryDy=0;exitPerimeter=0;" edge="1" parent="1" source="Dj-Ovf57cEZ3DP5Jcv66-4" target="Dj-Ovf57cEZ3DP5Jcv66-12">
          <mxGeometry relative="1" as="geometry">
            <mxPoint x="542" y="605" as="targetPoint" />
          </mxGeometry>
        </mxCell>
        <mxCell id="_PmnmOZ947o3DILdhZuU-1" value="Prendre&lt;div&gt;&amp;nbsp;semaine&amp;nbsp;&lt;div&gt;concernée&lt;/div&gt;&lt;/div&gt;" style="edgeLabel;html=1;align=center;verticalAlign=middle;resizable=0;points=[];" connectable="0" vertex="1" parent="Dj-Ovf57cEZ3DP5Jcv66-5">
          <mxGeometry x="-0.3881" y="-1" relative="1" as="geometry">
            <mxPoint y="-6" as="offset" />
          </mxGeometry>
        </mxCell>
        <mxCell id="Dj-Ovf57cEZ3DP5Jcv66-8" style="edgeStyle=orthogonalEdgeStyle;rounded=0;orthogonalLoop=1;jettySize=auto;html=1;exitX=0.5;exitY=1;exitDx=0;exitDy=0;entryX=0.5;entryY=0;entryDx=0;entryDy=0;" edge="1" parent="1" source="Dj-Ovf57cEZ3DP5Jcv66-12" target="Dj-Ovf57cEZ3DP5Jcv66-13">
          <mxGeometry relative="1" as="geometry">
            <mxPoint x="201" y="610" as="targetPoint" />
            <mxPoint x="466" y="642" as="sourcePoint" />
          </mxGeometry>
        </mxCell>
        <mxCell id="EsEte_tRfW7ecfYolJ52-9" style="edgeStyle=orthogonalEdgeStyle;rounded=0;orthogonalLoop=1;jettySize=auto;html=1;exitX=1;exitY=0.5;exitDx=0;exitDy=0;entryX=0;entryY=0.5;entryDx=0;entryDy=0;" edge="1" parent="1" source="Dj-Ovf57cEZ3DP5Jcv66-12" target="Dj-Ovf57cEZ3DP5Jcv66-24">
          <mxGeometry relative="1" as="geometry">
            <mxPoint x="455" y="456" as="targetPoint" />
          </mxGeometry>
        </mxCell>
        <mxCell id="Dj-Ovf57cEZ3DP5Jcv66-12" value="&lt;b&gt;&lt;u&gt;Etape 1 :&lt;/u&gt;&lt;/b&gt;&lt;div&gt;Prendre cellules où prix au kilo&lt;/div&gt;" style="rounded=1;whiteSpace=wrap;html=1;fillColor=#dae8fc;strokeColor=#6c8ebf;" vertex="1" parent="1">
          <mxGeometry x="148" y="436" width="176" height="40" as="geometry" />
        </mxCell>
        <mxCell id="Dj-Ovf57cEZ3DP5Jcv66-21" style="edgeStyle=orthogonalEdgeStyle;rounded=0;orthogonalLoop=1;jettySize=auto;html=1;exitX=1;exitY=0.5;exitDx=0;exitDy=0;entryX=0;entryY=0.5;entryDx=0;entryDy=0;" edge="1" parent="1" source="Dj-Ovf57cEZ3DP5Jcv66-13" target="Dj-Ovf57cEZ3DP5Jcv66-24">
          <mxGeometry relative="1" as="geometry">
            <mxPoint x="455" y="456" as="targetPoint" />
          </mxGeometry>
        </mxCell>
        <mxCell id="Dj-Ovf57cEZ3DP5Jcv66-13" value="&lt;b&gt;&lt;u&gt;Etape 2 :&amp;nbsp;&lt;/u&gt;&lt;/b&gt;&lt;div&gt;Prendre cellules où PAS de prix au kilo&lt;/div&gt;" style="rounded=1;whiteSpace=wrap;html=1;fillColor=#dae8fc;strokeColor=#6c8ebf;" vertex="1" parent="1">
          <mxGeometry x="124.5" y="501" width="223" height="32" as="geometry" />
        </mxCell>
        <mxCell id="Dj-Ovf57cEZ3DP5Jcv66-19" value="&lt;b&gt;&lt;u&gt;ATTENTION&lt;/u&gt;&lt;/b&gt; : les massive load doivent être chargés &lt;b&gt;&lt;u&gt;avant 12h&lt;/u&gt;&lt;/b&gt; !" style="rounded=0;whiteSpace=wrap;html=1;fillColor=#f8cecc;strokeColor=#b85450;" vertex="1" parent="1">
          <mxGeometry x="376" y="25" width="379" height="46" as="geometry" />
        </mxCell>
        <mxCell id="EsEte_tRfW7ecfYolJ52-12" style="edgeStyle=orthogonalEdgeStyle;rounded=0;orthogonalLoop=1;jettySize=auto;html=1;exitX=0.5;exitY=1;exitDx=0;exitDy=0;entryX=0.5;entryY=0;entryDx=0;entryDy=0;" edge="1" parent="1" source="Dj-Ovf57cEZ3DP5Jcv66-20" target="Dj-Ovf57cEZ3DP5Jcv66-22">
          <mxGeometry relative="1" as="geometry" />
        </mxCell>
        <mxCell id="Dj-Ovf57cEZ3DP5Jcv66-20" value="&lt;b&gt;&lt;u&gt;Vérification&lt;/u&gt;&lt;/b&gt; : Les bananes sont censées être à 2,29 € (en général) (ex)" style="rounded=1;whiteSpace=wrap;html=1;fillColor=#e1d5e7;strokeColor=#9673a6;" vertex="1" parent="1">
          <mxGeometry x="48" y="554" width="391" height="39" as="geometry" />
        </mxCell>
        <mxCell id="Dj-Ovf57cEZ3DP5Jcv66-27" value="" style="edgeStyle=orthogonalEdgeStyle;rounded=0;orthogonalLoop=1;jettySize=auto;html=1;" edge="1" parent="1" source="Dj-Ovf57cEZ3DP5Jcv66-22" target="Dj-Ovf57cEZ3DP5Jcv66-26">
          <mxGeometry relative="1" as="geometry" />
        </mxCell>
        <mxCell id="Dj-Ovf57cEZ3DP5Jcv66-22" value="&lt;b&gt;&lt;u&gt;Etape 3 :&lt;/u&gt;&lt;/b&gt;&lt;div&gt;&lt;div&gt;- Supprimer € dans la colonne C&amp;nbsp;&lt;/div&gt;&lt;div&gt;- Max. 2 chiffres après virgule&lt;/div&gt;&lt;/div&gt;" style="whiteSpace=wrap;html=1;rounded=1;fillColor=#dae8fc;strokeColor=#6c8ebf;" vertex="1" parent="1">
          <mxGeometry x="129" y="613.69" width="214" height="47" as="geometry" />
        </mxCell>
        <mxCell id="Dj-Ovf57cEZ3DP5Jcv66-32" value="&lt;div style=&quot;&quot;&gt;&lt;span style=&quot;background-color: transparent; color: light-dark(rgb(0, 0, 0), rgb(255, 255, 255));&quot;&gt;&lt;b&gt;&lt;u&gt;Etape 5 :&amp;nbsp;&lt;/u&gt;&lt;/b&gt;&lt;/span&gt;&lt;/div&gt;&lt;div style=&quot;&quot;&gt;Aller dans Optiprice Export Prix&lt;/div&gt;" style="whiteSpace=wrap;html=1;rounded=1;fillColor=#dae8fc;strokeColor=#6c8ebf;align=center;" vertex="1" parent="1">
          <mxGeometry x="111.75" y="862" width="242.5" height="38" as="geometry" />
        </mxCell>
        <mxCell id="EsEte_tRfW7ecfYolJ52-50" style="edgeStyle=orthogonalEdgeStyle;rounded=0;orthogonalLoop=1;jettySize=auto;html=1;exitX=0.5;exitY=1;exitDx=0;exitDy=0;entryX=0.5;entryY=0;entryDx=0;entryDy=0;" edge="1" parent="1" source="Dj-Ovf57cEZ3DP5Jcv66-33" target="Dj-Ovf57cEZ3DP5Jcv66-35">
          <mxGeometry relative="1" as="geometry" />
        </mxCell>
        <mxCell id="Dj-Ovf57cEZ3DP5Jcv66-33" value="Importer" style="whiteSpace=wrap;html=1;rounded=1;" vertex="1" parent="1">
          <mxGeometry x="350" y="940" width="64" height="60" as="geometry" />
        </mxCell>
        <mxCell id="Dj-Ovf57cEZ3DP5Jcv66-35" value="Voir les détails&amp;nbsp;&lt;span style=&quot;background-color: transparent; color: light-dark(rgb(0, 0, 0), rgb(255, 255, 255));&quot;&gt;de la log&lt;/span&gt;" style="whiteSpace=wrap;html=1;rounded=1;" vertex="1" parent="1">
          <mxGeometry x="144.37" y="1078" width="177.25" height="32" as="geometry" />
        </mxCell>
        <mxCell id="EsEte_tRfW7ecfYolJ52-2" value="" style="group" connectable="0" vertex="1" parent="1">
          <mxGeometry x="33" y="361" width="262" height="73" as="geometry" />
        </mxCell>
        <mxCell id="Dj-Ovf57cEZ3DP5Jcv66-4" value="Onglet&amp;nbsp;&lt;span style=&quot;background-color: transparent; color: light-dark(rgb(0, 0, 0), rgb(255, 255, 255));&quot;&gt;&quot;ML-niv ... Cell deliveroo&quot;&lt;/span&gt;" style="rounded=0;whiteSpace=wrap;html=1;" vertex="1" parent="EsEte_tRfW7ecfYolJ52-2">
          <mxGeometry x="12" y="13" width="202" height="32" as="geometry" />
        </mxCell>
        <mxCell id="EsEte_tRfW7ecfYolJ52-1" value="" style="shape=image;html=1;verticalAlign=top;verticalLabelPosition=bottom;labelBackgroundColor=#ffffff;imageAspect=0;aspect=fixed;image=https://cdn3.iconfinder.com/data/icons/cad-database-presentation-spreadsheet-vector-fil-2/512/22-128.png" vertex="1" parent="EsEte_tRfW7ecfYolJ52-2">
          <mxGeometry width="27" height="27" as="geometry" />
        </mxCell>
        <mxCell id="EsEte_tRfW7ecfYolJ52-4" value="Liste des Documents (INPUT)" style="swimlane;whiteSpace=wrap;html=1;fillColor=#dae8fc;strokeColor=#6c8ebf;" vertex="1" parent="1">
          <mxGeometry x="56" y="147" width="757" height="202" as="geometry" />
        </mxCell>
        <mxCell id="EsEte_tRfW7ecfYolJ52-5" value="" style="group" connectable="0" vertex="1" parent="EsEte_tRfW7ecfYolJ52-4">
          <mxGeometry y="24.319999999999993" width="385" height="77.68" as="geometry" />
        </mxCell>
        <UserObject label="GSheet de jean_philippe_vuittenez@carrefour.com" link="https://docs.google.com/spreadsheets/d/1ZgQmQ2uwpNnYsL8-d2eSQJ9e2ijCfO6E/edit?usp=sharing&amp;ouid=118140015082430901205&amp;rtpof=true&amp;sd=true" id="Dj-Ovf57cEZ3DP5Jcv66-2">
          <mxCell style="text;whiteSpace=wrap;" vertex="1" parent="EsEte_tRfW7ecfYolJ52-5">
            <mxGeometry x="85" y="26" width="300" height="30" as="geometry" />
          </mxCell>
        </UserObject>
        <UserObject label="" link="https://docs.google.com/spreadsheets/d/1ZgQmQ2uwpNnYsL8-d2eSQJ9e2ijCfO6E/edit?usp=sharing&amp;ouid=118140015082430901205&amp;rtpof=true&amp;sd=true" linkTarget="_blank" id="Dj-Ovf57cEZ3DP5Jcv66-38">
          <mxCell style="shape=image;verticalLabelPosition=bottom;labelBackgroundColor=default;verticalAlign=top;aspect=fixed;imageAspect=0;image=https://res-academy.cache.wpscdn.com/images/seo_posts/20230913/b9788edc42ea71aad4959f1222b27b34.png;" vertex="1" parent="EsEte_tRfW7ecfYolJ52-5">
            <mxGeometry width="85" height="77.68" as="geometry" />
          </mxCell>
        </UserObject>
        <mxCell id="EsEte_tRfW7ecfYolJ52-6" value="" style="group" connectable="0" vertex="1" parent="EsEte_tRfW7ecfYolJ52-4">
          <mxGeometry x="24" y="103" width="698" height="37.34" as="geometry" />
        </mxCell>
        <mxCell id="Dj-Ovf57cEZ3DP5Jcv66-3" value="&lt;span&gt;G:\Drive partagés\FR-SIEGE-PRICING_ALIM_ECHANGE_E_COMMERCE\6- Livraison Express\6-Ubereats\OPTIPRICE\2025\&lt;/span&gt;01 Fichier Manuel" style="text;whiteSpace=wrap;html=1;" vertex="1" parent="EsEte_tRfW7ecfYolJ52-6">
          <mxGeometry x="56.62" y="-1" width="641.38" height="37" as="geometry" />
        </mxCell>
        <mxCell id="Dj-Ovf57cEZ3DP5Jcv66-39" value="" style="image;aspect=fixed;html=1;points=[];align=center;fontSize=12;image=img/lib/azure2/general/Folder_Blank.svg;" vertex="1" parent="EsEte_tRfW7ecfYolJ52-6">
          <mxGeometry width="37.205098493626885" height="30.20083429895713" as="geometry" />
        </mxCell>
        <mxCell id="EsEte_tRfW7ecfYolJ52-7" value="" style="group" connectable="0" vertex="1" parent="EsEte_tRfW7ecfYolJ52-4">
          <mxGeometry x="19" y="149" width="232" height="47" as="geometry" />
        </mxCell>
        <mxCell id="Dj-Ovf57cEZ3DP5Jcv66-42" value="_matrice ML MarketPlace.xslx" style="text;whiteSpace=wrap;" vertex="1" parent="EsEte_tRfW7ecfYolJ52-7">
          <mxGeometry x="68" y="6" width="164" height="36" as="geometry" />
        </mxCell>
        <mxCell id="Dj-Ovf57cEZ3DP5Jcv66-43" value="" style="shape=image;html=1;verticalAlign=top;verticalLabelPosition=bottom;labelBackgroundColor=#ffffff;imageAspect=0;aspect=fixed;image=https://cdn3.iconfinder.com/data/icons/cad-database-presentation-spreadsheet-vector-fil-2/512/22-128.png" vertex="1" parent="EsEte_tRfW7ecfYolJ52-7">
          <mxGeometry width="47" height="47" as="geometry" />
        </mxCell>
        <mxCell id="EsEte_tRfW7ecfYolJ52-10" style="edgeStyle=orthogonalEdgeStyle;rounded=0;orthogonalLoop=1;jettySize=auto;html=1;exitX=0.5;exitY=1;exitDx=0;exitDy=0;entryX=0.469;entryY=0.034;entryDx=0;entryDy=0;entryPerimeter=0;" edge="1" parent="1" source="Dj-Ovf57cEZ3DP5Jcv66-13" target="Dj-Ovf57cEZ3DP5Jcv66-20">
          <mxGeometry relative="1" as="geometry" />
        </mxCell>
        <mxCell id="EsEte_tRfW7ecfYolJ52-14" value="" style="group;fillColor=none;strokeColor=none;" connectable="0" vertex="1" parent="1">
          <mxGeometry x="508" y="583" width="282" height="101" as="geometry" />
        </mxCell>
        <mxCell id="Dj-Ovf57cEZ3DP5Jcv66-26" value="&lt;b&gt;&lt;u&gt;Etape 4 :&lt;/u&gt;&lt;/b&gt;&lt;div&gt;1 - Copier sous fichier .txt (2 listes)&lt;/div&gt;&lt;div&gt;2 - Enregistrer sous dossier [Mois]/ &quot;&lt;span style=&quot;font-size: 11px; text-wrap-mode: nowrap; background-color: transparent; color: light-dark(rgb(0, 0, 0), rgb(255, 255, 255));&quot;&gt;F_PERM_PRICES.[horaire].DEL&quot;&lt;/span&gt;&lt;/div&gt;&lt;div&gt;&lt;div style=&quot;font-size: 11px; text-wrap-mode: nowrap;&quot;&gt;&lt;i&gt;ex : F_PERM_PRICES.20250203110000.DEL&lt;/i&gt;&lt;/div&gt;&lt;/div&gt;" style="whiteSpace=wrap;html=1;rounded=1;fillColor=#dae8fc;strokeColor=#6c8ebf;" vertex="1" parent="EsEte_tRfW7ecfYolJ52-14">
          <mxGeometry x="13.2" y="5.656614292954887" width="268.8" height="95.34338570704512" as="geometry" />
        </mxCell>
        <mxCell id="EsEte_tRfW7ecfYolJ52-13" value="" style="shape=image;html=1;verticalAlign=top;verticalLabelPosition=bottom;labelBackgroundColor=#ffffff;imageAspect=0;aspect=fixed;image=https://cdn3.iconfinder.com/data/icons/document-icons-2/30/647706-text-128.png" vertex="1" parent="EsEte_tRfW7ecfYolJ52-14">
          <mxGeometry width="24.74235512755533" height="24.74235512755533" as="geometry" />
        </mxCell>
        <mxCell id="EsEte_tRfW7ecfYolJ52-58" style="edgeStyle=orthogonalEdgeStyle;rounded=0;orthogonalLoop=1;jettySize=auto;html=1;exitX=0.25;exitY=1;exitDx=0;exitDy=0;entryX=0.5;entryY=0;entryDx=0;entryDy=0;fillColor=#f8cecc;strokeColor=#b85450;" edge="1" parent="1" source="EsEte_tRfW7ecfYolJ52-17" target="EsEte_tRfW7ecfYolJ52-37">
          <mxGeometry relative="1" as="geometry" />
        </mxCell>
        <mxCell id="EsEte_tRfW7ecfYolJ52-17" value="Liste des Documents (OUTPUT)" style="swimlane;whiteSpace=wrap;html=1;fillColor=#f8cecc;strokeColor=#b85450;" vertex="1" parent="1">
          <mxGeometry x="56" y="715" width="731" height="100" as="geometry" />
        </mxCell>
        <mxCell id="EsEte_tRfW7ecfYolJ52-33" value="" style="shape=image;html=1;verticalAlign=top;verticalLabelPosition=bottom;labelBackgroundColor=#ffffff;imageAspect=0;aspect=fixed;image=https://cdn3.iconfinder.com/data/icons/document-icons-2/30/647706-text-128.png" vertex="1" parent="EsEte_tRfW7ecfYolJ52-17">
          <mxGeometry x="14" y="35" width="57" height="57" as="geometry" />
        </mxCell>
        <mxCell id="EsEte_tRfW7ecfYolJ52-34" value="G:\Drive partagés\FR-SIEGE-PRICING_ALIM_ECHANGE_E_COMMERCE\6- Livraison Express\6-Ubereats\OPTIPRICE\2025\ + &lt;font style=&quot;color: rgb(223, 24, 17);&quot;&gt;[dossier MOIS]&lt;/font&gt; + &lt;font style=&quot;color: rgb(223, 24, 17);&quot;&gt;F_PERM_PRICES.20250203110000.DEL&lt;/font&gt;" style="text;whiteSpace=wrap;html=1;" vertex="1" parent="EsEte_tRfW7ecfYolJ52-17">
          <mxGeometry x="87" y="45.5" width="575" height="36" as="geometry" />
        </mxCell>
        <UserObject label="http://pricing.edc.carrefour.com/#" link="http://pricing.edc.carrefour.com/#" id="EsEte_tRfW7ecfYolJ52-37">
          <mxCell style="text;whiteSpace=wrap;" vertex="1" parent="1">
            <mxGeometry x="138.5" y="839.9973684210527" width="203" height="36" as="geometry" />
          </mxCell>
        </UserObject>
        <mxCell id="EsEte_tRfW7ecfYolJ52-38" value="&lt;b&gt;&lt;u&gt;Vérification&lt;/u&gt;&lt;/b&gt; : Voir état à 15h pour voir si l&#39;import a réussi" style="rounded=1;whiteSpace=wrap;html=1;fillColor=#e1d5e7;strokeColor=#9673a6;" vertex="1" parent="1">
          <mxGeometry x="51" y="1016" width="370" height="39" as="geometry" />
        </mxCell>
        <mxCell id="EsEte_tRfW7ecfYolJ52-39" value="" style="shape=image;verticalLabelPosition=bottom;labelBackgroundColor=default;verticalAlign=top;aspect=fixed;imageAspect=0;image=data:image/png,iVBORw0KGgoAAAANSUhEUgAABGcAAAK4CAYAAADZb5CoAAAAAXNSR0IArs4c6QAAAARnQU1BAACxjwv8YQUAAAAJcEhZcwAADsMAAA7DAcdvqGQAAK09SURBVHhe7N0LfBXlnf/xbwiCokRRUYRgDKJELYoo2i4YK5aWlFK0tF4orLRWWaDLpVXa/VOsiu5WbBewBYuuFgpFxWJNlYaKwhrJVkUolWoTicZIoCgqGuR+yX+emWfOmXNyzsnJjSHh8/Y1nrmf2yTMfPN7nsmocQgAAAAAAAChOOzhzENPPiS9Ka11/tMbdqbjkgsukc73Hi853xkHWqD75lTYMbQUTzzyJzsGAACOBtff/FU7hpbkR+Nz7djhVaODdgxHswxl2rHm08Y+NruH7npIl153qdY+uVZr3wgEMxd4Dw8588yyMXeO0ZjrxrjrAwAAAAAAtHaHJZwZc92lbvhyifNfkF89Yx7NEu/RW8cEOJd+7lKNuWuMOw0AAAAAANAaNXs4YwIWBWOZC0wIY4OYC27Vrd+6RPPunKdb77zVfbzEmfbWcZab5k1vOPsw4c6TZisAAAAAAIDWpVn7nHGrXgLNl9Y647YuRvOWvOaOxXjTGc73Rg3TP40JZfxtzNbzlsxzp4AjEX3OtDz0OQMAwNGFPmdaJvqcQZhadJ8za02nv6ZvGZ8bzHjTwWDm0useUsbnnCHDGcy4fRxz3Vrd+q1b9dqSeW4nwf6eTH80jbH2zbVevzfOY3OI36+Zcj8L87wmfKqHS53PYMxdzfM6AQAAAADAkaH5wpk3HlKkMZPt9NfEDH7liwkqTBATCSy+FXh05jlL3OUmvLn1p16TJ7MHsw+vqVT9mAoctw+bO8e4FTnm0Z1uZNgT5O7XdGZsm2BlZDjPYd+DCVouvcAGUc5QV1BjQpm1b3qVQzTpAgAAAACg9WrGyplooGCaMxnu7bItE1hEAhnTlMkPK560j2baNIVyHk2Y4TVpMhU3Xl80ph+adD10l7n70xjN++k8vebswwRE/qNRn30FmSAm+D5NpY95baYfHZd5v/Y9XmLeo/9+Heb9p6re8fbh7SeyPwAAAAAA0Oo0X4fAgb5mTLRgal5uPf9Wd1akEsQEMH4w4zy+tuQS1dTcqpq/O8OSW73OgQ1nmak6MduZUMUwVTnphCqmCZPZzgQxkf1ZJkjxA5qGVNAkClcilUHu/x3OezPhymvO+zHvybxHl/OextzpjSZiwhz3c3CGRJLHOgAAAAAAoCVp9rs1+SGN28TJb95kwhjDD2Ycbhhz/iVumOLdevshvfbTS7xwwqzjbGua+vhBiwlGzD7H3GWqapIb8+QYN5Rx7/yUxLxvefszgYd59JtNPeTs24y7g3vHKO+5zOOl1zn7dfb50J1m3FnmrOtuawIj5/W6z2beu3mPAZHX4b5v7/2YyiDT7OkhZ3u3zx1n2p8f3wTKfAbu+ma9jDHu+ma74DJ3H2aZ3Q8AAAAAAOnat+uQXvzft7Rg0V+1aMlf9dpf39PeQ83fKe7RrPnCGdMkyT4aXvSRmB9YeKGHd9tsU8mSkZHhzgtWj/gd5Jp+aAzTt40JdJIyQYmt2EnGr6hZ6zyXGyKZqhbTZMn577W/v+YOpsmSCWDM6zHj85zBvCuzrXcL8Fu9QMZ5vsh7Ne89EKwYkdfqPIfb0XFkuXnPzjL7ecXytokJW8x65nU7j7c6n58fXBm33um8C/f1eZ9XXf3bAAAAAACOHqv+72+q3n3ATsV6dNHLOqf/z/X10b/ThJ88rfFTntbV1z6ifv3u1cOPvJIwpHniD3/XHwr/poxDzXYz6Fav2cIZE1S4YYXfvMmbimVCAxNSeFNu8BHP62A3NqAxd3MyAYnhVs88mbhJkt/s6JKEgUdqJjgxfdT4zPP5AY1hQhkTepj1TLhkmiG5z2bejzPtjpu7VTnTDzmPbofApmNgEy4580zfOvN+Gv1MvFfqNe0yTaCCzP7GBAKoW79lmzyZplL2czEVPMZrzrTZr9nPJbaPmzF2GQAAAADg6Pb8S+uU2batso5ra+dE3XXvCk3+SZE+2b7Tzomq/Gi3bpv+J938vd9o/+7YEObar5yvn88t0VPPvG7noL4yahx2vEmZQMVUclxywVrpDS+EMH2vmIoOtzLGDylsQGOCBj+IScS8zGB1yGumcsbZt7nrkgloTFjiBzYRzr4vvfNSt9mSXx2TjGm6ZKpxzD7MuNtHja3oCQouM1U+wX2bMMi8B3+5qXRJxgQwJtAxzbIeMgHWk868Glt944h8Rg7z2Vx6Z7R5UzCoMoLr+iGRtx8TIHmfs9kHmt99cyrsGFqKJx75kx1D88tSwdj+un5IN+Wd2l7t2tnZjn279uqd5cUacc9bdk7UNb/8ju7o38FOOco2aOiNxdpsJ4NGzfueJvdrb6dimefY9lalFv58hZbY36eeq7R03fnKtVMxDh7Ujg+r9bfnX9N9v3gr8Jx9NO/F/urX0U7WsldrfvE/GvM7M55i/67gur7OumbK5Rp1VRd1M5+V/QOVeQ+b33hbT8xeFfcejODzbNfTfRfrbnc86o6nxuuas7zxHWtKdOWY9d5Egz6DJO4coXVf72QnYiV+/Sk+S+e59+3YqdKS9frZtA0qtbNdwed59031/cYqbzyo+7kaP6m3Bl/cWZ07ZkY+R2+/H+tPv1iiu5c500n3Fffa9jmf6yTnc33ZTvuC2++o0swrC7XQm4qRd8NVmvyNs5R3Zgd1DBz/2ud8xturteapxbrtYTuvlrqOuVgVf5yj4ZG+7RpyPEV169dH48b21oDzs6Kv2z0uPtaaP67XzAcTHBdpfiZJ1fs4imr06423b68+em+r/vRosWYur3ZnBX+W6hL7s9aI32nJjnPU2/U3f9WOoSX50fjk/5I2pxodtGOtgwlm3nn/I3332oFqmxlbAVP47Ab96/d/b6dSGzPiYs34z2vslOdPfy7Vd7//Oz3482/q2mEX2bmtQ4ZqVws1tearnDEVJWbkDVtF4vzf9BITw/yDagIae4cmvzPdRLzmRNHtxzjTJgCxz5K4aZPZt/McqZpUGX6Fza0X3BoJM/z9BvnrRZjXn6AqJz7UMa/br2ZxOwb+uxfMeJx17X6CW8U8k7OuG8xEtokVabZk1jOfpXnPzqO5FbdbueQvB4CwdO+tnxeO0L239NCFXWODGaNdh/bq1j1wsRLRRwUXxs3v2UWjutvxenCfo8+5+vGjI3TH5+3MujgnLR1P76QB3x6kxXP72JnNrHsfPVA0XHfckKPc06MX0oZ5D7n9ztePF3xH827pbOc2syb8DCKv33wH+XZmKs5ztzspSxcOydf8JVepn52djm7fKtAzTw7SzSaQOCkQzBh2v91OstPpatdJX/1B/V6Hyzn+713yPS2ecr769YwLZgznxZnPOLebnW5KjTyeBky5Tovn9VdBn0DQYbjHRWcNvGWQli4ZpIIG/Ew2VKrjqFleb7v2OqVnjkb953Wa9207r8Ga7ncaANTXiuK1eqW0Ul/+/IW1gpmde2v0/+59zk7VbcniNaqs/NhOeb4y6FydcupJGnvb791mTqif5gtnzjehjBcxeKGD+b+dNreYDrrAa6pkJA1o3jT7dB5tJ7t+IBGpWjH/JQhozHK/KVIypkmQG6j44YcJN+xrTcRd1zy//3qsSFAUH+I43KohEyb5z5FAJGRxRD4hu393O7vcrx7yRfbpLI/c7cp9nBeZBoDQOBeH8xbka2B3exKwb5def+oVTRg5R337ztGIScV6ZNV2fbjPWxzjlrN1UXylQGZn9bs5y06kYP7K7Oy/b98luvupbYrs3rnAvuKGc+1EPFPF4r2uoWNe05qP7GxHx37narIdj2eqFLzn8of4ShhfdP+J1zWfVX8NON1+Vju2q2h2oYY66w0dU6Ki8r3e/MwO6jd2WBNcKCbSsM8gIVMx4b5H5zt4fKt22NluyDE68R0XI5/lyFV6uiz618p2Pc/SqCF2og7dbhqmxf/RQ93sxfm+97fq6V89qxH2tUyY8ZpWlu9y3mn9tevZS5N/mMbxF9FHP3+ovwp62uqHuOO/77BC3farDVr95i7tSNz031qvMVfabdyhRGsiH2jtY9Crmmnc8dTvJyP08xs6y/sRPKiP1mzQ3e7rNt9nlT6yP1Ttep6rn/6iAaFVutI8jprs9Uaeb6HGPOxsFzkM26vf1/q7Y3d/w/uc/eHpd93ZLlMpE1wWrJpp1O80AGgEE8y8VrpRZ5x2ks7KPt3OjXr6j39T1T+96sBUvvyFs/T7R/5Vf/jjOGWfcYqd68ls00ZfuSpPu/e30Y9/8Lgb0NAHTfqa9W5Nl1wQDQXcsMOGC8GQJRJyOI+mQ1zTrMi/XXaQ3wGwacrk78eEGW6nus5/Jhh5yFSKxHH7jXH273fwG2/MXc78N53nDTT7MSGK34dLUCTEcaz1X3uAu39nvnkttZ8pmeial5wfHY+MXeDt1+uA2GHey11eMyYT0pi+bIIVRaYplemfxgRV7nLb3AkAwjLqPy5VP79CwTQLmfIbjb7nNedi1JtVWrxBc364WMP/PXABY938hc7y//hdun6bHZNyL768HheC2/T0Pev1aiBkaHdcoiqdWJvXvKIxy6PPqcy29qKv+Vwz6+LYz2raYk1dUOU2d9i8Zr2mXrdCRZu8xe6F4nWDmu+C2NF0n4HzHcxYqiUbAmHLWd10nR1P6M03dfci58LYTjpPrvZpVbr00R03ZUde575339RtBUt196OVtlnUNq1+/BXddt1iTUgYoNUlU3nXDtL4NCsdRs29VAP9cCTB8a9NVVr5aLEmjDTz7bwm0qjjqXt/Tf5ap8jP3441L2v0mGI97b5u830WavSDVZGgxIRW42+xE80mxXHULK+3WmseLNSfyu2k0T5YjlN/TfM7DQDqx6+YOej8BvqXC3rYubH+sHSdHUvuC5ecqd/+9rsadPXZuvjCbspsVzt46Z3XxX38uCbTDWgW/2EDAU2amjWcmfctWz3jNtmJVtK4THMg8w+mX4XiMLeEvvSuh9xqF9PHjAlpTCWN3y2OVzHirG+CEcfaN9a6YYn5z59OxOzHGPO5MV6/Ns5zmL5eTP8xJiRy+4ix+zD7N6/ThD7+LbJNkyqzrhuS2Moes7Z5btMZsdtvjN9XjvNe3O3NuK16iXnfcSJNvZx1177pvwZv/y7znpz5pnNfN4TxPyvnszABjWm6ZMaDnQg/5Mw3oYy7/M5oPz0AcNh1z1dBoA+YzS+W6O5iO1Gn/rq6t72oPbhNr/98q0r9a7LuXXRNuk2TXB1irqn27d5lx1Lr1jHQUd7BA9G/2DeLPiq4OBoafeRcPNf+rCo1dfnWaBVQ9+y0q0kaqik/g+o9gdIQ56tN3DtQgGmOZEdNJcTeT+xoCt2mnBsNJJyL69WzVmm1nWqcvdq8xR6AHbroup/0UZ2tkBp1/DdW446nbjfnKM//8J2fv6J71tfqE2XzgrVas8VOOF/ohQO9qpLmlug4ar7Xm6WOwQN1b+TTaoCm/J0GAOl57sXX3IqZTOe3/XHH1KhHTle7JGrH9t36y7pKO5Xc+Js/7+4jlTO6nGDHvIDm/922hIAmTc0azpjgxQ09bEgRI1I5s9Z79AOXJ73qDxMomJDG7+TXDyNcNqDwm0f54Yf7XHZZPBOquCGMW2ViQh2vqsadZ6thPCYM8Sp1zC2y3TnOazTr+iGPz2xrXp+Jc9x36uzHbOfvb94Sr6+ZeSlu5T3vW+Z1OOuYuyvZz8Aw782bH+2fxkybJkpuEynz2TjzvU6MvW3NMrOOP20ezX7dUAcAwvC1zuphr0XMhXLZH+r+h9/XbUo35fnbbtqmhW+uV2nkr/xZuvDabDteh+7navKCS2M6dX3p8dodD8fLu6FAvx4c7SB0x5q3NNOON4sh2eoRKUvZq3deS/IP2oMfBy46O6hbM/65vak/g6xjA0HPjn2xHfzG6Ta4v+bfHKiAKX9XC03nvXW45oKT7Zhjy4d6ognDkC1PblCpvTbv2O9S3XFTHU1RGnH8N1ojj6fregU6x92yXQsjP3tBVfrb5kDjsK6napQdbU6JjqPmeb2ddd0vhumrkY5/92rNsyV2vP6a7HcaAKTJBDNry7zyP1M1c+bpZ6jdMce400Evr9uiz9LIni/odZodSy4zM/YOUMGABqk1bzjjuPXOeZHwJCakMbd5NucJJngwj+64DRGceSaIMSGNP0SCGbO+5YYWbv8u3nbmeSLPlYAbnnzrVt36UxuqJAgtLvH35ezXD1tMMJNoXcPfn7/cD5MME4q4QYm9pXUi3muqHaD44Ur8fMMEMK/Z4MZUJwWZ9d3lZpkNagAgNKYDUjuqXbtUEX+Xm6SyNOriaAelFa+vdS4gq/XI69vtHOdCp28fFdjxhM46X+vWjde6wkEa1dv70/e+LVVaeOezte+2E9Fe/X7obONst3iK7bPk4F5VLCvWmHG1m135cr/ubRMZXhyW5KIvuv/I8NRV3qKYKpG92lFmR2vZrg8D5SunntbbjjWVhn0GqZm7BQ3XdX7VgKPitQ1aY8eD/M/ymf/sowvdCpiDbhOcu364KuH68U7pGH2OfR99nNY26WmvjqeW6PYn/f6LnM/ppqtSX9wnPf7N3bECx0BkGKE77BqN1sjjKVgtsu+T6lpVKL6VHwTCjo7Hp7grWVNIfhw16evtmK3J7vdxnX58VZb3OZr+emYUJulLKh1N8DsNANJ08NChmGDGMJUzZ3ZN3Pn7+r9X2bHUduxO2Tma68Ot0d9rvkhA8/u/2TlIpNnDGTdkMHdBShGauCJBS4AfxAQfbdMfN5hxeNGMv52zLEnTpnS5r9PZtx/SAABC0P0S9etlx52Lx7894nVQt/mRfypyw/pTOqvg63Y8HTu26elfrYrcCjc9B/XRy+s1Nf42zkeQffsCF5vNohGfQeAi944bukSqYHaUbdDMO9M8ESx7U3PvKQn0jRKe9s4b2PyL/9Ofym1blJOy9a+znJOGus9VW4z6Hk+bD0b7f2m2pn9NcBz5GvR69+3S6kUrNPXxQP9L9dUcv9MAIIkXXloXE8yYqhkznH5q4orPjRs/tGOpvfyXQO/nSfxp5T/sWCwT0Ey9/UkCmhSaPZwx3KY+JkIJhC9mjsuELSYMeVN6zb+rkF95G6ysifD24fexYjq+9fttMf/3xxvFeb66wiTTx0zC23dbkT5oAhLNayruZxsfbgHAkaRDB3VNsxPVfmOzA3/R7qRrCm1lQeH5gfkddN4gm9Qn4t6t6Vkt3GAvNjt21nV3DtbklK/Bu1PR0P96R5vd8ohMndL/cv3SXICnUOtuTVcWaqFdFivB3Zq+scpbFLhmdKs0Ihdy8Trp1EhzFan6w7qbaNVPwz6DOjkXxTve36aVD6/QiBuLk/YD436Wk9brddu/TMdevfXTGf3r7t8lAfd22Xa86VTp7v8uU4Ut/z4l/3I9sG9n3Rf5Mcf/Kg33v/9fRDupbVKNPZ4CgVOqz3HUGYHOtXfsTVqx0mSSHUdN+XrduzUt1M9WVHtVUu06aMDYr+mBRgQnTfI7DQDSYCpmXi17zx03gYzPVM5knXiinYr19qb0wucHHv0/VX+cvN++/11VpmdXvm2navMDmt89uZ4+aBI4LOGMEbwbkst0CGyYOxS5YYgXrph+U0zw4lfGxAQzzrhpBhS8NbQJPPw4xo1p/P02kNn/a39/zX1MxnQqbPqEMR0Yr3We3/SH4wYvzrTbcbDz6IZRdr6/zPDnmXXcRxvwuOu4j/4+A9Pmeez67mcV2DYy33Qo7Lxm04Gxu767D7NvuxwAwrCmOnC3nSxd6Fyg1C1b11+Y3m1lT7nwnDr6jKjUzJ9s0Ov+eUS7zrr+nsvrvGDf/GSR7nsxWmFzSv4l+nm+nWguj3+ozZEL6vbqcWmSi7SxJwdef7VKn7ejMTqoWx232a7+4B07lliTfAaRWxI7Q79f68qCJbrtwbfqvoAvLtHUJ6Md1bbr1Vv3jk3vmFjzXuCksXsXjWuOTlZfXqWZzoW7x7lwH9LZ+cYSiDv+c288jLdLbuTxtGZL4HPs2kmjEoaa2bqoW/Sd73t3s5bY8SaVxnHU9K+3Wkt+VKzVkQ6Ene/51gINsFP105S/0wAgMb8pkwlmTBATDGaMQxntldWhdn8zxtYPdtqx1Myttod/73faXFW7CvmPy/6u733/9zpkb+aTjAloJv6oUAt/T0AT77CFMyasMH2zmLDAleAcwdwa2zDBjAlo/KDGH7xpG5o465q7KbkhSiCQiQ9VTIDh3k3JH0xoke54zOMY59G+dod5HvM63Tn2Ft4PveFVCZm7RnmxiBeemPf+kJlnxr/lhTaGG9T4t/923o+5rbdpouVu60yb5zXT7m29TX895vMxz+lsZ/ZjlpsQxtyy3OzHvMZbf+ps4axrgiMTCJk7N5lPHwBCsewd/SNwC+tu+f+iyUmuESOG9NFFkRsJJKg0mVYZveDteIaurut2uJte0Zzno+2f2/XurTvqCC6M1T/aoDWRkoYsDfj+Vc18q9sSvRC4RfAp/T6XoMonR/cO7hI93Sqr1NxIPyYbVRG5kHQuxvvm2HGre77yIvsz/Z/UPrGKd/g/g6jND76iP0WqpzN14bfq6N/FKlq5LSYQufr7/ZVnp5rS6mnF0aZWHQN9ywQtW69XA82x8gY77yFhaNAcGnc8FT3u3XLbldlZV/+w9g9ut5suUb/Iz+ouvfp07I0TDqfmeb2Vuu2xQGVT1xxN/kkDOu1t6t9pABBn76HMWk2ZjGBI08F5aJsZ7bMraMf2z+xY3V5dV6UvfGmmbv3+Ut0/+0Xd818r9ZUhczVq/JPattP/s0pq+w8d0rQfLdVvn1xHQBNw2MIZw+uc1gsKInGBDRwM/1bYJsTwmQDEHzwmcHhIl955qbMPuxfb0XBkOsCEGPPMHY3scInbga8dTKfAgfFa8/157qPpRNi+9gsucYMU89rNuAlDTJhy6wXeowlFzJr+3aS88MiEOc52turG5TyafRtuh8LOfszrc8MXM89Z7gZCZr/Of+a1GOZzMqGL2daNXsxn42x76/m3ukGU3bu3T7PMD4AA4LB7U/ctClzcdOisUQ+O0M+/f7762QvFvPxL9eNfjtDSX/Zxp68Z3FmnuGOOHdu0Or4DzpjAJ1N5X7jUjie35s71Wh3Zpr363ZjOX8DX6+4/+p2/Su169tL4NKs3GuqRn76sNf7tots5n9Wjw/Xjb2S7lQ3d+vXRvUsGqcC/wN63XU8/WByoHqjSE69FQ6hT+g/UA9/PcYMJd9tfnBu4U0xVWnc+CuMziKrS3fMDF60nZeu6++ICp0T+WKzfron2m9Lu/D6at6RA4+3naDqVHfDdfD2wZIQeSCOkS65SU3/xTkz1Rm1VmrokcPw772HyohG697ve9+K+ljPbJ666aQKNOp5eXqH7/rg98t2fkp+vZ35xqQa452OmY95hmj82ejetHWv+6qxvJ8LQXK/3d6v0dJkfcmUqd/DlGl/PgK05fqcBQNDy4r+4wYwfxMRXzRht2x7jhjjx9hxoo0/3HLJT6THrP/Hs67pn5krdP+9FvfzG+3ZJ+kwFzR0//oMb0MCTUeOw44eVqewYc8Ha6F2bHKbqw9x9yK9Y8ativNBlrReCeHFEJIBwgw8/nHG29cOOw8V9nc7zxlfs1Nel143Ra0u8W3fXxQQ85jbeOPLcNyfSrR9aiCce+ZMdQ3MaMHG4fjqyi05J/Acb1441JbpyjDTvxf6R217vW/+KPv/d2n/dvuaX39Ed/W3fEbu26pEBSzXHGR0173ua3M9e6po+Z/z+XBzdxg7X0lv8KoGDqnjqWQ2/x3Qmau6c4/f7YP6q/T+BO7Lk6OfPfk0D/b96f1KlmQNNfzLOBX/gdSbivR9zd6NU+0/AuahcPL238lLsW/uqtfIXhbrtyfjqlxzdsaRA1/RM8UGbi/Api3V3zC2mG/IZJHHnCK37ur2tsWmOkrT/HV/sZ2n6nBl+pzduKl/GLxihm/2785jXPsl57aa6I/g8cd+1ec2THx2oUX0C/YvUEnifSfeV6rV5rpnlHIv5wX5Mar/nbjd9Tb8em+Pd+Sol5/31dd6fnUqt7tfmatTxlKVRs4ZpfL69Y1ESH61fr7u+WxLbj1DwM02ojvda7+PIaKLXG/98+QV6ZlaPSPOvHS87P9txdy6746nxusbecjv6s2/Efk+N+p2WSNqfDYKuv/mrdgwtyY/GR3toOpxqnHOGI9nLf31Lz6/5uzuekZEhc3lvHg3/Ut9Md+p4rMbdUPuecLs/268un7vHTh1+nXRATxWOVd+LGlCZeBhlKMW5VRM5rJUzQbfa4CVYOeOHNKZiJBJ2vGGaC3nBjGFimWAM4lfbGIc7mDFMNUtjgxkj3WDGIJgB0NKsnr1Ug24q1tNrtuujHXEnOftMB5/b9bf1H0q3nK2LIheRB1X6l8TNDp5++eNANU4X9f+hHU8hvplMen8Bj2vWkG71RmMUF2vElUv0s2VbtfmT2M9q345dKl31mqZ+a2GCC2mjUndft1hTf1epCmdb56ON2LdrrypK1jvbxgczdQnhM4io1pwHy1Thv492nfTVsXX3GWRe88zv/kYjZrypNeW7tCOuytp8Fh+Vb9XryfssTNvTk14JVGUltnnBsxr6rRV6ZJX3nQa/F9PBrbn1c+maNzVzzLNpBjP10KjjqVoLJy3U8P+3XqvjP0fzc/tulZ6esUSD4oOO0DTT6y0u0pJANVbHz/dOv/+lZvydBgBGl84nqn2m9/vdD2PMoxlMsyafvyzevr1x/0geZmd0P1ndu55qp45uoVXO+MbcZfpU8ZrumOY5pm8Zw+1PxjT/ccMXG+TYgCYybh9NNc1rS+pqNww0PypnWh4qZwAAOLpQOdMyUTmTXPm7W/SHF0p04KD3WhM1a+p4XFtNHFX7tnO7duzTGb3vtVOH1wVnnqgnF39P3bIPY4f5DdSqK2d88356iWpqvLszrX3SzjTMLbbdMMYLZvzKGTeKseN+1QzBDAAAAADgaNTzrK669ur+STv8NfbvT1wh0759/Xs++/rVPfXH+d9W6V9u16vPT9Iv7hii7DPqF7CYYOb3j9/SIoKZwyX0cMbn3pHpjWizJK8DYK+HGRPS+HcxcsMaOzbvznk08QEAAAAAHNVMQPONLw1IGtCYjn937/f6ognKbFejU5PcYjuRn972ZS18ZJSu/OK5OuOME9SrZyd977uX6eU/jdMXLjnTrpXa53JOcoOZrl1TdYh29Am9WVMq3q2rvSDGF9MfDXCEoVlTy0OzJgAAji40a2qZaNaUnrcr/6mnnl+tvQdrhzS3fHOQTj+5diDS/8qZ+nulf3u/5Abmn63fzx+pzDaJazy2bdujPl+aqc8+3WPn1GaCmScf+16LC2aOimZNqZhbV7u3sQ4MBDMAAAAAANR2ds4ZbgWN30lw0CfbEwcwp+VEbvif0s03Xpo0mDE6dz5W3/tmXztVW0sNZg6X0MOZtW9GK2PchkvuHZv8Jkz+NAAAAAAAqEt8QOPftWnL+x+7j/EuOreLHUvt/HM727Hk+l7c1Y7FuvCsTjRlqsPhC2fejIYvJpDxB8MdN02Y7DprTSDjLveno4M732xkxgEAAAAAQIxEFTTl/9xmx2Jd3OcMO5bajt0H7Fhyx3c43o5FmWBmyWPfc/uoQXKHJZxxQ5XzpUtM2GIenXle86RL3HGZcXMrbTMe+X/g0d3G62tmrTfH3YZ4BgAAAACA2vyARpnHudMfffyRPt5Ruz+Yf7n8HB13zCE7lVzJ6nI7ltzOXTvtmOe8nqcSzKTpsIQzkX5inEc/WDHcOzKZeW/adcz4+WvtuD/PC2bMY2Qby9sLAAAAAACIZwKa6798uTIzM3Wg5hj946137ZIo01fMgEvq7nD5vnl/0RuliatvfFWbttsxr2Lm6UXfJZhJU+h9zrgCgQuRCwAAAAAATaNH9y5uQHNs20Na+4+N2rd/v10S9a+jLrNjyX2yfacKrpmr7/7b45r602V6//1ddknUK2vfcx8vyj1FTz5+i7p0qd3MCYkdGeEMAAAAAABoFiag+cagAdq3b6/++kbt6pmhX7lIn7/gdDuV3Kd7Dmnp8n/omWc3qGOHtnaux9xC+39Xv22bMt1MMFNPhDMAAAAAALRyfkDzl9ffrNX3TEbbg5px37U68di6I4I2GRm6d/pQdejYzs7x/OrRv6hr9skq/B3BTEMQzgAAAAAAcBQwAc01Az+vFS++pgMHo3dyMi763Bla+OsbdXxWezuntlM7HKNf//c3NfSrF9g5nrLy7Vr1/D/0x8Xf0+mnd7BzUR+EMwAAAAAAHCXOyj5d/S89X3sP1I4DrvziuXp12Xh954ZLlXPKce5dnE5oJ30u5yT94JYBeun5ibr+2s/ZtaM+275bv310tE47zbszFOovo8ZhxwEAAAAAgFWj2OqSo8neQ5nav2OnDrVrq6zjYvuXOdpkKNOONR/CGQAAAAAAEjiawxlEHY5whmZNAAAAAADgiGOqdyoqPtSbb31k57ReVM4AAAAAAJAAlTPh2f7hDt04epH+8vetuvz80/Tcn8bbJYcflTMAAAAAAOCos/jJv7rBzMkZB3XlwF52butF5QwAAAAAAAmkWzlTvfuAKisrtXP3QXU+uaPO6n66Pvhohzoc30EndjhG72zaqi6nd1FFRYXO6HqGTu54rHsr64r3tuqjT3aqo7NOTs6ZOuFYr0LD7K/602pldznZnfZ9+Mku1dQcUqes4/Telm3urbG3flSt96o+cJd3Pf3kWtsYm/75kba8/7Hatj3GfW2nnBh7V6X9u2v0+B/X6bX/q3De8yH1ubiHbhh+oTp0bGfXkHburdGTS1/TulcqdKhdO9047EJt37FH27btVt7Zp+hfvpCj3z31uvbuOqALzztDz/z57xr6lc9p3759Kn37I52dk6Wy8o/d93jjty/VngNtVPjM6/rfl8rU9sAB9b20p24cfpGOPb6t/vb3f2r6PUVa8XKle9eo6XcN0bCv9XZfx1/WbVHRs69r6wc71bVLR3196Pnqe1G2u2zDm+/rtdeqlNH2kEaP6OfOM/ta52zTtr006vpLVOIsf8tZr3t2J1Vt/Ui7d+zT2DH93XWToUNgAAAAAABCkk4480b5Vq185TWdd2ZXZWVl6e2tH2r3nt06PvMY9TkvR73O7q5Zvy1Ux6yOysjI0ND8fmrTJlO/f+4ld/2zu5yqTz/9VKWb/qmvDrhEZ+ecobcr/6nVG8p109eusM/iKVlbqn1796pf38/p4Sf+qD7n9FD5P7fp/LO8cOLNd6vcfX79i5fruGNqtHt/hgpXvaxdu3fp/DO7ad/+/drwdqUuyeupz198rruNaT50/b/+Vq+86QU8vgvOPFGPLRytnJyT9dmnezR8xKN6+Y337VK5FS1tjjtWH+7ar5uuv0QP3Pd1XfCFX6jqn9U6tcMx7vyFc76lFS++rd8uWReZZ27T/bNpBRp582/d8CXovJ6n6ulF39UfCtfrx//1nJ2rSLOme3/+vH4+Z7UOBWKMTjqg23/0FY0fm6//efRV/fDuZTrx2DZ6r/Sn7vIH55W4+zrhxGO1+W//oWl3FemB37yszse307ad+zTsS+fot/8z0l03GZo1AQAAAABwhHr/4x16/i+v6oavflFfuqKvLruop278yuf1ubO6u6FJUI/TTtF3h12lk0/s4AYz/S7o5a5rthmUf4muK7hSy156TR99uttukdreffvcypXvXHOV+l+S5w7fvXagstpKJS+vddd56f/W6NTjjnGf14Qx+ZddoJu/cbVef7tSGys2u+tMu2uZG8yYkGPU0PM06lsXu+HGG+99qjE/+IMOHjqku+9bHglmvvIvuRo78hJ1PPkEN2xJxMw//5zO6nLqifLrQcy8Lqcfr165J+tnM1e6wUzXE9tqxtTB+vW9Q3Vedkf9o/xD3fb/lmrAFT3d5zHMNv/+/S+qZPU7kWDmwrM6ua/h/O5Z2q62uv++P2vtmi3u+ukywYypyumV18XOCRfhDAAAAAAADbDhjY269Pxz1bnTCXaOxwQu8fMu6u31m7JpyzZlts1U3/Nz3Gnf6Sd3VN+8nnr9jbfsnNRq2hyrL/7LRWqbGa3qyGzTRld84RK9/va7+uSzfXrj3U0acNkFdqnn2PbtdXW/z+ml19/Srh379Pvlb7jzb/n+VfrVL2/QnPuG6XcPfVsjvnGhcnNO0scf7dOyIm8dE94sWTxa9909VEWF49wQJ5HRw3rrLyu+r8su727nSNlnZGntiz/Ud2/J18NPeuHRoC/20mmndVCbDsfqK1/xmi2VrHpLp5+apfPOO8OdPjmrg4Z+9QI9vmSNG8zkZHfSc8+O18/u+bpWOI8mvDEBzcKl3j7Tld2pnV7+3x9o6m1fsnPCRTgDAAAAAEAD/HPHbrc6JJHsTll2zNOhXYb7+NEnu3XmyYm3Oe3kjnr/sz12KrXj27dx+66JZ/p0ad/+WG3d+k+3umbekj9r9sI/xgzPFq/R7l27tfWDT7V7vxcLfPHzPdzHmjYZuiK/px787+HucPKJx6lq+z53Wf8vnu8+mnW6ZWfpnF6nu9Pxzs07zY5Fde96kvvadn38iXZV73XnLSh8Q6MnPqVbJz+pWY/8nzvv45pMbd76sTsetHHzZ+5j/8u667gTjnHHTVOl/hef6Y5vrdruPqbrpNM6xfSpEzbCGQAAAAAAGqDjcW3dDn0T2frZLjsWq2OHtm5zpEQ+/nSX2wwpM7ONDh48YOdGmf5mfDv3HnI76Y1n+pnZu3ePOp18stq3a6dbbximf/v2tfr+t78WGW65/uu66dqvqMtpJ7p9xxj/t3aT+5hxqEav/fU93fNfK93h4093uyGIUVyy0X00Pvhgt97d+KGdimX61knm2BOzdLLzuRnfv+ky/XH+t92h8DcjtPTRm9yhV25nd3nQmWec5D6+vva9yPve/dl+vfI3r3lW564nRp43c+9+t5Nj4/1tib+fIw3hDAAAAAAADdDnnLO05s239Nme2I6DTYe+//zgEzsVq3v37vrg00/0blW0c13D3KHJ7Ov8Xj100kmd9Mn27drlFay4zN2dyqq22ikTouzRq2tft1NRa//2prp1y3abSXU9pbP+9vcytW9z0G3yZAZj6fMlKivf5FaOXF1wkTtv7qwVGvuDpfrJ9OX6+k2LdP+8F1X80j+UdcrxuvbL57nrFD21Tt8Z85jbMe+13/p10j5nUjEdFQ+/5nPu+DPPblDFlk+15aM9+vG0ZzT8uwu04HclCStarvvGxe7j3ys/0bXXznWDo4HXznM7IG6TkaFvX9tHXc7wmpKZ6ptRtyzUHXcv16OL/uLOO9IRzgAAAAAA0ABnZZ+u3mfn6LdPP6d1b1a6ocyq//ub/vyX9TrjNK/SI54JJ64Z+AU98+IaFb/6hrvNq38r16LCFbr8c3nq6mx30gntdPG5Z+uxP61UabnXee/Sor8oM9C/TLtjjnGbQP3xz6v11jtV7jp/euEV945NBQP6uut85YuXaf3GCj296hWVv7tFb5RVaMEzL+qU9m3V53yvOdB/3TXU7bzXBBqLn3rdvZPRzuq9bh8xv3xghBvs/HTKYPfuTaZvl6f+XKoZv3pJb773adI+Z4ISVdHc8aPB+sIlZ6ryo92a+P+e1b/9cKn+UbXDvVvTz/9zuF3L43co/KWBPTTp5n9xx00HxiY8enPjNjeYuW38AH3+CzkalN/LfS9G0eq3NfvRv0S2P9JxK20AAAAAABKo61baH+/Yo+pPP9Uxx7TTW2+/p0/37tEZnU7WBXk9tOTPxfpi3/PUo3sXN3wxHQKboMP36a79+kdZhT7+eLuOO+5YndcrV11Oie2nxoQu727yqmV65HTV8ccf7zZZOvXUU91baU8YNUwb39mk9zZ7d4Y67fTTldczR8e2PeROG6aZ0z82vqtNH7yv4zPbKvfMM9zbdQft2XlAv1vyV5W88rYOHjyoiy46Szff2EcnnnK8XUPasX23fv3bV/XK+ip1bNdG1369t3bsOqD339+p3ud10Zev6qGH569RtfO+rrw8V5f06+put+KFt7XhH1vVpcsJGvFNr0rHOLgvQ4uWrlFx8Ts6cGC/Lr/kTH1n5Ocj/cm8VFyuNa+/73ye7XXjty915xnFL27UU0Wl+vCD7Tqtyym6bujn3GDGt23bHs195H+18a0P3OXDv3qe85r/qeOc3Y4d0z/pflM5HLfSJpwBAAAAACCBusIZc0ek3yxdpm995UpldznZzpWqtn6spStWu/29mEqZpmb6XHno8ac16dvfVEbb1K8RjXc4whmaNQEAAAAA0ACm+dHX8i9zg5jnXnzNrZB5/qV1eur5Emd+v2YJZtA6UTkDAAAAAEACdVXO+EyHwKZPl507d7pNj3qe1dW9bXRzOXjokLZX79GpJ3Wwc9CcaNYEAAAAAEBI0g1n0LrRrAkAAAAAAKCVI5wBAAAAAAAIEeEMAAAAAABAiA57nzN0cQMAAFqSjIwMOwYAONrQ5wyMVtEhMGEMAABoTQhrAODoQTgDo0WGM4QxAADgaEJYAwCtF+EMjBYVziTbDWENAABoTZKFMYQ0AND6EM7AaDHhTPwu6poGAABoieIDmLqmAQAA0tHocCZVEOOPp3qKRj49AABAk0oVsPjLgusQ0AAAgMZqVDgT3NQfj388dOiQ+2ikeqpUywAAAJpbOqGM0aZNG/fRnxf/aKTaFwAAQLwGhzPBzfxx/9EEMmY8OBj+oy9+GgAA4EgQH64EA5jgkCyoMYLjAAAAqTQonAlu4o+bR79KxjwGh+A6wcdEUi0DAABoaqlClPjQxTyaQCY4GOYxfl0jOA4AAJBMk4Qz/mCCmIMHD3rDMSfYNQAAAFqfzP2fKTMz0x38cMYffIQzAAAgHd6fe+ohUTDjj/vhzIEDB9x5AAAArZU53zHnPfFVwv64ERwHAABIpt7hjC/+xMMMfjizb98+uwQAAKB1Muc7wXAm/twIAAAgXQ0OZ3zBYMYM5q9I+/fvt0sBAABaJ3O+Y857/HOg+IAGAAAgXY0KZ/wTkEQBDQAAQGuWLJjxHwEAANJVr3Am0UmHfzLiD355LwAAQGtmznfMeU/8uZDPHw/OAwAASKRRfc4ETzqCgzlRAQAAaM2SBTPBcQAAgHQ0us+ZoPiTEwAAgNaK8x4AANBUmqxD4PgBAACgNUt0/mMGAACA+ko7nEn3ZIMTEwAAcDSozzkP50YAACCVJmvWFDxB4QQEAAC0dsHzHs59AABAYzRpnzMGJycAAOBowXkPAABoCk0SznBiAgAAjnacDwEAgIZqVDgTfxLiT3NyAgAAWrtk5z2cBwEAgPpq8mZNAAAAAAAASF+jwxn+OgQAAODhvAgAADQElTMAAAAAEILNjy/U5/v9j35WstfOAXC0arJwhr8UAUexLX/QbTfcoBuTDb981a4IAK0T50HA0WS7lnx3jvr2naPbVhCqAGgaGc7JRFpnE8HVzLgZDh065A4HDx7UgQMHtG/fPu3evVufffaZuvY4z64NoNUz4cwPntDmzhfoqgtOszMDzv6Kbh10lp0AgNZhyzv/0AknnKDjjjtO7dq1U9u2bZWZmak2bdq4Q0ZGhjv4guMAWrCyVRp6Y5VO6VOt1zv318v39VE7uwgAGopmTQCazrlf0a3/Nqb2QDADAABaidKV72pzrxz9+MYu0oo39aeP7AIAaATCGQAAAABIx8G39PTju5Q3+Fzl9T9bAzO36+mV2+1CAGg4whkAAAAASMe6t1S0I0sFA7tIHc7TVwdKry9ar1K7ON5HL6/Sbdf9Wp/v6/VRc2XBQv2spNoulTYvWOjOn1psZ1g71pdo6k3/oyv7edv1vfI3um3BO9phlwNofQhnABxWm5/6odtJ8K/W2BkxXtWvEnQg/OovTcfCv3SWOtsvv08TRznT3/6l1nuLPfs/UMn8O3TbLaMiHRH/67/9WDP/9IY+OWjXCQju85M3/qD7JvnbjdLN/++/tax0p7diPPs8E0d7z3HjqJt1252P6tVtdjkAAGil9mrl7yu1o1eOBnY30+014EtdpE3v6oUyd4UYm3+3UIPGvam/dcrW+On99fP/OFf9Olbr9fJddo0kNhVrzHfX64XdWbpuirPdfX006iznuWcXaczvttqVALQ2hDMAWoyda3+pO+b/VR/sdyYOSvu82c5JzHO6Z9wE/Wp5hfZ3u1jX/uu/a+Q1l+msYzbr1d9O19ipf9DmBAGNsXPNL/XD//yzdp51la771+v15T6naX/lq1o0/Yd6aK15ooCdb+g3tzvPs6JCx+R9WdfdMlLXXtJNOzc+p5mTfqxlW+x6AACg9dn1D/1ppdwmTd3srHZu06ZdWvLUW3aOr1JPP1Yt9TxfD837mkYN6aOB3xqkny/5N80b1smuk0x79b/zOhUvuU7jv+VsN6i/Jj9aoJu7S6UP/VWv27UAtC6EMwCaTsl/2+qT4PBD/aFJQottWvXMG/rcLQ/ot48/rsce/3dd5s5/V0tmPKo3dp2lIXf+WrPv/IGu+2p/DbnhB7r7l7/W3UPPclZ5QjOefNddO1aJHnpEGjPHWW/Sd3XtV6/Vd378Cz1y77U6S59o1fynnL379uvVR/9bz+24WLfOWqif/9hZ/+qv6bpJd+vBn13vrP+uFv2uxFkLAAC0Rh8te1MrD3bSNYO72DmODn2caWnH8re0JtEfgnbt0Y6Y+ZnqeFJ7O55E98s1/uudY+8AlZmjiy50HnfsU7RRFIDWhHAGQNMxt9L+4lVxw2XK7WCXN8pb+vScH2vy1afpGDvHteHP+vM26bSv/ptG5h1vZ/qO1zk3jNJVzuwPVqzUG3ZuUJ9v/5suO8lOWMecdb1GftHZaNsqrX7HzvxklZ4t2alzho/RVZ3tPF/3r+nLvZ3H9esSPgcAAGjptuuFou3OiUOOrj7dzrIGDMqWdlTqiZV77RwjR1/9Vpa5575uvbFQC0u2al+SKt6E9m1XaUmJ5tzzrG676X80dOAcTVhmFlSrYpO7BoBWhnAGQNNJeCvt69UnLvxomG7qn1/7ltybN76lXTpJ/b6Q5HbdmReojwlOdr6ld2s10z5LnzsnJuqJOPecc53/f6JP/NtjbizTRvPw239LUB00Sg+ZDnCCTa0AAEDrUbZeC82/9evXa5Dt3DcyTKpyV1m5fEPMeUDuTSP0zH056vF+lWb++1J9vv9vNPXJujv13bGmSMP7L9aIf1+vJa9Xq/05XTR4bH+N6mNXANAqEc4AaCFOU+f4ihXH5s2bnf8fr+OP9aYTyjT/2699h9ypgG7qHKhMDjrm+Nhyn82bvAZOp10QXxkUHHo5rxIAALQ2pSvf1Wa1V79v5OiaBMMA8zeiVW/p6fe99T2Z6jboa1r84r/pmV/2VsGZu1T0X0X6xoz4/mkCDr6lObe9o4qe52vpy+P14pIRuvcnX3P7nunnd3QDoFUinAFw5NizU0nukeTokDCA6Xa6OVNxttvjTSd3vOLyFseupNv5YYz/W7JbV++M6MR+1yeoDvKHLytJ/Q4AAGipDr6lpx/fJfU5T//5k6/pjgTDA5OynRW36+nlie6mlKlu/fN172PDNb6X9NGTb2m1XVLLlq16fYfpdPg85cZ0OlOtDz+wowBaJcIZAIdVt+5efLF5a4IzjI1vKcXfkhLqlmv294nWvJqow1/HwTdMBbLbH865tZpXVejdhJt9ovV/NRU5F+uCC7w5Ou00mc03bniDTn8BADiarHtLRTukCwvO1yl2Vi39z9N1HaXSp/6hUnfGLu34xB2Jyuykrl2dxw6ZyvLmJLV5S2y3vzuKV2nOGjsBoFUinAFweHXLdm8/+e5zz+ndYMd4BzfrD79b5ZzK1FPfgfqyczL0wTO/1qLS+Lqb/Xp36UKtcmafM+QrCapaPtFz85/Qu3FpywcvzNNTG51zp/5XaYBfrdPjKn25u/O49lHNezn+bMvZkzN/yVo7AQAAWom9Wvn7Su1Qlq7+fIpbYGeeq6sHZ0qb3tYLb5oZb+tnA+do6LhntXDZeq1cUaI5/75YU1dJed+9WObGSwl1P1cF50s7nlyh4dOKVbTiNS28Z7G+MWWnetDnDNCqZd7psOP1VlNTExkOHTqkgwcP6sCBA9q3b586dkrQOQSA1mlHqZ778xvasadaH79XqrWvrY0bPtYpl57tVp6o45k66Z8v6OXSN/TCyte16bOd+vjvz2rR3EUq+/xXdUHpW9p85hf0zcujDas3v/p7vbzpTH3hm5e7wU6MNqfp4osztfb5Eq1ZVaSX/v6utn68R1v+9gctmjdPS9Z+rJOu+IGmjzg75i5P3j4vUP8L1uo384r19ie79Ok7f9GyxfP0yIp3tf+k/vr+j7+hMyMlxVk67zzneVb+VRv+8qxe+Nt72vaJeZ7n9IcFs/VI0Uad0v+busz8RQzAUWHH9g/Vrl07HXPMMcrMzFSbNm3cISMjI2bwBccBtBC7/q45P92kinPP1dTv5qSseOnWcZsWF36oNzJP0neuOEPtP6vSmr9sVVHRJj33/FaVtz9B1//o6/rPb5zudYfn2PG31/XYK3t1zuDLdHWOmXOCLhp0qjpUbtHqFzar6LnNeqPt6frJo8PVt3SNija21xduvEgXnehuDqAVyagxyUoagqsFA5n4UGb37t367LPP1LXHeXZtAK3elj/oth88IdMQKLH+mvz4v+syO6WDH+jVh/9bv3n5XX1i+nw59jT1+fr39e/f+ESP3vDfKun/Az3275G19eovb9DMkrh9xPvkDS2bv1DPrrf71DHq0ONife3akfpav7jbbzui+/yuOj31K/3qj3/VB/a1nPPF6/X9b/fXaYlu5GSf56m172qXqbjJPEYn5VysLyd5HgCt15Z3/qETTjhBxx13nBvStG3bNmFI4yOcAQAAyRDOADgqpRX4AEAKhDMAAKCp0OcMAAAAAABAiAhnAAAAAAAAQkQ4AwAAAAAAECLCGQAAAAAAgBA1WYfAZti7dy8dAgMAgKNCsEPg9u3bu50B0yEwAABoCCpnAAAAAAAAQtTocIa/AgEAAHg4LwIAAA1B5QwAAAAAAECIGhXOxP91yJ/mr0YAAKC1S3bew3kQAACoryapnOEkBAAAHO04HwIAAA3V5M2aODEBAABHC857AABAU2iycMacnPgnKJyoAACA1i543sO5DwAAaIy0w5l0Tzo4QQEAAEeD+pzzcG4EAABSaXTljH9i4g9t2rRxBwAAgNbMP+eJPxcCAACor4wahx2vk7+qeQwOBw8edIf9+/drz5492rVrl07p1sNdFwAAoDX661/+V8cdd5zat2+vtm3bukN8WOMjtAEAAKk0OJzxHw8dOuQ+HjhwwB1MOOMHNOZx79697nwT3vjr+tsbwXEAAICwxYcqZjChS2ZmphvAmDDm2GOPVYcOHdxHM/jhjL+uv4/4RwAAgETqFc4Y/urmMTiY8MWEMPv27YuEMmYw1TRmvglm4sMZ/zEo0TwAAIDmkig4CYYqZvCbMJkA5phjjnEDGj+kadeunTvfhDf++v7g7wMAACCVRoUzhh+4mMdgQGMGP5iJr5rxt/XFTwMAAIQhPkgJBi3B6hkT0JhQJhjM+BUz5tHfNvgIAACQTKPDGfPoDyaE8QcTzPjj8VUzZvAFxwEAAMIWDFPMuD/41TMmiDGDCWj8cTME1/W3DT4CAAAk0+BwxjDj/rR5NEGMefSraPxHfz1/8NcHAAA4UgXDleBgghg/pPGrZfxwJri+LzgOAACQSL3DGSO4iRmPH/wqmfhqGTP42/iC4wAAAGFLFKz4gYs/+KGM/xg/+ILjAAAAyTRJOOM/xo+bwQ9o/PnBx0RSLQMAAGhqqQIUf1nwMT6Q8ecHx33BcQAAgGQaFM4Ywc388eBjsvGg+GkAAIAjQXyoEgxeko0HH43gOAAAQCoNDmeM4Kb+eLJHIzgeL9UyAACA5pYqTEkUuiR7NILjAAAAdWlUOGPEbx6c9sdTPUUjnx4AAKBJpQpW0gliCGYAAEB9NTqcMeJ3Udc0AABAS1RXEEMwAwAAGqJJwhkj2W4IZgAAQGuSLIAhmAEAAA3VZOGMjzAGAAAcTQhlAABAYzV5OBOPsAYAALQmhDEAAKCpNXs4E4+wBgAAtCSEMQAAoLkd9nAGAAAAAAAAUW3sIwAAAAAAAEJAOAMAAAAAABAiwhkAAAAAAIAQEc4AAAAAAACEiHAGAAAAAAAgRNytCQCANPFPZsvk3wqb769145bnAICWjHAGAIA6+P9U8k8mcOTywxlCGgBAS0Q4AwBACuafSTP0GvSYMjMz1DazjfuY2SZDbZzBXAiaa0GuB8Nlzma8oUaHDtXooBkO1ujAwYPuY9mKEfa74otqzQ4dOsT3DABokQhnAABIwg9mzNB32O91TNs2andMpvvYtm2GMjPbqI17IUg4EzZzNmOGQ87/Dh48pAMHarT/wEHt2+cMzuNf/3hd5KKdC/fW6+DBg3zPAIAWiXAGAIAkzD+R5i/xZrhq5LM6tn2mO7Rv5wU0ZjDVM14FjbcNF4SHl38a4wYzh7yqmf0HDrnD3n0HtHvPAe1xhv9dPMz5nsz31YbvqBXbv38/3zMAoEUinAEAIAHzz6M/mL/GXztuhY4/rq2O73CMDWnauuGMaeJkqmdMQGNwPXh4+WcxbjDjfldeOLNnrxfM7Ny1T585Q+GvC5zvKtO9YPcHtD779u3jewYAtEiEMwAAJOAHM6ZqxoQz3/lxsbJOaKeOxx/jBjTHtW+r9u1M86Y2bv8z3oUglTOHm/c9eY+mn5kDbsXMIe3eu1+f7dyv6s/2qnrHHi24/2r3ot2vqOB7ap327t3L9wwAaJEIZwAASMC76I+GMxPveVmdTmyvkzq2V8cTjtHxxx3jhjNe9YzXvMlcB3IpeHiZkxhzJuN2AnzQb850SDt371P1jn3aXr1HH2/frV/deQUX7UcBwhkAQEtFOAMAQALBcObAgQOaNmudTjnpWJ3sDCd2bKcTTPXMsYGmTZFwhovBw8n5lgLhjNekyTRn2rFznz7dsVcffbxbH27fqf+87fNq27YtF+2t3J49e/ieAQAtEuEMAAAJxIcz/zXvdXU++Tid2ulYnZTV3m3eZMIZc/emtpFwxgtocPiYsxjvezK3za7Rvv0H3XCm+rN9+qR6j7Z9tEvvf7RT08ZfykX7UYBwBgDQUhHOAACQQHw4M3P+mzrtlOPcgKZTVntlnXCMOhx3jNodE+x3xvmHlYvBw8r7nhTpb2bf/kPatXu/PrVNmt7/cKfe37ZTt9/Sh4v2owDhDACgpSKcAQAggfhw5leLSnX6qce5Ac3JJx7rdg58fAe/csZr2mSuA7kYPLwi4cxBUzljwpmD2rnrgNuk6eNPdmvrhzu19YOdmvSdC7loPwoQzgAAWirCGQAAEogPZx58rExdTu2g053h5JPau/3OdDjW3LEpM1A54wU0OHzMWYz5nqJ3ajqoXXsO6JPqvfp4+x79c9tn+ucHn+nf/7U3F+1HAcIZAEBL1cY+AgCAFNo4F3lex79yg5hMZ8SEMu7gVs541TMMYQzed+B/H+a7ccMy8105y813BwAAcCQjnAEAIA3m+t78Fd50/OsNzrT5z53v/IPqTJsQgCGEwXwX9nsw34n7XdjvyauesF8iAADAEYpwBgCANPgX+ebi3+dPu8vcR3+91j8YfrOvphr8ltaJni/5UPs78PnTZhkaxv+ODx482GRD8LsGAAAe+pwBACAB88+jf2Fq+px5eMlGnXFaB51+Sged0ulYt8+Z44+rR58zm4o1YtgGldpJT5YmF47SqO52sgUxF9m3/PhF/fFF58L9UO1Tie2vDbJjte368nA7FuB8cP+8rI/OuvM/lJmZaWfWzZzFmO8p2OfMzt1enzMffmw6BP5MW7Z+prHfvsD5nhrTF8lWLbxxqWaW2UlXth5YN0wD7FRq3vZFg4dr8U1d7LzUNi9YqKGzFeoxYr7nSZMm6fnnn3fH47215HQ7VlvNbZ3tWIDzub93+UXKvmtqvb7ndNHnDACgpaJyBgCAw8ZczI/XusjQMoMZwwRWT//vfh04eEA1NQcTDF64lXAwlRPxg3Ph3+WVv7r7PZIVzIp+f89MrNaEG4u12S5rat1uGhX6MWK+jz//+c/av39/pMIpOEgmmEs81BxKMBw8pO4v/+2I/54BADjcCGcAAEC9mYtrU0lRU3MoyeBciCcZ5FykJxwOHGxRF+3dBuYor6xSKzfZGa1Q9HtO8l2mGBIfF85w8ADhDAAAcQhnAAAInWnyMkcjFmxwH/v2XaiF5oLfNIXqa6btMG2Dt7pRXOjMK9TqmHWcabvYZ5rGRLZ3hqnFdoFj9bTo/ETbpmKqJhJXzHhDfIVFcEhYOWMHs7xlyVJusLLF/V4Sf961ed+7v67//Ue28b9jd2KDptban7d9rfWDr8E9ZmKfJ/VrihX/3cUPSlAx4w+Jvl9/8LYFAAA+whkAAI4QpbPXSzOizZ02r9yugkK/GU2+CpYVx11YV2nCFOl+d/lwTe7lTAcCHK/PkqxoU6rC3sqzy0wwM0H5dt8Na6KTsCoiMsRWWAQH5+o8+dBibNXCKc5nPfHyaJ8zJhSZpJjPu2KSDdpqMYHJUs3sGf0O7tf6uD5tGsI5Blb0iDx/nnPM9O27VKVj/e85S0WT6h/EJRucLy3pkCiU8QcAABCLcAYAgMPGuXD2KxrMEB+GDOkT079It5uGBaZ7q2CIVFGx1U4bWZo8I1/d3PEuGjU2Wyrfbve5QXPdzmQDHdZ2z9eofOdxU7HmLsvWA9N7e/Md3W7qo4L6NtGpOZh8SCHRxbo/HOmKJvnf31LNdL6T+yOd+27VwgerVDAr9vMeN6RaRSuD35lV/IpmlsV/B4M0uZedaLDAPt3ndx6H5Ote87073O9Z1aqox/ecKJTxB+fbTDok7HPGDgAAIBbhDAAAh01ch8CP+cGKJ69n7bvbBJseTVhmZ0bENakxyrarwjwWv6OiRMuNiu0qjQ+K+hY761er1N04PYkrZvzBuQhPMiTsb8YfjnDBDoHXzZBu95ugaZtKy4LhjTeY76y0fJu7bdDmimqpVyfl2unmlOi4qo9E36E/OP9LOiQ+LrwBAADEIpwBAOCI5PUxEmx69ICpgqiPlBf/8XeO8ga/wiIdiS66o0PtC3l/kKm4SDa0JAkqY2LCG38IVMfE6NkpJpw7UiWqmPGHVBJVzPgDAACIRTgDAMCRyFS+9OqtZ5Jd2Nclt1PyOwmZZfVs2pJIzaGDSYdEF/L+kKg5kz+0XJ2V1yu+2Vly3XKzpGXvxPX94lXfJObtP1aq9ZtOou/QH2pS/JdofX8AAACxCGcAADgSxYcrxYUJmjWlYKs6Zk4J9GuzqVgLTYfCiZaZPlOmHaYOgU3lRLKhJXG/kywVDDT9znh9/pTOXhHTAfDmBYWJOwTO76ECVWnugmiYs9r5/IvseG1dlNtTKnow+h2lXr/pJPoO/cH5X9Ih8XHhDQAAIBbhDAAAR6Lu+bp/ojRzmO2/ZEWPejdrGjB9vB7ouUFD/T5QhlXKb+c0YPpwTVZgmbmjz6DYPnDqlKgjYH9IIVHFjD8c6WL6lJlUrcmF3p21XPnD9EzwO3OGoeU9Yjp5juqte9flK3f20si6RYPMHbfs4gQGTM9XQVn0O6tr/aaSqPLFH5xvM+mQ6Pv1BwAAECujxv2zBwAACPIrA8wF6IEDB/Twko0647QOOv2UDjql07E6sWM7HX9cW7Vvl6m2bdsos02GMjLMYHfQyu3YsUOd+y21U7V9tPZbdqy2A1ckT5navPiMOnbsaKfq5hVp1OjgoRrnezqkvfsOaufuA/qkeq8+/Hi3tn74mbZs/Uxjv32B8z21VZs2bez3dCR+UaafofXKCwY+ITPf81lnnWWnavvwueTLPvteiu+xuH7fc7r27NnTAr5nAABqo3IGAAA0SE3NwRRDtOlLrSGuiiI4HM3cZkq9cjTwCAlmfPHVMsHBVMgkGxJ9v/4AAABiEc4AAIAGycgwYYtzsZ1gSHQh7w8J+5oxg46mKgfvblx+kyYzuHfmiru9+pHAVJ8kDNmcwflf0iHRceEOFLMAAFAL4QwAAKg302zkmqs6KLONuQhvgsoZZ5+br7jM3e/RwfQ5k+Ytt0Nkvo8hQ4a4jwmDtrhqmeCQ6BbaNcpQ1RWXH0XfMwAA6aHPGQAAEvCDBHMBSp8zte3du1e7d+92Hw8e9MKYhjKfW2Zmptq3b6/jjjvOfUyXeVrz3K2jz5kjz5HyPaeLPmcAAC0V4QwAAAmYfx7NQDhzZDNnMeZ7IpyBQTgDAGipqCkFAAAAAAAIEeEMAAAAAABAiAhnAAAAAAAAQkQ4AwAAAAAAECLCGQAAAAAAgBARzgAA0ES8Ozz5dxBiODyD8z8AAIAWjnAGAIA0RIIX8587XjuIQTjiv4fI9+N+V940AADAkYxwBgCANEQv+qVDh2qcwXl0JtzBTAfHGQ7fkPA78L4jBb4zAACAIxnhDAAAaTAX+eaC/+BB+3jokDvuDjHjDId1SPgdHIr5rqicAQAAR7oM54SFMxYAAOJ4FRfm4v6QDhw4oDm/K9Xpp3bQaaccp5NPbK8TO7ZXh+Paqn27TLXNzFCbNhnKyDCD3QEOC3MW431PNTpwsEZ79x3Urt0H9En1Hn38yR5t/XCntn7wmSaOvlBt27Z1vqc29nvii2qN9uzZw/cMAGiRCGcAAEggGM4cPHhQM3/zhhvOdD75WHU6sb2yTmgXCWcynQvBzEwvmOFi8PDyvidFKmb8cObTHXu1/dM9ev/D3dq6bYduv+Vi5zvK5KK9ldu7dy/fMwCgRSKcAQAggfhw5mfzXnerZk49+Tid1LGdOppw5ti2aneMCWYC4YzzHw4f51uKhjMHD2nf/kPateeAqnfs1SfOsO2jXXp/205NHX8JF+1HAcIZAEBLRTgDAEACfjhjBhPOmMEENWbw5+PI5l+Y+9+VmeZ7a138AMaEMWYwwYwZ/PlmAACgJSCcAQAgCfNPpB/IEMy0bP53xsV66+OHMH5A4w981wCAloRwBgCAJPwgxgzxwYz/iCOTuTBP9h2lWoaWxQ9gzKMZ/FDGHwAAaCkIZwAASMH8M+kP/jRaFv8742K99fK/W4IZAEBLRTgDAEAdCGaAI18woAEAoKUhnAEAIE38k9ky+RfrfH+tG6EMAKAlI5wBAAAAAAAIURv7CAAAAAAAgBAQzgAAAAAAAISIcAYAAAAAACBEhDMAAAAAAAAhIpwBAAAAAAAIEeEMAAAAAABAiAhnAAAAAAAAQkQ4AwAAAAAAECLCGQAAAAAAgBARzgAAAAAAAISIcAYAAAAAACBEhDMAAAAAAAAhIpwBAAAAAAAIEeEMAAAAAABAiAhnAAAAAAAAQpRR47DjABwZPefasdpqysfZMQAAAAAAmgaVMwAAAAAAACEinAEAAAAAAAgR4QwAAAAAAECICGcAAAAAAABCRDgDAAAAAAAQIsIZAAAAAACAEBHOAAAAAAAAhIhwBgAAAAAAIESEMwAAAAAAACEinAEAAAAAAAgR4QwAAAAAAECICGcAAAAAAABCRDgDAAAAAAAQIsIZAAAAAACAEBHOAAAAAAAAhIhwBgAAAAAAIESEMwAAAAAAACEinAEAAAAAAAgR4QwAAAAAAECICGcAAAAAAABCRDgDAAAAAAAQIsIZAAAAAACAEBHOAAAAAAAAhIhwBgAAAAAAIEQZNQ47fkTbsni0hs2ptFMBg+/WmmlX2Amg8TJ6zrVjtdWUj7NjTWxTsUYM26BSO2nkTRyuxTd1sVPGVi28calmltlJV5YmF47SqO520ldcqL6TquyEp2DWeN2bbyeCEqyrIflaN723nQAAAAAANCcqZ4CQbV6wUH2HbVDurPFat84f8pU7e6n6Tttg14oyIUtkvVlZmjlsoRZusgsdq6fNUd9J0gORfTlDYW+pYqtdI4FevfVMZP3hmlxenPC5WzUTUt1YrM12EgAAAAAOl5YXzpxzswpLVmmNP1A1g5ZsU7Funy1NLoyvaumte9flq2BZsaYW21mJ5A/TA0OqVbTSC15M0DOh3AQtwzTAnWN1z9e9MVU4qXTRqBm9lbfsHa22cwAAAAAAzaeVVM68pGn9r1I/Z5hWYsdHL9IWZ0nJdG9+dBitRZEWHMHtKrVodHS9aSV2Fcs0q4ruwxmmv2SXOEruSb4MSGHzykqVDulTu1mSq7fGTcxS0YN1V3OUlm9z/r9Bc2dXq2Bsvrp5sxupWhW2IsetxunrD4WB0GaDpjrzphZ7j94y0/xqjkYs2OA+etvY6h5TneLvJ75KJbjMGUYsCFT6uMucfZvmX5F1gq/D8J43so/g/uvY3qs2cn4xlG3QULPsaKsaAgAAABCqVtesafmUO7TcjkuVqnjbjkZUavb19ygue3G2G63ZG+2EY/mU6Dom4EnY341hgpkpL9gJa/kdBDRIS0V5tfJ6drZTtXUbmKO8su2qsNO1bXX2IW8fm8x62SpI1K9MfVVsV6mylNvdCy4mKD/SROqZidWaEBesFE16RwXu8mjFTuns9dIMbxtT3TNz2Bz1fbCTbT6Vr4KyDbo9EMCsXhFoimWaYc1eEdNcS6rShCnS/e46wzW5lzMdCVG8/niKBg/3tneGB3pu0NCYkCX59gOmO/NmZUebd9HfDgAAAIDDqOWFMxsf0bBAlUp8hUuk2dP8keqqHI2cH2gCVXK3BrsrvaDl8duZjoXNOjOutjPKVWEqbKoW6UGb9vQaP9/uZ74mnm3mVGrRw14wE1n2xM3qZWYsf7FWAATE8oKV3Nx0mxvVtnnBCs0sy9Y402TJBCq9OinXLmu4DZo6qUp5Ey/XgE3FmrssWw8EwopuN/VRQVmlVgaCE3ddO+7LmzgoUhE04NbeyjOdF8/wq3q8qiCv4sczYHqgKVb3c1XQq1qlMalUcPsuGjU22/kx3e6FRMWvaKazz/sDTbfc54xpmpViewAAAAAIUaurnBl8iwllomKbIwWramINHmj7rul/pQ1wKuVcfzoP78q7Oc7VGjsixx2TCX1GmPXfU5mttimbY5/n+kfs+jbcAepQkaqj3gSKJvnNcuZo6PKc2P5lUlbZpOA353GHYmnWeO9OUW4FTZUmRJZ5y4sUG5ykFzB5lTjJBZslxd+VykiwvX2/myuq496DM7h3v4o2zUq1PQAAAACEqcV3CDy9v52fSMk9keZIXmWLXzmTvi2V5d7IOWfVrkioqoxc2A2eEX1N3jBfI7PtQiChLho4OLZ6JJ7XJ02PmKqUmLs1PRboXya3k/Jiwoh6iLlbU3znxNmxd35KuE4juX3BBJslmWZHdlm64t6DNyS4zTgAAAAAHGFaXeVMUCRYGXy3Fpmql0CYkq6u+V/ymiltfERTFvv9zlRq0eKXnGvWnEhgs/xhrwNiV9UiTYusCyTn9imzbH1c3yo+28HvoDT7P+mer3Gmb5eHmrAz28YEPvXghVD5XrVOA3TLzaIKBgAAAECL1arDmQjTQW9Mk6N6yB6psbbcJtJ0qf9ozXY7Gr5CY8fbpk7BvnCc5+EiEWnpnq/7J0ozh9m7GUWYux8Vq2hIfr0qVAZM926/XetOSJuKNTV496N0+YHPlOD+tmrhtLj9N5IbrgT6h/H60rET6ci/PK6DYMP5DOt71yUCHgAAAAAhaNXhTNcRd2niOXZCOZr4RP2bNRn9p63SrLgNe519pvvYdcT8QCfCvmD/NEBq3W4apXWFOSoydzOK9Jni9ftS/7sG9da96+ydimL6X9muggZWpQyYPlyTFdzfUpUOaqrbdVv5w/TAkGjfNrerTz2bNXXRqMdsMBV5neuVd2s9Pj8/4DHb1jfUAQAAAIBGyKhx2HEAjoyec+1YbTXl4+wYAAAAAABN4+ho1gQAAAAAAHCEIpwBAAAAAAAIEeEMAAAAAABAiAhnAAAAAAAAQkQ4AwAAAAAAECLCGQAAAAAAgBARzgAAAAAAAISIcAYAAAAAACBEhDMAAAAAAAAhIpwBAAAAAAAIEeEMAAAAAABAiFpeOFO1SCP7X6V+gWHk4kq7sPmVTLfPO/0lOydkkc9jtBZVJZgGAAAAAABHtBYVzrjByPWPqMxO+8rmjFa/0Yu0xU4jjh/Y8BkBAAAAAHDEaTnhTMk9mrTcG+01fr7WlKzyhhlXezM3PqIph6GCpv80+7zTrrBzjjDZI7XI/Wzma2S2N2tL8fO1Ai0AAAAAAHBkaCHhTKUWPfyCN3rOzZoxIscbN/r/RLMGe6NlcxaqxIzENO15SdPccTPc4y7fsni0nXaGQPOkYJOldNaJCj6HGfwmRc7rHh2cbwbvNbiSvs5gk6Q69hEvrlmTeb3D5tjQauMjGuYsizYDi9938HkBAAAAAMDh0ELCmfdUttEb6/XlK9TVG43oP9BWz6hcFTHhQqVmX3+HbMGN4wVN6h8IK4zld2hafNLhzKtzHZ8bhgSfIyj6uqOc11CreVH863Smf+Kvk+4+6ssEM6M1O2bf5nUQ0AAAAAAAcDi1jHCmqlIVdjQ3J1A1kwa/CZRfXSPlaOITptnP3fJnVVTGN4e6WrPcpkGp1vGU/MbvA8ffxhlmfMmdI12h6f48Mzxxs3qZ2Ruf18q4AMR/nYXj7fvb+K59z+nvIxHTDCuyz3NuVqGzj0Wm8qhkoQ1moq/b+4wqtbw48XsFAAAAAABNr2WEM9k5yrWjyUKSxHI0ON8LJnLP9gOKL2mg2xfLmep1jjuntsFXqr87coUG+02m3n7PG4lRqYq3vbFe40fZbRz9R0b6e4k0gzJDgs6MPdHX2TX/S174EqgCSm8f9bOlstyOedVEZt9+nz6J3ysAAAAAAGgOLaRZUzRIKXvupVrNeUpW+v3R+MHL4RJtcpSoosf0W+MHHoNnBKpe6qEp9pFIxds25LLVNJHKHDMcqZ0dAwAAAADQCrWQcCZHA79sw4+4uzIFw4tE/dE0r2hlzfIpgU56Sxa5/bb4AYhpsjTdlNVUvlvvqpem2EcikUoi5/N8MNCfTsn0FJ0NAwAAAACAJtdCwhmp64j5gbsyRe+kFOm4d/DdXl8qh1n/7/iVLNHmQf2mPO/O8UVe7xRb4dMAjdlH15ye3kjgbk1dR9wc6U9n+RT7up3BD7oAAAAAAMDh0WLCGcN0brtmhn9npii3uU9YTXGyR2pRraZGPZWbbV5vtENht+PdBjRJaop9BG83HmU6Gp6viXH97sT0nQMAAAAAAJpdRo3DjgNwZPSca8dqqykfZ8cAAAAAAGgaLapyBgAAAAAAoLUhnAEAAAAAAAgR4QwAAAAAAECICGcAAAAAAABCRDgDAAAAAAAQIsIZAAAAAACAEBHOAAAAAAAAhIhwBgAAAAAAIESEMwAAAAAAACEinAEAAAAAAAgR4QwAAAAAAECICGcAAAAAAABCRDgDAAAAAAAQIsIZAAAAAACAEBHOAAAAAAAAhIhwBgAAAAAAIESEMwAAAAAAACEinAEAAAAAAAgR4QwAAAAAAECICGcAAAAAAABCRDgDAAAAAAAQIsIZAAAAAACAEBHOAAAAAAAAhCijxmHHm1RGz7l2DGg93ll1rR0DWrbc7mfYMQAAAABha7ZwBmipUgWLNeXj7BgAAAAAAE2DZk0AAAAAAAAhIpwBAAAAAAAIEeEMAAAAAABAiAhnAAAAAAAAQkQ4AwAAAAAAECLCGQAAAAAAgBARzgAAAAAAAISIcAYAAAAAACBEhDMAAAAAAAAhIpwBAAAAAAAIEeEMAAAAAABAiAhnAAAAAAAAQkQ4AwAAAAAAECLCGQAAAAAAgBARzgAAAAAAAISIcAYAAAAAACBEhDMAAAAAAAAhIpwBAAAAAAAIEeEMAAAAAABAiAhnAAAAAAAAQkQ4AwAAAAAAECLCGQAAAAAAgBARzgAAAAAAAISIcAYAAAAAACBEGTUOOw7AkdFzrh2rraZ8nB0DkNhWLbxxqWaW2UmjV28981i+utlJY/W0OZqwzE5YBbPG6958OxGxQVP7FqvITrmG5Gvd9N52IrHNCxZq6OxqO2VkaXLhKI3qbieBejsSju0Er8ER3X+i5bHHfu3Xx8/GUWtTsUYM26BSO+nJ1gPrhmmAnUpH5JhK8PMQGvveNHG4Ft/Uxc5Mxvu5KRqczrpoEYoL1XeSEh7L5nid29P/rv3fmamOe7uOvOO7IsHveF9eWscbkFyLqZzZsni0+vW/qvYw/SW7RssQfB8jF1fauVbVIo10l43Woio7z1dyT/Q9j16kLXZ2RGT5PSqxs9CCmJOIvnPUNzCMWLDVLvSZfxxi1+nbd6EWbrKLg8w/SjHrzdHUYrssXoJ1+05zTmiA+nKPY+cEpqdzgblufGR4oOcGDe1bqNV2NZ85iYmsV9hbFZPijlP32HRmOBee0f0N12Rt12a7Sm3ez8nQ5Tl6JrKNM8zKUmmFXQWoryPh2LavwVxARrdxhlnZqqiI/ffChDXR5VmaOSz234qY1+cur/0ecLQwF6XR4+WZidWakOCYTsYE4RPKnYtWs31owYz3ez/mZ6x7vhY7r4kLZaSnSnNrnXdbxa/EBN4Dpkd/Xh4YEvv7lOMNjUWzphCVzVmYdpBSsvIFO+bY+LxWxoc3aLHMiU3fYRuUG3OSnq/c2UsThiR1nXSbvwh4fy0IrOdcHCju5D2G+WtXZH3nAqG8+OgLaMzF0o3FKS76kZpzcjzF+ytl/F/+zYnMA0OqNCHVMeWcSN8/MUtFK+w65kJ0UrUmF8ZXHHTRqOnJLwBWT7MX0PEXCfnDElQuAOk4Eo7tDZpq/52odfLvHNspLwic5Q8MqVbRyiT/BuT3UIFzYVIUvLDFUavbTX2c46FaFYn+8JNMz05HRrUM0EAFQ7JVuvythOeAq1dUKa9Xlp0CmlfLC2fOuVmFJau0xh+mXWEXtEQvaFJalT8vafly85ijXueYx0otL46rukHL5Jyk3z5bCU7Se+vedfkqWFacvOLFiDvpjv4FK64007k4uDftNN+5QJjRW3nL3uEvqUjfprdUVJatcUmOswG3mmNqfeJKr6Byr3Jg9UMbVDqkT/2aWjg/T3OXZWmy81wpxVWLxVSpucsKtTq4jnvhHVu5Fvy5dANWE+zF7DfuL89u1UN0+1rhZ8zyhVpYbKaj+0j4HLXCxNjXGLs81TKkdAQc25sXrFdRr94a14iAsbR8mx1LJEt5uXYUiOP+0cf/3RH4vWTmu81HnXMVsyzyuzTu913wd6z/u2y1eaznNgl//7nbmWYpUtEks8z/g5VpNpioYi36HCnPr3B0GdRDBWUbNDf+mHCOr7nLnN//YwlncHi0ksqZlzTNNvmZVmLHbdOfkum2KVBkCDYZCm5XqUWjo+tNiytpqdWsKhiqBJscxS9L5pwc9TKPy++o9Vy1lLwoN5s550uaccvV7qyy516q3bQJLc7mlZUpTtKdE3Hz19YH676I8k66nX9UnJOkgrFNVVYc/ctZshOz6MmP9+gt8y4CRyzYELgYtCdLqS4s406aEl4wx5y8BV+HkeLis47tvWoj5xeD8w/zULPsaKsaagoV21Xaq5OSXt91P1cFvapTNi2qKHdO8t2/wG51xqWCQXWELPHc15CjgXVc9K5eEagsM1Vls1fEXVhXacKKHpHlee6Fx1KVjvW2ecb8XE6KO/7MseNv464T2zRg88rtKii0zxkfvJrjMqZ6bpD0YHw/EI6Y53D24UzfHvk5Mcd/bJMXt8mNPZYjFUX+ssHubKTjCDi2zfZ5g89t4O927znzena207FWTytWUX2DULRa8ceD+fdxgqK/O9zfbfbfV1M5Zn4fun0lOcvcCi7391llzO87UwkcE4SYi2ANqvc2CX//uc2Xhmuyc1LtVRYn6T/JnAcEq4rd5oaxlcc4mtlzbr/C0fLO03vE/sETaEatrlnT8il3eEGGq1IVb9vRiErNvr52vyzLp4zW7I12wrF8SnQdE/AMm5OkUsUEM1MCTY6M5XekEdB8SWPH57hjwedKxG/S1OvLV6hrzlleqEPTplbBPeFOcsJsdBuYo7yy7Up+zh846d5k1stWQVM03TAXI8pSrnOCk+rEzFc06R0VuMujFTuls9dLM7xtTHXPzGFz1PfBTrb5VPyFpfM86VwwT5Hud9cxJ2LBpgSpL0w9ybd32w/Pyo4276qjs1nUtrnCv/hsIOfEeUKk6mWbSsvq/5f8dF/DgOmByrKEF9bZesA/BpwT/3FDnEfn4sOvbktc9h/YxuGtE20q0u2mYYELht4qcPbp9xPiVVJE9x+pXrNTUcHn8E4kI9UQpk28M+/+QHWHV9ERrYAL/q4ZcFNYfUO0POEf297v+dzcYOVOXBidIlDevGCF29llsPKn1DSbtdtOWBZ77OJo4/xb6B9HzlA0KPBv4CavaqDW77aySq1MEmqY32eaOCjm913ti97Y4zHdbZL+/quT8/PyYJUKZgV/95vf7Sma++Go4x7bMVWQ5o+eqrsaF2hCLS+c2fiIhgWqVGpVnfjNnuaPVFflaOT8QBOokrvl/bHwBS2P327w3d46M7zKFKlcFSb8qFqkB23a02v8fLuf+Zp4tplTqUUP2+DEX/bEzbYi5sU6+5PJHXGXJrrNlF7Qg/GdA0dEmzQNzs9x/m26QoNp2tRKJDrhrp+Yk+66/rqbtg2aOqlKeRMv14A0T8zcde24Ly9wouVeJJo7gszwLwhrn1jVfcEc3N65eB2bHWkmkM6Facrt0TTq+XkGLxC9v2gG/+KZuhIhqbReQ/DC1iuHr0uqENVV62evs/LcfwyighVo0Ts9pK5qiJHo59u+XzdAMH9Z9j9PM7h3YfFCpAGDsu3nHV9xhrQcAcd2bKe/zu+wx7wg2q1ciOM17/AGr3Ps2KauMR0Cr+uhImc9mngcrZx/4+2xYDo3janWdf9QExvemI6si5Iew97vs5jj3xncpk/Bn6GY32UN2cZK++fShKKxPxdmML+H0w940PqZP5wEArvid1SURjUu0JRaXeXM4FtMKBMV2xwpWFUTa/BA23dN/yttgFMp5/rTeXhX3nn71Ro7wqt0MUHJyBFm/fdUZqttyubY57n+Ebu+DXdScvZzjxfmlM35qRYlylr8Jk3qqVznWtJsM/DL3uugaVPrEH+XjbqkPOlOWWWTQsxFnXOG7nc6meaJWXoBk1eJk1xdF8wJtrfvt64LU0/y7dF4dVZ52X47gpVdsReIwYtHL9io789Gt1znIrWu79SUz8fc8cYrh29eXrO/YAWauQgKakxIGxHTsbc/2FAgf5g77TW3cn4+UlRaIFb4x3YXDRxcnyqBuI7j67yDTqIqBRyNBkx3fh86v6+CVa3B8CY4pOpgPfb4t0Mdx2FDtqmvmJ8Lf6BqrHXK7ZSg+rRu5g97mv2K3Cb6ptqqyboKANLT4jsEnt7fzk+k5J5IcySvssWvnEnflspyb+Scs2on9lWVkZO1wTOir8kb5mukG6bUIXukZrjNmyo1e4of7ERF79L0gibZkCnSxIqmTS1c3Sfcidq6Jj3pdv8hqucdFnxxF3WxJ131PzGrt6a4YE51YYrm51Y7Jb8Vpdd0J912215lU6l7glQP+Ze7zdWS3g7T4f1M5ae+u02TCDRfcf/65hyfCS8Cuii3p2pfGLvBaPrSCqYc3W4a5fxcmD5v0ujAFp4j4Nh2AyK+MzS7uOOz3ucV3u+z+lWjNGSb+mpY4I8WrLuptEp0F7o6qtbt7/uiBbVDd+BwaHWVM0GRYGXw3Vpkql4CYUq6uuZ/yfbx8oimRJoeVWrR4peca9acSGCz/GGvA2JX1SJNS9pMqbauI25OEhr5TZqSqdTs36RztyccqVKfcNsOftPtONK2n55p2m43lcYEPvXQ2AvmdC9M0Zyck/oZ5i9OS2M7c3a4/RbVt18L905kpmorvsPGrVo4La4z6Yjoa6hVGVJc6DbbcI+VQHM3r2mgnWiM+D6Ugp1qmp+jYFNAtw8SO+4wTY4U187dNC2sFxtMxd7S2dmPOx33mbn9UyF9R8Cx7fx+v3+i3L67mrz50SZz18B6/FuD1i34u8Q/r5gSPC5T/Q72Kg9MJ+oxx6n9/ZtMQ7ZJJHn44odOsX3ZbV5QmOT8Cy2f17dbfOf9buf4plowaejiHStFs53jP0GTfaC5tepwJsJ00BvT5KgeskdqrE1OIk2X+o/WbLej4SsinfrG9IXjPE/9Tnyv0PRIXzcBkSZNOZr4RGxlziw/zanVt020wsYbUnc2jJBFTrjjT9JNMwhzcRfsJLRuA6Z7d4GpdSck5+R7aopqgqQacGLWEI2+YE55YVoPBDyN4xwv5q4ZBctj+w7wmvPE9nmRDq+j5iyvM+nI/paqdFCKMmP7GiaXe7d2jQwPdvJOxiIXxt7829Wn/lVaifRyTva0IvJ87i3t/Qv2yM+5fS0resQ2azJNjmLe5zsqMHeJsovT45xQPmZ//u1r6Nt3vfJMibazLNf5eYg0+3PvikJVWb0cAce2W/Xk3mEmuI3pmyOrfuGQI6Z/D3unsCathkQL5l2cmttjm3DEb+oUbTacxu/gWc7FbfA49X//JtOQbWL44Ys5rpPcgcn5PftM8PewMwwt78HvwVbMu5uYbcprB/ff5rqay+X3UEFcp9XA4ZJR47DjRzTTd4zbnMc0a3I7+w0yt8T2+pMxzYuiTZ3M7bH9uzCZgONmlV0fXC/Rdon3Ze7YNMlLSlymmZRbjWPUumPT1ZpV8hMlanGV6n1En8O81rukn9jXnug9B57TfZ1KcNcoV/LXgsQyes61Y7XVlI+zY03MNOtx+0iJMs2XYk+Wt7p3JDK3863rJNr7a66dcJmmSUkuIIoLvbsoJf3HynveYFgSfW1eiGT6qIm+Jm9900QpUgnjvr/tGhd4DZsXLHROjPpE2nsHX3PeROcic3lx9L2a1+h2qhl4D7Xm2UDLHTeyNNm/AE1r+8D7HOJccNXzYgdHL/dYNv0/NWX/CHX+XAIAAKA1aTHhDHC4hBLOAGixmj6c8YLGiomBgBMAAACt2tHRrAkAgCOVqZIJlF3H3DENAAAARwUqZ4A4VM4AAAAAAA4nKmcAAAAAAABCRDgDAAAAAAAQIsIZAAAAAACAEBHOAAAAAAAAhIhwBgAAAAAAIESEMwAAAAAAACEinAEAAAAAAAgR4QwAAAAAAECICGcAAACAo9ZWLbxxjvr2DQw3FmuzXdpibCrWCOe1j1iw1c4AgJaFcAYAAAA4GrmBxlIVDR6udevGR4YHem5XhV3lSLV5wUL1nbbBTjm652ux89oX39TFzvBCp6nFdhIAjnCEMwAAAMBRZ4OmDtug3FnBQMMzYPowDbDjAIDDI6PGYccBODJ6zrVjtdWUj7NjAAAALZepPBm6PEfPPJavbnZeMqunzdGEZXbCUTBrvO7NtxPFheo7SXpgljRhUpU3b0i+1k3vrIU3LtXMMm9WcJvIc4/drqH+NsrWA+tiQ6HY5/WXm4qY6H6NvInDtfimbZrat1gyz5NbrBHDNqjULpeyNLlwlEZ1d0ZNtVBgmbetF065zyfz2nu704b7Wsv72Hkb7HM4b2RSsYoSvGYAaCgqZwAAAICjTEV5tfIGn1tHMOM1DXIDC7/ZU2FvVUyKby5UpQkrekSW5y0rVt++S1U61tvmmYlZKppUqNV2bVfZBg31t3HXqdaEvtF1IkFJcLnbF04XjXrM26cbAjnL4it/vCZOwzW5lxcKrVsXDGYqVVDo7XPdunzlzl5a76ZPRZPeUYG7PcEMgKZDOAMAAAAcVbaqolzKzY0LNeIVv6KZZdl6IFBJYoKP+03YsiLQ34upIPHXcZaPG+I8DsmPVMp0u6mPClStik3etCd2v946VSoyQcmmYs1dlmB5WaVWxuyjflY/5LzmiYO8oMbVW+NqvZe65U28nFAGQJMjnAEAAACOQhUVqe9stLmiWurVSbl22tctN0sq357yjk55PTvbsSRq7bez8nrZ0YrtKjXVOME7SPU1zYiqVdrgnoq9QKp09tLAPudo6GznPdbxXuLVGWoBQAMQzgAAAABHlS7K7SmVlm+z0yn07FRnnzTNw/Tn4jc/ig6Rvm4ayPQxE7/PdWn0uwMAzY1wBgAAADjKDLjV9A2zXgtTNBNyK2SWvRPbV4zDrahp8tBmm0rLspRnymlyOymvVjOoxqo7kMrt6bzfOKZvHgA4HAhnAAAAgKON23eMNHNYfOe+pjNe2zFv/uWa3KtKE6YF+mTZVKzbZ0uTbw30Q9MQZRt0+4Jos6rV04pVNKSP1x+M229NtWZOMR0A+7ZqobNOTPOjNJojBZtueYFUcez7LS6MTHthVCCwcpYF71IFAM2JcAYAAAA4CnW7aVTk7kvBfljm9vQ7vDV3RhquyeXm7kt2uXu3I3v3o8bo1VvjtCKy3wnlvfVMoAPgAdOd59UGDfWf19z9aVC0+ZHXQbC3fEQg5IlyXvvYbNvHzEIvcDF3cZqVraLg+32wk8b5TaXyh+kBEwoNs8tW9PDuCgUAh0FGjcOOA3Bk9Jxrx2qrKR9nxwAAANAQmxcs1NDlOXqGvl4AIILKGQAAAAAAgBARzgAAAAAAAISIZk1AHJo1AQAAAAAOJypnAAAAAAAAQkQ4AwAAAAAAECLCGQAAAAAAgBARzgAAAAAAAISIcAYAAAAAACBEhDMAAAAAAAAhIpwBAAAAAAAIEeEMAAAAAABAiAhnAAAAAAAAQkQ4AwAAAAAAECLCGQAAAAAAgBARzgAAAAAAAISIcAYAAAAAACBEhDMAAAAAAAAhIpwBAAAAAAAIEeEMAAAAAABAiAhnAAAAAAAAQkQ4AwAAAAAAECLCGQAAAAAAgBARzgAAAAAAAIQoo8Zhx5tURs+5dgxoPd5Zda0dAwAAAAAgsdzuZ9ix9DRbOAO0VKmCxZrycXYMAAAAAICmQbMmAAAAAACAEBHOAAAAAAAAhIhwBgAAAAAAIESEMwAAAAAAACEinAEAAAAAAAgR4QwAAAAAAECICGcAAAAAAABCRDgDAAAAAAAQIsIZAAAAAACAEBHOAAAAAAAAhIhwBgAAAAAAIESEMwAAAAAAACEinAEAAAAAAAgR4QwAAAAAAECICGcAAAAAAABCRDgDAAAAAAAQIsIZAAAAAACAEBHOAAAAAAAAhIhwBgAAAAAAIESEMwAAAAAAACEinAEAAAAAAAgR4QwAAAAAAECICGcAAAAAAABCRDgDAAAAAAAQIsIZAAAAAACAEGXUOOz4EW3L4tEaNqfSTgUMvltrpl1hJ458R+b7eEnT+t+h5c7Y4BmrNL2/NzdWOuu0Dhk959qx2mrKx9mxJrapWCOGbVCpnTTyJg7X4pu62CljqxbeuFQzy+ykK0uTC0dpVHc76SsuVN9JVXbCUzBrvO7NtxNBCdbVkHytm97bTgD1keA47dVbzzyWr2520lg9bY4mLLMTVuJjdIOm9i1WkZ1yJT0+6/EzEqZaP+/R17h5wUINna1mfc3ucyzPqfWdIBnvGFSi49P8/nywU+Sz9I7r1Mect062Hlg3TAMS/f71Jfi5AQAArReVM0DIzIVSX+dCLdc58V+3zh/ylTt7qfpO22DXijIXsJH1ZmVp5rCFWrjJLnSYE/++k+Sc+AfWK3QuZCu22jUSMBcBkfWHa3J5ccLnbtXMRdKNxdpsJ9EAJnTou1Qze+ZHjz1neKDnBg3tW6jVdjWfCSAj6znHaMWkOZrqXANHmO/EXhRH9+ccn9qe8nuq62ckVOY9DatUQWHsayyt8BZ3u2mUM+9ICpNM4BX3vaAO1Zr5UJLfn87PyNxgKJk/LHAcZMf+LiaYAQDgqNLywplzblZhySqt8YcWVDUTo8W9jys03b7W1lw1c9g5J+q3u38lj/+LbG/duy5fBcuKU18UOSf2DwypVtFKL3gxQc+EcnNyP0wD3DlW93zdG1OFk0oXjZrRW3nL3ql1MQ0k51zET3EuSE3gElfVMmD6eOc4rdKEVIGfc4zePzFLRSvsOibomVSd4GfDOT6n1+OiNe5nJGyrV1RJQ/rEhi/Oa0xY1YYWKW9IdtLfn5tXVqq0V5by7DQAAICvlVTOmCY3V6mfM0wrseOjF2mLs6Rkujc/OozWokgFcXC7Si0aHV1vWoldxTLNkaL7cIbpL9kljpJ7ki+rl5DfhyvZ9sHnsLMC82qvH7uf2NcLn3uiHn+hFtFb48zF6oN1V3OUlm9z/r9Bc2dXq2BsU/21tVoVttrArcbp6w/BCghT7m/+qu49esu8v7SPWLDBffS2sZULbiWEnRdfpRJc5gwjFgQupt1lzr7dygx/nfhKDO95I/sI7r+O7b1qI+cALTMVHs740VY11BQ2vaWismyNSxICDrjVBH7r665gKfeqYlY/tCHFz0b9eT8jjphjIPY4c6vYnONmtXm0y+LnRbfxj3kzpF+Zk9szK/IeE/KPVXeiAT9L7vuLfz3mtaZ4jcl+9tx9ec3EiiYFnjuyLME2DvfnKe5nyP0cI/MS/d5oRXr2UEGvKs0NfCYe8ztamjw2x04DAABEtbpmTcuneP2ieCpV8bYdjajU7OvvUVxm4Ww3WrM32gnH8inRdUwwkrCfGMMEM1NesBPW8jsaEdB4Dvv7sFJtH8sEM8HXGGSCmdj9eK+XgCZeRXm18np2tlO1dRuYo7yy7bItHhLY6uxD3j42mfWyVdAUf4Gv2K5SZSnXuTB2+0dQtJnKMxOrNSEuWCma9I4K3OXRip3S2eulGd42pnJh5jDnIsz0zeCul6+Csg26PXhBtyLQFMs0w5q9Iu5iskoTpkj3u+sM12Tn4idaiWEuYpeqaHC0mYzblCbmAjH59qayI6ZJAf3t1J85Znp1Uq6drKX7uc4Fa3Wk+U4i5udBPTupmz2uCwY1xfcQ/Bkp1oiYJkVe88GY6jTnuJyrQe7ySJ9PgXnmOCk1TQ77rlee3Y97fE+pO0Q1ut3Uxz32EzXzSqa+P0v1lfRnr3u+Frs/K35TMdvcKp3PMQ2Jfm+0Dp01aqxznCx/K/aYKH5HRb1yNDDpDwkAADiatbxwZuMjGpawUsPymwvNH6muytHI+YGmQyV3a7C70gtaHr+d6ZDXrDPjajujXBUmSKhapAdtAtFr/Hy7n/maeLaZU6lFD3vBTGTZEzfLOY+Vlr+YJNSwjqj3EZBs+3hVlTYwyNHEJ/zXZZs8lSy0wczVmmXnz3JfcKWWF6cOh44u3kVjbm66zY1q27xghWb61Qp1XRynbYOmTqpS3sTLNcC5CJtrOq4MhBXexWWlVgaCE3ddO+7LmzgoUvXgVk2YTk9n+FU9XlVQpJrBMWB64AIt4YV8cPsu7sVPpAKh+BXNdPZ5f6Bqw6vUCDYtSLE9Gm1zhR+sNFBxodeRqvO9SdtUWpalvCa4iA3+jJhqHAWOy0h1mt+UypWg+qdX4NjKv9wNK2od3ylD1CDTZNE28zJVI3FBZyL1/Vmqr7p/9mKl9znWLdHvjVbDHCemUiYSWG3VwgermrCyEQAAtDatrnJm8C0mzIiKbcaTrNLD2W6g7fOl/5U2+KiUc/3pPLwr78YfV2vsCL8UOUcjR5j131OZrQ4pm2Of5/pH7PpJQo00Hd73ERXZPucsL2RKJjvHhgCmIsZ7XX7AtKWy3BvRC5pkX/Mk+4LL3n7PG0FERaqOehPwmhd4g3vHleBfndO+QIzj/iXf369zNTHLVg24FTT2IjKwvEixF2/pBUxeJU5ywWZJ8XfcMRJsb9+vGwzEvAdncO+GE22alWp7NJF6hl1eBYr9vtxOrIMd4aYOCFJJ/DPihaExz2mWz3aOneDrTjPgbEyoarjVWm7nxua4Tb9ZlKeun6X6qutnLyjNzzENjf0Mj2xdNHBwsA8lr9lfk1Q2AgCAVqnFdwicsnPaknsizXi8ahG/4iR9kaDhnLNqn7BHqkfk3l7af03eMF8js+3CRI6k99EgXgfBXkWMZ/mUqzRysWmCZatj4js9NkNL7cC5WXgn76n+4r3Z7ZOmR8xfl2PuRBO8m0duJ+XFhBH1EHO3pvgOWM0tXwPPmXCdRrJ9W0SbJXlNKeol7j14w5F015vWrc4meAkuTmPu1hTTtKWz8pzvv77BpS/pz4gj9jkTr3P4dNGox2xTpWR392luDfzZO7I+x+bmHY/15VYZ2n6WvGqjVlwpBAAAGq3VVc4ERQKJwXdrkakWCYQp6eqa/yWvgmTjI5qy2IYOpjnT4pcC1SPS8oe9jntdVYs0LbJu4zX7+2iE/tO80MUPaUxlTO7ZtjLHea4HS7xRo2R6sv5rjl7uBW3STlJtB7/p9rvRPV/jmvoirzGBTz14IVR+tI+PeuqWm0UVTNjc5jCJOkH1eB38xgaNyXnNzkpnv9KEHcV2UW5PNar5T3NxOwluKt0TVP64/VElVv+fvbo/x0Tvx+1PqMXy3nOiZlupm/P1VoHzO7loZbGKlmWpYGBrrhQCAACN1arDmQjTQa9pXhNpclQP2SM11g8e/KZL/UdrtttB7xUaOz4aRET6kHGep1kuEpvtfTRA1SKN9N+vM/jNlnqdfaa6jrg5Utljqmni10GAe/tgaeawRHdXcU7onYum+lSoDJju3X67Vj8Wm4o1tSEdhvqBT0xnp1u1cFp6nZ+myw1XAv3DeP2E2Il0uP2ABDsINpzPMGY6DQQ8jdDFvQW7Zi+NuXOP4XYqHdd3UZ3cW2CbJnXxPxsNP/68fojibk9fXFjvjmzrkuhuRb7V02r/rNcrhK2TqfIIhrTO5zXFNPFLLN2fvWAVU12fo7fPQOjs9idkx1uoAYOynfdU+z0PNXdfcvtJSsx8Vpq9wfld3nR3HgMAAK1Tqw5nuo64SxPPsRNux7X1bw5kmOqQYPMdw4QQRtcR8wOd5/qC/bo03uF4H03BNLlyK3vcJk/zA6/Z02v8KKVqvXW06nbTKK0rzFGRuQNLpA8H5wrANM2o912DbGej5k5Fgf4g+g7broIGVqUMmO73i+Hvb6lKBzVx84XIhbj3HLerTz2bNZnmITaYirzO9cpLcdFUix/wmG3rG+rAY+/uU7A8tj8S725fwWZL6fHuopXl3Z0osr9GHH/m9c3KjumTxtz1aNxh7AfEVGDEvh/vZ73pmgl6IZkJT7z9r5BmOD8bdmktdf7s+VVM5ju1wVJdn6O7z+ro+1zRQ89MbMLqoDA478ncyaoi+J4nVWtyYR1NJ92KMr+jawAAgOQyahx2HIAjo+dcO1ZbTfk4OwYAAAAAQNM4Opo1AQAAAAAAHKEIZwAAAAAAAEJEOAMAAAAAABAiwhkAAAAAAIAQEc4AAAAAAACEiHAGAAAAAAAgRIQzAAAAAAAAISKcAQAAAAAACBHhDAAAAAAAQIgIZwAAAAAAAEJEOAMAAAAAABAiwhkAAAAAAIAQEc4AAAAAAACEiHAGAAAAAAAgRIQzAAAAAAAAISKcAQAAAAAACBHhDAAAAAAAQIgIZwAAAAAAAEJEOAMAAAAAABAiwhkAAAAAAIAQEc4AAAAAAACEiHAGAAAAAAAgRIQzAAAAAAAAIcqocdjxJpXRc64dA1qPd1Zda8cAAAAOn9zuZ9gxAEBr1GzhDNBSpQoWa8rH2TEAAAAAAJoGzZoAAAAAAABCRDgDAAAAAAAQIsIZAAAAAACAEBHOAAAAAAAAhIhwBgAAAAAAIESEMwAAAAAAACEinAEAAAAAAAgR4QwAAAAAAECICGcAAAAAAABCRDgDAAAAAAAQIsIZAAAAAACAEBHOAAAAAAAAhIhwBgAAAAAAIESEMwAAAAAAACEinAEAAAAAAAgR4QwAAAAAAECICGcAAAAAAABCRDgDAAAAAAAQIsIZAAAAAACAEBHOAAAAAAAAhIhwBgAAAAAAIESEMwAAAAAAACEinAEAAAAAAAgR4QwAAAAAAECICGcAAAAAAABClFHjsONHtC2LR2vYnEo7FTD4bq2ZdoWdOPLFvo8cTXxivkZm20nXS5rW/w4tt1O9xs/XohE5dqr+Is93zs0qnD9SXe18JJfRc64dq62mfJwda2KbijVi2AaV2kkjb+JwLb6pi50ytmrhjUs1s8xOurI0uXCURnW3k77iQvWdVGUnPAWzxuvefDsRlGBdDcnXuum97QSQjg2a2rdYSnScmWPswU565rF8dXMmV0+bownLkhy7lrdOth5YN0wDEvx8RNl17BQAAADQElE5E6pKLS+OC5xKXowEM0eMknvUr/9V6jf9JTsDTWnzgoXq61x45joXtevW+UO+cmcvVd9pG+xaUSZkiaw3K0szhy3Uwk12ocNc1PadJOeCNbBeYW+pYqtdI4FevfVMZP3hmlxenPC5WzUTINxYrM12Es2tWjMfSnKMbSrW3GV23Oier8WBYznPDWT845VgBgAAAC1fywtnTAVIySqt8YcWVDUT1Oscrxqm7LmXtMUd85SsfMH5f46z3Js+EnivCc3CuQi9fbY0uTC+2qC37l2Xr4JlxZpabGclkj9MDwypVtFKL3gxQc+EchO0xF2wOhe398ZU4aTSRaNmOBfAy97RajsHaGp5Q7KTHmObV1aqtFeW8uw0AAAA0Nq1ksoZ0xToKre6Y1qJHR+9yA09SqZ786PDaC2KtOAIblepRaOj600rsatYpnlQdB/OEKwi8StLEi1LouzsnhpsRjY+r5WB17PclM2c01O53oyoqkUaGXyOuOeJvD7nfZfY8fj34Aq+Vn/7+H3bz85U9pjPZJJfyrP8juT7RYO4F6FD+iRp2tFb4yZmqejBuqs5Ssu3Of/foLmzq1Uw1ms60njVqrAVOW41Tl9/KAxcUJumLHM0tdh79JaZ5ldzNGLBBvfR28ZW95jqFH8/8VUqwWXOMGJBoNLHXebs2zRviawTfB2G97yRfQT3X8f2XrWR84NYtkFDzbKjrWooDD17qKBXleYGv2eXOY6lyWMb3pwTAAAAaGlaXbOm5VOi/bWYcKHibTsaUanZ19+j+Hxh+ZTRmr3RTjiWT4muYwKehP3dGCbsmBJXWWJCjDoDmis12E1nAk2b/CZNZ5+lXu6MgMp3FdPViOE8z8jFca9r4yOalOy1mrDlYfta/b56TDBz/SOx+3b2MSwS0KA5VZRXK69nZztVW7eBOcor264KO13bVmcf8vaxyayXrYJE/crUV8V2lSpLud1t3x/Kt01IxuuZidWaEBesFE16RwVxTUxKZ6+XZnjbmOqemcPmeP2OuOvlq6Bsg24PXJivXhFoimWaYc1eEdNcyzlYNWGKdL+7znBNdi7sJ0RCFK8/nqLBw73tneGBnhs0NCZkSb79gOnOvFnZ0eZd9LdzGHTWqLHZKl3+VlxI946KeuVoYK2EGgAAAGi9Wl44Y4KDQJVHrSoOv9mT2/ltjkbODzSBKrnbq1bRC1oev50JK8w6M662M8pVYSpaqhbpQZv2mM55vf3M18SzzZxo2BFZ9sTNXrCy/MVaAVC8/gO95/KbNvnNhwYPTNBUq/9P7HN7Q+H4xM2ijMEzvHWm97czrIrFP7UB1NWaZZuDlfzGBjP++/c/I7eix/v8ZnkfWmSd+P2iobxgJTc33eZGtW1esEIzy7I1zjRZMoFKr061q67qbYOmTqpS3sTL3Y5Y55pOWQNhRbeb+qigrFIrA8GJu64d9+VNHBSpCBpwq+knJEuTZ/hVPV5VkFfx4xkwPdAUq/u5KuhVrdKYVCq4fRf3wl7l270L++JXNNPZ5/2Bplvuc8Y0m0mxPcKRf7kmm0qZSNO9rVr4YFUTVn8BAAAALUOrq5wZfEvsHYlimyMFq2piRQKR/lfaAKdSzvVnoGLlao2N3DUpRyNHmPXfU5mttimbY58nUoViw51U/OdygxDbpMl5nsEJw49oEywzJK3kOedmjU20faCiZvCMn8hbJVBZZJssRT8j+/7R7CpSddSbQNEkv1nOHA1dnhPbv0zKKpsU/OY87uDdcce9U5RbQVOlCZFl3vIixQYn6QVMXiVOcsFmSfF3pTISbG/f7+aK6rj34Azu3X2iTbNSbY+wdNHAwVkqWmErnDa9paKyJqr+AgAAAFqQFt8hcMoqjpJ7IiGGV9niV86kb0tluTdyzlkJ+oGpjFzY+dUq0SH+FtmJXBFt2vSTR7xQZPCVNjgJMn2/+KHJ1Zrl7N+vnEnbOTmRplLLV/pNrqLhUrQqKDpQIdPcvAvTYPVIPK9Pmh4xVSkxd2uytyZ25XZSXkwYUQ8xd2uK75w4eGecZOs0ktsXTLBZkml2ZJelK+49eEPyWzWjqXVWXn2/M4dbibVsvduEbbW5e1OCKiwAAACgtWt1lTNBkWBl8N1aZKpeAmFKurrmf8kLNTY+oimR/l0qtWjxS841a04ksFn+cKCPlqpFmhbfF0wSkaZNG21VS6ImTZEQJUcTn/CqXirerm9Zy5c0w2+ytfwO2xzszMhdocrmLAw0w3pJ09Lo1BiN5/YpYy9Ma7Md/A5Ks/+T7vkaZ/p2SXZ74oZoTOBTD14Ile9V6zRAt9wsqmBC10W5PRWtgglwK5t6dkrSVKm3Ctw7jhWraFmWCgY27BgAAAAAWrJWHc5E+E124ju+TUf2SI215TaRpkv9R2u22xzoCo31K1iCfeE4z5P2RWKkGZWRrEmTz3Rm7D1H5A5K9dH/J5H+Y7wOj3M08ha/j50XNMl//XHNv3LPtu/Rfo7crakJdc/X/ROlmcPs3YwizN2PnIvVIfn1qlAZMN27/XatOyFtKtbUWnfFSYMf+EwJ7m+rFk6L238jueFKoH8Yry8dO5EO03dJTAfBhvMZ1veuSwQ8jTJgULbzPcbd/r24UEPN3ZduTR4ymv6BNHuDc7wnu3MZAAAA0Lq16nCm64i7NNFWhnhVJ/Vv1mT0nxboFNfqdfaZ7mPXEfMDnQj7gv3T1MVv2uRI2KTJuELTg88x+O76N2uy+n/HdlhswhhzRybT0bDfiXGE81l9J1rBE/s5oql1u2mU1hXmqMjczSjSZ4rX70v97xrUW/eus3cqiul/ZbsKGliVMmD6cLfT1uj+lqp0UBN32Jo/TA8MifZtc7v61LNZUxeNeswGU5HXuV55KQKBWvyAx2xb31AHHud7NHfaqgj0i9R3UrUmF9bRvMztADorZYADAAAAtGYZNQ47DsCR0XOuHautpnycHQMAAAAAoGkcHc2aAAAAAAAAjlCEMwAAAAAAACEinAEAAAAAAAgR4QwAAAAAAECICGcAAAAAAABCRDgDAAAAAAAQIsIZAAAAAACAEBHOAAAAAAAAhIhwBgAAAAAAIESEMwAAAAAAACEinAEAAAAAAAgR4QwAAAAAAECICGcAAAAAAABCRDgDAAAAAAAQIsIZAAAAAACAEBHOAAAAAAAAhIhwBgAAAAAAIESEMwAAAAAAACEinAEAAAAAAAgR4QwAAAAAAECICGcAAAAAAABCRDgDAAAAAAAQIsIZAAAAAACAEGXUOOx4k8roOdeOAa3HO6uutWMAgCNRbvcz7BgAAEDL0WzhDNBSpQoWa8rH2TEAAAAAAJoGzZoAAAAAAABCRDgDAAAAAAAQIsIZAAAAAACAEBHOAAAAAAAAhIhwBgAAAAAAIESEMwAAAAAAACEinAEAAAAAAAgR4QwAAAAAAECICGcAAAAAAABCRDgDAAAAAAAQIsIZAAAAAACAEBHOAAAAAAAAhIhwBgAAAAAAIESEMwAAAAAAACEinAEAAAAAAAgR4QwAAAAAAECICGcAAAAAAABCRDgDAAAAAAAQIsIZAAAAAACAEBHOAAAAAAAAhIhwBgAAAAAAIESEMwAAAAAAACEinAEAAAAAAAgR4QwAAAAAAECICGcAAAAAAABClFHjsONHtC2LR2vYnEo7FTD4bq2ZdoWdOPIlfR/K0cQn5mtktp1MoWT6VZq03BlpYe+9pcjoOdeO1VZTPs6ONbFNxRoxbINK7aSRN3G4Ft/UxU4ZW7XwxqWaWWYnXVmaXDhKo7rbSV9xofpOqrITnoJZ43Vvvp0ISrCuhuRr3fTedgJIxwZN7VssJTrOzDH2YCc981i+ujmTq6fN0YRlSY5dy1snWw+sG6YBCX4+ouw6dgoAAABoiaicOWJUavb1V6nf9JfsNI4WmxcsVF/nwjPXuahdt84f8pU7e6n6Tttg14oyIUtkvVlZmjlsoRZusgsd5qK27yQ5F6yB9Qp7SxVb7RoJ9OqtZyLrD9fk8uKEz92qmQDhxmJttpNobtWa+VCSY2xTseYus+NG93wtDhzLeW4g4x+vBDMAAABo+VpeOHPOzSosWaU1/tBSK0di3sfdGmxna/kdmlZix5PoP62Fv3dEOReht8+WJhfGVxv01r3r8lWwrFhTi+2sRPKH6YEh1Spa6QUvJuiZUG6ClrgLVufi9t6YKpxUumjUDOcCeNk7Wm3nAE0tb0h20mNs88pKlfbKUp6dBgAAAFq7VlI585Km9b9K/ZxhWokdH71IW5wlpgmQmR8dRmtRpAVHcLtKLRodXS8+IDHNkaL7cIZghUvJPcmXpeUKTQ8ENMtXettHXruzP2/ce+3B+dHnTvy+Ri62TaiqFmmknecO9vNBuNyL0CF9kjTt6K1xE7NU9GDd1Ryl5duc/2/Q3NnVKhjrNR1pvGpV2Ioctxqnrz8UBi6oTVOWOZpa7D16y0zzqzkasWCD++htY6t7THWKv5/4KpXgMmcYsSBQ6eMuc/ZtmrdE1gm+DsN73sg+gvuvY3uv2sj5ASrboKFm2dFWNRSGnj1U0KtKc4Pfs8scx9LksTl2GgAAAGj9Wl2zpuVT7pDpjsVTqYq37WiEaT50j+KLU5ZPGa3ZG+2EY/mU6DomDEncT4zDhCNTXrAT1vI7GhTQDPbTmbcrY4MTZ39uHzOJ9L/ShjqVWl7sBzHO+3ZHcjQ437nAMcHM9Y8opquSjY9oGAFN6CrKq5XXs7Odqq3bwBzllW2332ciW519yNvHJrNetgoS9StTXxXbVaos5Xa3fX8o3zYhGa9nJlZrQlywUjTpHRXENTEpnb1emuFtY6p7Zg6b4/U74q6Xr4KyDbo9cGG+ekWgKZZphjV7RUxzLedA1oQp0v3uOsM12bmwnxAJUbz+eIoGD/e2d4YHem7Q0JiQJfn2A6Y782ZlR5t30d/OYdBZo8Zmq3T5W3Eh3Tsq6pWjgbl2GgAAADgKtLxwxoQKgQqQWk2A/OZC80eqq3I0cr7fdMgMfnXKC1oev53pXNesM+NqO6NcFaYSpWqRHrTBSK/x8+1+5mvi2WZOpRY97AUzkWVP3KxeZsbyF2sFQA1nOgv2nrd2h8HRUKfsuZfcsGVL8fNeEHPOlzTQWb/kNzaY8d+j/zlsfF4rI9U2OPy8YCU3N93mRrVtXrBCM8uyNc40WTKBSq9Oavw17QZNnVSlvImXux2xzjWdsgbCim439VFBWaVWBoITd1077subOChSETTgVtNPSJYmz/CreryqIK/ixzNgeqApVvdzVdCrWqUxqVRw+y7uhb3Kt3sX9sWvaKazz/sDTbfc54xpNpNie4Qj/3JNNpUykaZ7W7XwwaomrP4CAAAAWoZWVzkz+BYTykTFNkcKVtXEGjzQ9t8SqERxrj+dh3dtxcnVGjvCL7PP0cgRZv33VGarbcrm2OeJVKjYcKcpDL455V2c+g+0gdLGd1XhvO6Vz3kVNN5nEageMhU9MZ+DfY8IVUWqjnoTKJrkN8uZo6HLc2L7l0lZZZOC35zHHbw77rh3inIraKo0IbLMW16k2OAkvYDJq8RJLtgsKf6uVEaC7e373VxRHfcenMG9u0+0aVaq7RGWLho4OEtFK2yF06a3VFTWRNVfAAAAQAvS4jsEnt7fzk+k5J5IcySvsiXQ8W6atlSWeyPnnFW7IiHSfEgaPCP6mrwhvdtiRwQrdL58RUzAVKdIoGQqgvzA6GoNdj+baIAUrfyJDik/PzQz78I0WD0Sz+uTpkdMVUrM3ZrsrYlduZ2UFxNG1EPM3ZriOycO3hkn2TqN5PYFE2yWZJod2WXpinsP3pD8Vs1oap2VV9/vzOFWYi1b7zZhW23u3pSgCgsAAABo7Vpd5UxQJFgZfLcWmaqXQJiSrq75X/KaKW18RFP8znVNc6bFLznXrDmRwGb5w4H+W6oWaVpk3XS8pGmRihvbT0y9RJs2VTz8iFcVM/hKebnLmep1jjuisjkLA02tnOesd784aGpunzL2wrQ228HvoDT7P+mer3Gmb5dktyduiMYEPvXghVD5XrVOA3TLzaIKJnRdlNtT0SqYALeyqWenJE2VeqvAveNYsYqWZalgYMOOAQAAAKAla9XhTITfnCe+U9x0ZI/UWBt8RJou9R+t2W5ToSs0drwNUoJ94TjPU+dFYkzfOdHmVoNn1LPixvKbNpVttE2a/GZapgnWLX4/Oi9oUoLnRIi65+v+idLMYfZuRhHm7kfOxeqQ/HpVqAyY7t1+u9adkDYVa2qtu+KkwQ98pgT3t1ULp8Xtv5HccCXQP4zXl46dSIfpuySmg2DD+Qzre9clAp5GGTDI+eUVf/v34kINNXdfujV5yGj6B9LsDc7xnuzOZQAAAEDr1qrDma4j7tJEWzXidapb/2ZNRv9pqzQrbsNeZ5/pPnYdMT/QibAv2D9NmmxzrQY3M4o0bTL8Jk1W/59EOyqOcD6P7/gBDsLU7aZRWleYoyJzN6NInylevy/1v2tQb927zt6pKKb/le0qaGBVyoDpw91OW6P7W6rSQU3cYWv+MD0wJNq3ze3qU89mTV006jEbTEVe53rlpQgEavEDHrNtfUMdeJzv0dxpqyLQL1LfSdWaXFhH8zK3A+islAEOAAAA0Jpl1DjsOABHRs+5dqy2mvJxdgwAAAAAgKZxdDRrAgAAAAAAOEIRzgAAAAAAAISIcAYAAAAAACBEhDMAAAAAAAAhIpwBAAAAAAAIEeEMAAAAAABAiAhnAAAAAAAAQkQ4AwAAAAAAECLCGQAAAAAAgBARzgAAAAAAAISIcAYAAAAAACBEhDMAAAAAAAAhIpwBAAAAAAAIEeEMAAAAAABAiAhnAAAAAAAAQkQ4AwAAAAAAECLCGQAAAAAAgBARzgAAAAAAAISIcAYAAAAAACBEhDMAAAAAAAAhIpwBAAAAAAAIEeEMAAAAAABAiAhnAAAAAAAAQpRR47DjTSqj51w7BrQe76y61o4BAI5Eud3PsGMAAAAtR7OFMx999JEdA1qWUy9/wo7V9rPJBXYMaNm+d0OWHQNal1NOOcWOAQAAtBw0awIAAAAAAAgR4QwAAAAAAECICGcAAAAAAABCRDgDAAAAAAAQIsIZAAAAAACAEBHOAAAAAAAAhIhwBgAAAAAAIESEMwAAAAAAACEinAEAAAAAAAgR4QwAAAAAAECICGcAAAAAAABCRDgDAAAAAAAQIsIZAAAAAACAEBHOAAAAAAAAhIhwBgAAAAAAIESEMwAAAAAAACEinAEAAAAAAAgR4QwAAAAAAECICGcAAAAAAABCRDgDAAAAAAAQIsIZAAAAAACAEBHOAAAAAAAAhIhwBgAAAAAAIESEMwAAAAAAACEinAEAAAAAAAhRRo3Djjepjz76yI41ja1PTdLo+VV2KuCq27V88uV24sgXeR89btT8WcPVxc6v7RXd9/X7tcodz9Yt82Zp+BnuhBVcHiftzyS6j6t+8nv96DJvri/1Z67A81+h6X+cqH7uuLRm5jc1zV0QO7+lOPXyJ+xYbT+bXGDHmthFXTRpwHFqbyeNvZs/1qynP7VTxom64XsnKye4kg6pcnWlHv+bnfQNzNaPzjvGTng++keF/melnQhKsK6279B9iz+0E2iNvndDlh1rKhv1X4PWStNv0H983s7yvbxKg+ZnaeGvL3F/57163+Oa+vzxGrNgqL7Z1VslnrfO6bp3xVW6bMtajb1po8rtslh2HTsFnHLKKXYMAACg5aBy5kj16suB4KVKK/+SICRJZtX9Gvz1SVr6TzvdLC7Xj35yhR1/SStftaP/XKr59oVf9ZOWF8yE4bJrcvSjAcfps39U6L45/rBDn3U7WT8acapdK8qELJH1/nFQOQNydMNFdqGjYESufnSe9HpkX86wereUdaJdI4G9u7Uqsv7HquzQMeFzt2ompPpeFy7yD5udmrdwox2Ps2WtfvO8HTe6XqIHV9ygFWZYcI56uoGMnSaYAQAAQCvQ8sIZU3Hyx99ruT+0oKqZ+lhT8pL7eHaPbPfx7eJXtNUdq81Uvfifx/zR3vom0Hn4vqVJt6mXZJ/5ZcN1Sw9vdNVi77nWPP6Y3jYzrrq9ViUOErioi/6lm1S5Or6q5UP9z5wd+qhTR31voJ2VyMoqvb69jbrkesGLCXou7GCClioVuXOsv23V/8RU4aTyqR5fs1t7Ox2rZqoTAtTzS6er5/NV8nPdoK2rt6j87OPV004DAAAArV0rqZwxzXO+qcHOcN+rdnySDQtmevOjQ7CiJLjd/2/v7mOsqs88gD+0NmzV0rLQdJTB6QguNBtsY+JLC0wD1g3EuHSl2SqBOEm1Rk0Ekmr/sDTZgtnV/gGYoOnaphAJtpvSlG3MkFUhRWl8SU2VNIWKsCODpanWFbVdYrvsebt3zr3zwgwz9jDD55McOefec+7LMJKcb57n+fXE9lW9593XdMeQtvj0vkayrX+2eCbx3MaBnzstz8aurPqkNRZ+/cZYkO4eeir2DqESpuX6Db0BzRCvOX2tsTT5fDPS3UOPxpYf16pmWuOWG8ZnaDbarmifGBPffLdvW1Lm9Xjp6P/FlItPXc0x8dy0LWlqXDrtA/HGoWP93vAO3wfjo0VFTlaNc0dtay2FNlPj5uSxmxfmf+bPpe1X7bHqi1OzP/NriuqetDql9jrNVSrl55Jt1RdLlT7Zc8lrp+1f9XPKnyOVv2/9Ncqvf4rr82qj5Gc48cOxIH3ubKsaqkJ7a1w943fx/f9obp97Ob7/cMStnQP0OwEAwDg07tqadq8rz2HpiVe7i926nnj41o3xfHFUs3vdqnj4UHGQ2L2u95w04Ol39koqDWbW5VUudWlb0UgCmlpL08XzY+4F02JmVp0y9Namls/OzwOT5JqDR7KdkTn0aHSWwqeG4OqCpdGZpUfJ196cV83M6Pxa03wcBjLl3A/EiT++Vxz19dzhE3Fi4jkx8ASFj8ZHz438NT59Tpwf78XR/ubKDNeUc2Ji/CXeejEPLi6Nt+stUruPfjAubQpWpnzqb+Jo9nxvxc7Eaecl//Pk16TVPW3z2uPrF/+5aJ96O96Y+OH4XCmAWdxSasVK27CmfayhXSviQ3Hp5RE/z875Q3SfSI7rIUo+j6fl9T/k1yfbS3/8cCxoCFkGvr5rW/LYr5OfYa29y7ydv4LJ8aXOT8TBXd2NFX7PJP/Wzbgw5l1UHAMAwFlg7IUzgwUFqVoLTjZstzWWbii14/znXXkVSnlGSk065DY9pz5H5XC8mladlGaozOjcULzOhrilLX2kJ7ZvK9qPas99p6gk2f1MnwBoqOotTR1XZt9hbsepW5uqdPkNxXfOzI/O62utVQwuD1beOT7UdqO+rvjix6Jt4ntxIG1ZSgOVE3+OkY/inho3f+pDceLo29H16ZaYNfm9eKkUVjz3k3fjjYkT4+JScJKdW+zXnDj6P/WKoK5f/SlOpMOLn69V9eRVQXnFT65rW6kV68U/xbETH4jzG1Kp8vVvxQ8OvRdx7jl5SLTwI9EWf4qfl1q3svdsaM0a5HqqcdWcuDWtlHmmOE5+L360+XexsDMfHAwAAGeLcVc5s2BZ4wpIje1IA6xulFgwtzZH5aoiwCmqTo705DNUGkKH1lh6fXr+0ThYVNu8srl4n1uLmSu1cGfYai1NERe15u9Xr4Q53Tal326PO+o/g2QrWr6GrGnmTPMsmfqcmcxTsWbEbV1nl/MHG9TbjymfqrXltMeCqSca58sMWmUziFo7T7Z9JOLXh/OVorIKmg/FpfXn8uenJP90lIOToQVMeSXOwMptSc2rUqX6ub74vldM+mDTd0i2bPWr3taswa6nKlNj3sLzYtfPisHAr3XHk698Iq5uXu0JAADGuTE/EHjQobPPbay3I+WVLbXKmaE71nM437m4Nabne71+2xOvFrvlobz51rz09RCVVmnava4IU+qBz9Bam3rDkvmx8P0uC0h+xvmy2a1xS2dRdbT70fd5pajx4q049Hpj9UizfCbN/zZUpTSs1vTd0nyZN/4cJxrCiGFoWK2peTjxe40rP/V7zghls2DKbUlp21Hx3FA1fYd862eZcd4nk+OS3hK6IWv559mx8In98aPXkn9O0tWbbpmjmgkAgLPOuKucKasHKwvuik1p1UspTBmq3qqVR2Ptj2vBSE9s//GzERe0Rm0sQm21osxvt8d99XOHp9bSNJBXNm8ftF0qrRTKw5LEgqvypawvWBqbysFR1vI1Gp6N+2rzdhbcGEuvr63eNIorRY1z2UyZyec1zVapKQb8Hhvi/JMXj8WBdLbL34/iMNuRBD7DkIdQb+fVOqfhueN/UQVTualxUXv0VsGUHHv1nYj2SQP8u3NJXP2Fd+PJp38RTz5xXlw9zzBmAADOPuM6nKlLB/Q2VKAMQ2ngbb116R9XxcPZoOEr46b6ykilWTjJ+5wyBGqanZO3GvW2NPXOtym2+iycvvNy6hU2yVYfXJxWGA1jmfHya6Rbwyyffj9rGgQ9WlT51FZnao2ly4rPmVyzpelz0o8Xj8XPj0a0zStWM6pLVz/6SEx58+1hVah0bcuX3+6zEtKnW+Lm8upHQ1ULfC4vv95H44ZlTa8/Qlm4UpoPk8/SKQ6GYtfbTQOCU8nPcLirLgl4RuSKz38i4olfxL/WZ8gkntkdK9LVl1ZcUjzQ1xXpcw+/HLu+MDu+ZJEmAADOQuM6nGm5/mtFJUeqNW75zvDbmlKXr/5RrG26cEbbtOzPdOnq3uCk5vSG4v6+FHYs/GzT9fVZOBG79w4+0yVrsRq16pgBlFrGsqqZWgvXFbXqmTTwKS9bzkCe+0l33Pf0iWhJVzOqz0zJ574Mf9Wg1+O7m4qVihrmr5wTR0+zKqVr2x+iO8qv97dx/rHRWq67sKsnXnqzd7bN5+LdYbY1vRU/+G4RTNU/53nxzq+G8fOrBTzptcMNdchdtSAe33JJvLrmB3HNNcW25p24dct1g4cuF7bF1TPOGzTAAQCA8WzCyUSxP6reeGPka8ZAFaZe+cNir69/W9279g+MZTffMKnYg/FlyhT1bwDA2HN2tDUBAAAAnKGEMwAAAAAVEs4AAAAAVEg4AwAAAFAh4QwAAABAhYQzAAAAABUSzgAAAABUSDgDAAAAUCHhDAAAAECFhDMAAAAAFRLOAAAAAFRIOAMAAABQIeEMAAAAQIWEMwAAAAAVEs4AAAAAVEg4AwAAAFAh4QwAAABAhYQzAAAAABUSzgAAAABUSDgDAAAAUCHhDAAAAECFhDMAAAAAFRLOAAAAAFRowslEsT+qJsx8sNiD8ePQ7n8q9gA4E7VPv6DYAwAYO963cAbGqsGCxZMHby/2AAAAYHRoawIAAACokHAGAAAAoELCGQAAAIAKCWcAAAAAKiScAQAAAKiQcAYAAACgQsIZAAAAgAoJZwAAAAAqJJwBAAAAqJBwBgAAAKBCwhkAAACACglnAAAAACoknAEAAACokHAGAAAAoELCGQAAAIAKCWcAAAAAKiScAQAAAKiQcAYAAACgQsIZAAAAgAoJZwAAAAAqJJwBAAAAqJBwBgAAAKBCwhkAAACACglnAAAAACoknAEAAACo0ISTiWL/jPbats5Ysqm7OCpZ9K14fs384uDMN7zv0R1bOztj48vFYc0lX4kdm5fHhcVhZu+6uPzuJ4uDQn/ncUoTZj5Y7PV18uDtxd4oO7Inli3ZF/uLw9TslUtj200txVHqWDxy4/ZYf6A4zEyK1TtWxIrpxWHNnh1x2aqe4iC3eMMdcW9HcVDWz7lxbUe8sHZOcQBDsS/uuWxPRH+/Z+nv2EOT46ePdsS05PDpNZvizscG+N0t5Oe0xgMvLIl5/fz/0as4pzgCAICxSOXMmWLnN+Pyzq3xWnGYhS1z+wlm+kgDnAV9gxnGjKNbHonLkhvP9uSm9oUXaltHtG/cHpet2Vec1SsNWernbZgU65c8Eo8cKZ5MpDe1l62K5Ia1dN6OORGHjxVn9GPWnPhp/fylsfrgnn7fe1xLA4Qb98TR4pD32/FY/+8D/I4d2RMPPlbsp6Z3xLbS7/LsLJCp/b4KZgAAGPvGXjiTVoPs3R3P17YxVDXToPQ9dtzRlj/28hOxKy1g6Nkay+thy9Wxofx9934rFhXPpPau7Q1wZt2xuXTe5lg5I3+cM1hyE3rXxojVO5qrDebEvS90xOLH9sQ9e4qH+tOxJB649nh07cqDlzToufNgGrQ03bAmN7f3NlThDKYlVtyf3AA/diieLh6B0Tb72tYBf8eO7uqO/bMmxeziGAAAxrtxUjnzVKyZuyAuT7Y1e4v9ogpl79r88d6tM7bWOzjK1xUVKPXj4pRC2o7U+xrJtvap4plEVuUywHNDcGHHF2JWttcdB7qT99rzROSdK2kw842Ym+3XzI+19Valp2LnzmwnC2a2LitCnkxbLF+jpelMl92EXvuZAVo75sTtKydF10OnrubYf/D3yX/3xYMbj8fi2/LWkZE7HoeLipysGuey2rajdEOdtrJsinv25H/mz6XtV5ti2ZZ92Z/5NUV1T1qdUnud5iqV8nPJtmxLqdIney557bS9pX5O+XOk8vetv0b59U9xfV5tlPzDcGBfXJc+d7ZVDVVh5sWxeFZPPFj+e86kv8cRq28r/3sGAADj27hra9p59zejyCsS3XH4lWK3rjs2fnldNGUvyXWNLUQ77+49Jw14+p0Tk+pv1kvaojSMgGbv979XhDFtMautO3b9V/Feiz7fFMw02fuz4ru2xaIONzJj0eGDx2P2zI8XR31NW9gWsw+8GYeL476OJa8R+WscSc9rjcX9zZUZrsNvxv6YFO3Ti9kf0VG0kNwRP115PO5sCla6Vh2KxU0tJvs3/jLi/vyatLpn/ZJN+dyR7LyOWHxgX9xVujF/+vFSK1bahrXx8YZ2rYieuPPuiG9n5yyN1cmN/Z31ECWfx9O1aGl+fbI9MHNfXNcQsgx8/by1yWMbWnvbu8zb+Sv4eKy4rTX27/xNU0h3KLpmtcXC9uIYAADOAmMvnHn5e7GkVKXSXOFSbxfKqkvaYvnmWptPutVagp6Mnc3XpQN503Puv7p44GAcLlqMHipVpzS2DHXH1ofzYKb+3A+/klfB7PxZnwCoQel7rKqlSYu+EstbX40DtTalGRflO2mbU+k71773a93JXXlmZrQn95WMNXmw0t4+1Hajvo5ueTzWH2iN29OWpTRQmTU5Rn5Puy/uWdUTs1demQ1ifTAdyloKK6bd9JlYfKA7dpWCk+zcYr9m9spr6hVB876azgmZFKvvr1X15FVBecVPbt7aUivW9L+LxbOOx/6GVKp8fUt2Yx8H38xv7Pc8G+uT1/x2qXUre8+GtplBrqcaHVfG6rRSpt66dyweeahnFKu/AABgbBh3lTOLbmls5WlsRypX1TRatLCYXTP380WAk7cYRfd/11uMbqu3DbXF8mXp+b1ByoFNxft8uVYFU4Q7Q7To/t3F/JyLYtYl+WMHXnk13xnAhW0zi73hvRdnlsODDertR9eqWlvOprhuZ1vjfJlBq2wGUWvnybZ8xZ1spaisgqYn7qw/lz/fFY3BydACprwSZ2DltqTmValS/VxffN+jh483fYdky1b36W3NGux6qtISCxdNiq7HiwqnI7+JrgOjVP0FAABjyJgfCLx2sL6fvevq7Uh5ZUvjMN2hqFenXPLJvhUJPd31G7ssXCl9rrS6Zvlg1SwDfo+2aK8N8q1V37Quj63ZeU2fv+2T9Vk1O/cM0HbFGSy/MS1XjzTLZ9Jc3FCV0rBaU7E0caZ9csxuCCOGoWG1pubhxOWVcQY6Z4SyWTDltqS07ah4bqiavkO+DbxUM6Pt4zF7uH9niawS67FfZi1sT6erN/VThQUAAOPduKucKasHK4u+lQ/LLYUpQ1Uf1vvy9+LubbUApDu2bnsquWdtqwc2Ox8uLYPdszXW1M8dvrkLa61VT8aq8vLazVrnx6Jalc2mzlje8J5PxZrBruWMkM2UKW5M+yoG/F4zxPkn0zvi9nS2y0DLE5+OkQQ+w5CHUB15tc5pmNY+SRVM5VqifWb0VsGUZJVNMycP0Ko0JxZnK47tia7HJsXihaf3OwAAAGPZuA5n6tIBvQ0tR8PQujxuK8pV6q1LcztjYzZoeH7cVl8GuzQLJ3mfEd0kzv1GaXnt8oyd5rastli+rphxk+j9fP2dyxlpekd8e2XE+iXFakZ16epHyc3qtR3DqlCZtzZffrvPSkhH9sQ9fVbFGYJa4HN3+fWOxSNrml5/hLJwpTQfJp+lUxwMRTq7pGFAcCr5GQ531SUBz4jMu6Y1+XtsWv59z464Ll196asDh4zpfKDYuC/5fR9o5TIAABjfxnU4c+Gyf4mVRWVJGmSs/OHw25pSc9fsjg1NF9aG9V64bHNpiHBNeT7N6cletzZcuEnaolVvgypanpo/X2rWP8y3lPYYMO2mFfHCjrboSlczqs9Myee+DH/VoDlx7wvFSkUN81fejMWnWZUyb+3SbGhr7+ttj/3XjPLA1o4l8cC1vbNt7orPDLOtqSVWPFoEU/XP+cuYPUgg0Ect4EmvHW6oQy75e0xX2jpcmot02arjsXrHKdrLsgHQkwYNcAAAYDybcDJR7AOJCTMfLPb6Onnw9mIPAAAARsfZ0dYEAAAAcIYSzgAAAABUSDgDAAAAUCHhDAAAAECFhDMAAAAAFRLOAAAAAFRIOAMAAABQIeEMAAAAQIWEMwAAAAAVEs4AAAAAVEg4AwAAAFAh4QwAAABAhYQzAAAAABUSzgAAAABUSDgDAAAAUCHhDAAAAECFhDMAAAAAFRLOAAAAAFRIOAMAAABQIeEMAAAAQIWEMwAAAAAVEs4AAAAAVGjCyUSxDwAAAMBfmcoZAAAAgAoJZwAAAAAqJJwBAAAAqJBwBgAAAKBCwhkAAACACglnAAAAACoknAEAAACokHAGAAAAoELCGQAAAIAKCWcAAAAAKiScAQAAAKhMxP8DoYy3PfCsYCEAAAAASUVORK5CYII=;imageBorder=default;" vertex="1" parent="1">
          <mxGeometry x="445" y="838.6" width="199.75" height="123.36" as="geometry" />
        </mxCell>
        <mxCell id="EsEte_tRfW7ecfYolJ52-40" value="" style="shape=image;verticalLabelPosition=bottom;labelBackgroundColor=default;verticalAlign=top;aspect=fixed;imageAspect=0;image=data:image/png,iVBORw0KGgoAAAANSUhEUgAABBUAAAIeCAYAAADkljf+AAAAAXNSR0IArs4c6QAAAARnQU1BAACxjwv8YQUAAAAJcEhZcwAADsMAAA7DAcdvqGQAAOM8SURBVHhe7N0JgBxlnT7+p6fvuTKTmZwEQoYrE8MpuEtQlHVBDAFXxAVBQcRVFHFXOVb357Feq8vh7op4/FdgUUFYOVZMIoKKXEEhEs5MSGBC7mQy99XXdPf//b5V1V3d0zPTPdPd08fzCUVXV3dX91S9b731fut933LEFRARERERERER5ajGfCQiIiIiIiIiygmDCkRERBVrPS5xOOAwpxU3bjeXF9J23Hys+Z3H3qyeFYLtO7L6+8z3T/V7Xr8ZKyZdz/Rsv3FFyu+85NfmC5NK/83q+aWF2p5ERETTx6ACERFRRZKAwjm423wmOq5vy7JCOwOvP4DbXjHnT2zHMnO2GIry9+Xq15eg7foO84nh7vNW4ObXzSdZkQBDG67dZD4lIiIqIQwqEBERVaDtN16rAwoXPxSHDJ8U33YT2tXzu/+lwFe7O56HVKH19/50tbGsUFbehE7522x/36Ytmf66ZbjmZfWel6+ZPMhx5DXYrNa1+br8hULW/1LvBayzfudDF6vnHbjtwan2Qpa/mYiIaJYxqEBERFRxtuOBn6qqvap0f/Ncc5GqMK+7QVW7X7kND5hXyddfmmySn9LMXje7X6G7Ajgcl2D9ry/R71mhlulH3T3A3rXCuvKulp1ntI24+7xkN4KU77l0vV4mjOVq/cYzY33m68Zr6jfobg45Xtm3ujGYv9dx6R3juxLo9RpTonVDSvcH8z3q9yR+v737hPleWb7ixptTfvt4d+Mu6zvOvUsHF3TgIq27hdFNwvpbrf1wM+64tA3XSuuPV65FW+I3ZNr+RERExcegAhERUcXpwPNSCU3rfrDsus2qQrsZ1xypnvz6Epzzs3bctM28eq4qrF+ydx14pUO3OMBHLoHV3qBDLQPaccX7oSq89q4VHbj2/ZlbQEhF+ZyfmU/Ez85JVKKnpn6D/B0rr8D58pvTSSXbqlgfda3+vScuT/7Fxu8FLv7gu/SjZb1VSTfdfZ4V2MhA/d7E71ffd44VcHi/8X2i43qjVUgmq79ithA5zwoATPJdWZOAQ3bbn4iIqNAYVCAiIqpG+oq5GWBoPylD1wGzyb6tC0P7DZ3GZ2CMm2A8j6Mz0QJiNe7SzfuN7g+br+vAl2Q8gUQ3hU7ctFIq4V/KsmJtBj2y7AIgv+cuq2WG+Mg6/ftSlqlvvkuCBNZv0r/X1pJgHHM7mN0rNGvcCHP9xjomoLtUrFNrsdyNc3JsWfCunxrbTf9m2Rbm94/f/sb7iYiIiolBBSIioorTjpOkErqpI+XqtbQaSBnI0GrCb17lT7HSCDTY2VsBCBkYUa6+GwMRduD5cSsxtF96vhkUWIbzL01f62RORHumFgoW+5gKakofC6H92Im/K/GbzO4IqYEHmwzbwXLxB82Ay7mX2IIGmazGXdbvNMdUuPbrM2+vkO32JyIiKiQGFYiIiCrOMrSfqB7sXRpevxnnqMqn1dRf998/6lqcKAMq2q/C58C6Um5NE1XMO376gBncMMd6yOT1DhTz5gaJ32SOFzGdu0bc/UszMPDruybo/mCN3WDr8mC2Csmk4+XcogLZbn8iIqJCYlCBiIioAq3+qdHkPtGX32qNYI6RYFRgL8YlUhE179iQtSPPxxXSjcGsmKcOMGi3Gpd8RD0kxj4wxjJov+Gb+jcYLQmkO8AErSUKIu036YElze2QLfPvl/EW9LY1B6ccz2qZYf6Ntr9Tt3I4sh0S+7FaHKSMPZGJ/s2XYH3W25+IiKjwGFQgIiKqSNLk3t6XX5ExAMwxEowBBM3K7i+lWm0FGrIhtztU6zYr5tL8/uKHzPEZ0qz+aRzrpBJvUb/B6qaw7LqbEr/v4ofMcQOKYLU1RoHp4ofu0kGO7Km//8Fk646LHzK2c6buFjI4ZsrfryTHfliNb8p4CEK6ckw4NkN6t5Hstz8REVGhOeLSXo6IiIiIsiS3czwHd1tBGhmb4qhrgRs6x43rQEREVOkcsViMQQUiIiKirG3Hzccdgetst6UUF/8qhp9zXAMiIqoyjmg0yqACERERUS5e/y5WHnNdchyID69F9M73mk+IiIiqh2NsbIxBBSIiIiIiIiLKmSMcDjOoQEREREREREQ5cwSDQQYViIiIiIiIiChnjtHRUQYViIiIiIiIiChnjuHhYQYViIiIiIiIiChnjsHBQQYViIiIiIiIiChnjv7+fgYViIiIiIiIiChnjr6+PgYViIiIiIiIiChn44IK8XgcDofDfEYTke2UibXtJnpdTPYebvvKNlX+sr9upY/Jnqeva6r1k8HalunSt3Umk72H276yTZW/7K9b6WOy5+nrmmr9ZLC2Zbr0bZ3JZO/htq9sU+Uv++tW+pjsefq6plo/GaxtmS59W2cy2Xu47SvbVPnL/rqVPiZ7nr6uqdZPBmtbppNt5+jt7Z049xIRERERERERTaDGfCQiIiIiIiIiygmDCkREREREREQ0LQwqUMFJ/xv7RETlg/mXqHwx/xKVL+ZfKicMKtCsKpUDJQ/WRLlj/iUqX8y/ROWL+ZdKzYyCCqWSoGm8UtovekRQc0TV9JFVS2mk1WpLy8y/pYv5N3fMv1QqmH9zx/xLpYL5N3fMvyQcaqNwqxARERERERFRztj9gYiIiIiIiIimhUEFIiIiIiIiIpoWBhWIiIiIiIiIaFoYVCAiIiIiIiKiaWFQgYiIiIiIiIimhUEFIiIiIiIiIpoWBhWIiIiIiIiIaFoYVCAiIiIiIiKiaWFQgYiIiIiIiIimhUEFIiIiIiIiIpoWBhWIiIiIiIiIaFoYVCAiIiIiIiKiaWFQgYiIiIiIiIimhUEFIiIiIiIiIpoWBhWIiIiIiIiIaFoYVCAiIiIiIiKiaWFQgYiIiIiIiIimhUEFIiIiIiIiIpoWBhWIiIiIiIiIaFoYVCAiIiIiIiKiaWFQgYiIiIiIiIimhUEFIiIiIiIiIpoWBhWIiIiIiIiIaFoYVCAiIiIiIiKiaWFQgYiIiIiIiIimhUEFIiIiIiIiIpoWBhWIiIiIiIiIaFoYVCAiIiIiIiKiaWFQgYiIiIiIiIimhUEFIiIiIiIiIpoWBhWIiIiIiIiIaFoYVCAiIiIiIiKiaWFQgYiIiIiIiIimhUEFIiIiIiIiIpoWBhWIiIiIiIiIaFoYVCAiIiIiIiKiaWFQgYiIiIiIiIimhUEFIiIiIiIiIpoWBhWIiIiIiIiIaFoYVCAiIiIiIiKiaWFQgYiIiIiIiIimhUEFIiIiIiIiIpoWBhWIiIiIiIiIaFoYVCAiIiIiIiKiaWFQgYiIiIiIiIimhUEFIiIiIiIiIpoWBhWIiIiIiIiIaFoYVCAiIiIiIiKiaWFQgYiIiIiIiIimhUEFIiIiIiIiIpoWBhWIiIiIiIiIaFoYVCAiIiIiIiKiaWFQgYiIiIiIiIimxRFXzPm8CUciiETGEI3KFEMBvoKIiIiIiIiIpsHhcMDprFGTC263Cx6323wld3kLKshqgsEQgqEQgwhEREREREREZUKCDD6vFz6fV8/nIi9BhVAojNFAgMEEIiIiIiIiojIlAYVavx9er8dcMrUZBxVGRgMIhULmMyIiIiIiIiIqZ16vF3W1fvPZ5GYUVBgeGUU4HDafEREREREREVEl8Hg8qK+rNZ9NbNp3f5AWCgwoEBEREREREVUeqe9LvX8q0woqyBgK7PJAREREREREVLmk3i/1/8nkHFSQ3hIyKCMRERERERERVbapbsqQc1BBbhs5w7EdiYiIiIiIiKgMSP1f4gATyT2owG4PRERERERERFVjsjhATkGFcCTCVgpEREREREREVUTiABIPyCSnoEIkMmbOEREREREREVG1mCgekFNQIRplUIGIiIiIiIio2kwUD8gxqBAz54iIiIiIiIioWkwUD8gpqMDxFIiIiIiIiIiqz0TxgJyCCkREREREREREFgYViIiIiIiIiGhaGFQgIqIZkaZwsVgMcTU5HHqJntfL2G2OiIiIqKIxqEBERNMigQPE43DWOODzeuDzeeH1qEevV8/LMvUSYtExjI3x7kFERERElcgRz+EyUm9fvzlHRETVShcbanK7XXC5XHAYzRMmJO+XoEIwGESN04WaGsaziYiIiMrR3OYmcy6JQQUiIsqadGmQlglut1sHB6QI6e8dxkDfKOIxVag4HJBCRd4nsYbGOX7Mndeo3uvQy0LhMKLRKFwut7FCIiIiIiobDCoQEdG02QMKEjzYt7sXu9/swdzWJjXNgdPpMt5ojqsQHYuit3sAXQe6sXhJM5YesVAHIcLhMMYYWCAiIiIqOwwqEBHRtEhAQcZH8Hg8ev7ZJ19DKOjAUcsPQ43LhXjMIT0i1GtGkSKtFBw1UJ+JIxodw+tbdiAaC+Lt7z5OrcOlu0LIW6X7BBERERGVBwYViIgoZ1JMyGCLXq9XGiDgNw8+h3DIg7eccIR61YmxsTgi4RjGIvK+mO7+IMMmuNwOuD010HEDRxSvvvAGwuEBnH/J6WqZE6Ojo+p175RjMhARERFRaWBQgYiIchYJhxODMv7x4RewccN+vP3dJ6rnXoSCMYyOjCEYiKr3RRGNSpES160U3G4HfP4a+Ouc8Pqc6rUwnv7D82g7uh4f+PAZxuCNoRB8Pr/xRURERERU0jIFFTgENxERTUi3UohF9aCMe3cfxNr7XoTXOxdD/TG0HT0H+/aMYO+uERzYN4ruriB6u42ppyuglo1gz64h7N4xhP17ZDDHCNzeOXjid1vx6otv6HVKGwXpTkFERERE5YktFYiIaEKRSERV/OX2kW78+Oa1eP5PI1h+bDsWHdKMk0+dh7aj5iAajSEyFoXH7UIoFIHH60I4PKY+40Rcj7FgfP4Xd76oB3fc8sprOPTwOL5608f0+qOxGLxen/GFRERERFSy2P2BiIhyEgyM6sEZg4EQLjvne/B4j0Lb0YdjwaIGNLe68dfvWIxXXjiIbR19OO6tLfjzkwfwtrfPw6Y/d+GYY5sxNBDS4yn87eqjcO+dL+PAvgFsf32HWr4N/33fP2LRIa0IBIOoq6s3v5GIiIiIShW7PxARUU7k1o/i1Re24+CBMAYH4tizc1h3cdjycj/mzPVg8ZIGLFwsQYZaLFzSqB7r9GPr/DrMW1CPtxy/CNs6utF7cBS7dw5ioH8MAwMxPPf0Zr3umPkdE3n0Uz9By1z7dC9u7TRf1Dbjk+Zrn3zYXFROOjfgk7d0mU+AHbfca/ydp23ADnNZqSqN31rm+7/cpaVfIiKqPgwqEBFRRtKQLR6L6ccdnfvhctciHIrjwF4ZQ2EYQ4MR/OnJfVh6RAP2HhhEb+8o9qnHnh712DWIg90jahpCc4sPr7zUpT9zYO+QHtzR5fJj5/YDet0i87gKRmXxonvNpwlD+MrJP8Gp+azIPLzeqByPC1gUlq6Un7wZL5nPicoJ0y8REQkGFYiIKCOp8EtlX6aR4RA8Xjdc7hr1PI4d24cwMBTBE3/cj7mt9di9N47+QQd27nOifwjYtc+B3v449nXFMG/BHLz8Yjd27BhATK3T6Xbq21MGAuHE+tWXmd9q6cKtp23AfTLbvgLP934cPXpahQv068DWrz6WpwDAZnzy4r3AhavU+i/EVW3m4oLrwtp71MYiKktMv0REZGBQgYiIJiQVfgkueHxOuL0OuDwO1KhpLA7sPxjGm7vGsHVrHz502dF426kL8ZGPHYW/Pm0xLr70GLzjjMPwt2e3obt7FG+8GcQYnHC6XfB41OR1wuf3JAIXcMh9IGwe3oivdMjMYtzz9Cos1QvFCvx44wocjQZ8faMVAFDLzKDDj8/Wb8qR+fkfrjCfz66lV19oBFBS/m6a2Ez3PxEREc0EgwpERJSR3PIxGo3qSr+0NvB44vB4AZenBg6PC1GnB4MRD377WDccbgfu/vUePPNyH+5dvw9PPN+Le9Tz+9fvwrdvfhlxTy1q1IddXrcOUHi8Dsxf2KTXLd8h32X36K/2GjMXHo4zjbmktlV4JqVFwfg+9Ym+/p/abOvaINN6PGq8JSnl9fRuFdJiIrncPr6D9b7Ed8kk32czbjyIxNgD8psfMgMn0uriIfW68dsmGqcgZV3qe8a9L/F32P/GicYbSC5PWccUMv394yW3mTFl2OYp7L8x9bMp32H7+25NbHPprpL2N9r3Z2J/2P7eif5W+/br3IBTrfdn7BIz+faz75tbE9tMrXfC77C2kX29ad+b8n5jStmn1rrlt+Tr90+Yf+TzmdMvERFVHwYViIhoQg6HQ1f8245eBI9vTE0xuH01cHrdcNb64GuuxQtvxNDaUos3uuqxdb8xbTtQjzcO1mN7dx26R+vhqa+H0+9Xn/XCK0EFXxxHtS8xWimM04WtZifto1e0GjPTde8GtEjXhoS9uMhe8ZcKU8rrZgUpLTggZLl9fAd5fupp9+Kkr9qagKvvswc2xo0H0bEZJ01UqZ2EVOZT1qW+J+V7cyIVQrNriUV+1xSVwvTfIH//+N8gQYFkZdOgtnmWY1Xcd3HqZ+U7UoMhYi++Yn1v+6FYk95d5ezVuOdCc/7el/X37rjlZfPvTW/5kon6vSdvxlbzmTGGh33b5LD91PKvWNssJUCW/h3quUpLp6asV33vR6y0or4z5f2G+y5ODxYp8lvSf39iPSKH3z9V/iEiIlIYVCAiogk5nS6MjY2hdX4T2o5ugscbgddfA7ffBU+dB556r26F8PquEXzjs3Px9aua8K+fmoOvXdWM71wzD9++7hC0LvCp9/nh8fvgq/Woz8fV+rw48pglet1Ol8v8tvGOO2q+OTd9F9xtNI1//msNxoJ73zQrT6pyZVaYjv7aeUaXA921QjEro6lUhVQ3s7eN66AqwF/fKMvOw9fbjWX3/UoqXZvxb7riK9000r6/o19V+KTJfvIzxvevHt8qQ3RuSFRMx/3OaXj0U+ljVVi/Q1XWJ2p9kOVv2HHLY8luK3rdHzcr+Kpie2M2lVHrc7bt+Y3xQZjEb5ggQHDmD619ZAzqaQU/jv7ayZm3cTo9vob9b0xum1y3n5X+0rvXWH9DMl0MYav1vXcvNpftwlp7UMR63ZYGX9o2/jsT2ydtPWK6vz81/+SQfomIqOIxqEBERBPy+/0IBoNw1jhx+lkr4PaOwlcb04EFj7cGTmcNHDUO/GFjBN19Mdz1myF88/Z+fOuOPmx9M4ynnx/GSNABj8epPueGv9YBrzeMd/xtO1xul163319rflsBqIrTv5j97JceZVaKLJ395qj1i/H1q83gRdsqfN2sBP98XWoFK1khbcVxZmUKFx5rdsOYj6OP00tMVj//ZDeNcd+fpR3rdplXnTP9zlwlW4Fc8GWrQj4fV33ZqHxuvef1jK0osv0NWzePr7yfeZ0VqLGCORNLfk79pp+Zn7NViA0N+PA5UwWb1Pa3KtQWlRbusX77pBrwdfWbNfU33mNWpo1tk+v2W4wLMo7zkNyOyXRh+96jm1ICNolxNhKBCVsaHMe2j9LWk/P+nyz/EBERmRhUICKiCXl9PkRjMYxFx3Di247GsiPr4PWMoE4CC+4YauIRxCJhHDoPOOawerxlqRuxqBM+pwNvXd6Ivz62AY5oFB5XDHW+OHy+EOYtqME7zzwBUbVOuRuET33HRDJdhZ22RAVrCFulkrpVWgwIaZ5v9RnPdAvLmZLm5mrdad0sctaeWkE8esV0KnndeMnsXiBN5xN95bP9bZP+hmSFVXchsdadodn+RFJaprQ1wYjTDOGllBU04Oj0Lg+ZnH1y4kq6SFaip5K6/kRlWrcwyXH7pW2vfDDGO0jvYjKBcdtwBvs/Pf8QERGZGFQgIqJJzZnThJGREbg9Lvzdh96GurpheJwD8LuD8CCEmkgAz784gO/+ZAse+n03xkYDGOgN4t9/2IHv37EN7ngIPmcIHpf6nKsf51/8Nvj9Hr3OxsY55rfYJa/6b93cbczY6UHosuujPxMZvzvNZGM+JAc1TOu/XkyJ1hhZ0hXnQil2ZTRZgRZ5DVBNZEbbb5JgiW3gxemPpZGFgu5/IiKqVAwqEBHRpKQLhIx7EAoGsXDxXFz40ZNRX9sLZ7QLnvgAPNFhOMOjeOONEMZGQqgJyfMR7N8TwnBfEO7YoHpvN7zOLpx/8fFoO2qR0aXC6dLrzuTM95lN1zM0mTea4ktf+RkGFhJXXpP9/1OmmdxiMtMYBOnN8bOUeqXc0oW190yncplsNp/o658yTdEvPq3SaXV3MCSDQYm/OWWy37Ejs5SKfyIg0oDjpnG5Pzk4o2HrVx/LMr2kBj92bDP/Rt3qYIbbb5oevdFq7TF+zInczM7vJyKiysagAhERjROPxxO3e5SpqakZwUAIkXAYbUcuxEevXIXDDw8DoR2oCe2DM9wNV7gXrkifMal5Z7hHvXYAjtBOLJw3hMs+8TYce/xSRCJhBIMhNDU3J25ZKZN8Z0Ki6bqMim8bqE9V1i+abOT/XCSahtsHqDO7Kqhp/F0HcpDoWpHs356onOYqEfyw/c6HN07S/H0v7jN/e7IyaklW/O0DICZaVUwwsv/Scw7N8BvWj+sqYnWH2PrVjYlg0LhbX07C/rnEb5/Ofralk6O/tiI5aGNWg0Xa32cNuKnWc9GRWDrN7TcztruhJMacSG2Fkb3Z+P1ERFTpGFQgIqIUVkBB7swQiUR0q4JAIAB/XS0GBwf184WLmnDpx9+OCz98DI5YFoA79iYQ3A5H4E09ybwz0onDFg/ifecvxT9cfToOP7wVoVAAQ2oddfW1ej2hUEh/hxVcSAYW7AP1ye3uzEpPon9+A77+s2z7yE9kBf7FGoQvMQZAcmR8a4C6abEFAqzxGpLN1q0r4bZuHvr7J2h5YRsQMfE7M/WBP/vwxB0BrP7yF93bgKPTrmgnBk60bVcjOGAbKDBdlr9h6dXHmr9h/N+d3ZgGyc9ZAYvsx0JIsl/Z//rVqxL72X7Lz0nJrRT177C6riSDQ9PafjOSnk7sv0sty6Kbjl3+fn+W6ZeIiCoegwpERJRCt1AwAwqjo6MYGhpCX28vuru7MaKeH9i/H4MD/XA64zj2+EPxkStW4XNffCcu/8RKXHDhUnzg75fi0o+1q2Wn4/JPvR2n/PUyuF3A4GC//mwgGERvbx/6+/sxPDysAxb2wEKCqsg+k6mZt74V3tRN6bOhR9VP75Ygt+2b4FaFWZPfnrbeC+62/pbknSUSFTwtfUDCpDN/aN2a0SDdCxK3+EtYgR+n3OZRmsqfgQ+bzxL0dk3ektAg7518m2b9G8btM1VZ3fhx/DiLIE1yGxmkiX42n7OTlhGJgMTdRnP+pVefkVjvfRevn+IuFGpbjNuOtm4B09x+M3HmD9O2qeQBK31lcVeNFHn8/dmmXyIiqmyOeEp708n19vWbc0REVKmkgm+1UJCgggyoODIyjJHhEYwGAmp5AA6HA/Pnzcf8+fP13RtkzAWHowYO9XmrUInHJTgR1e/v6urCwe6D6nUHfH6/Hkuhvq4O9Q31qK2t089lPS61HploalJ51q0ApII50yDIrJIuJ8aV9+kEEfLm4fVm64u0IAIRERElzG1uMueS2FKBiIhSWN0fYtGo7gIRDhtjIEhAQQcYhkfQ3d2Dl156CY8//jg2bnwOW1/bgr17duPgwS50q2mfmpdlGzc+iyeeeAIvv/wyenp69OdHR0eMrg9qveFwRH+H/r6U7g9EREREVA4YVCAiohTSCqGmpgYONTmdTng8Hni9Hvh9PtT6/aitq9WtDOrq61DjrEF3Ty+2bt2GjRs34umnn9bTc2p+67bX0dPbp99TX1+Purp6+GulRYKavF543G643UbLBPk+/Z3qu4mIiIiofDCoQEREKaRyL8EEr6r419bW6oBAc1MzWlpbsWDhAixatBiHHHIIDl1yKA477DAsXboUh5nT0sMPT07yfOlh+j1LlizRn5HPLpg/X69rTlOTWneD7vYggQsGFYiIiIjKD8dUICIiIiIiIqIpcUwFIiIiIiIiIsobBhWIiIiIiIiIaFoYVCAiIiIiIiKiaWFQgYiIiIiIiIimhUEFIiIiIiIiIpoWBhWIiIiIiIiIaFoYVCAiIiIiIiKiaWFQgYiIiIiIiIimhUEFIiIiIiIiIpoWBhWIiIiIiIiIaFoYVCAiIiIiIiKiaWFQgYiIiIiIiIimxRFXzPkp9fb1m3NUbnLYzTQNDofDnKNiYHouLKbn4mJ6Liym5+Jiei4spufiYnouLKbn8jS3ucmcS2JQocKl714eHPMr/WDIg2NhMT0XFtNzcTE9FxbTc3ExPRcW03NxMT0XFtNzeWNQoYrYd6vMW8/Tl1Pu7Ac+a14eMy2n/GB6Lhym5+Jjei4cpufiY3ouHKbn4mN6Lhym58rBoEKVkF0ajHkQiHoxFnciDmbQ/IjDGQ/DHRuFG4HEgbCmpkZP1nPrgGg90swwPRcK0/NsYHouFKbn2cD0XChMz7OB6blQmJ4rDYMKVUB253DUj9Goz1xCheAI98MV6YVTDohOJ1wulz4wOtW8dYDU7+OBcUaYnouD6bk4mJ6Lg+m5OJiei4PpuTiYnouD6bkyZAoq8O4PFUQOiBJh5QGx8OKeJoxEnBgaHsbo6CgCgQDC4TDGxsYQi8X0vtDvMx8pd0zPxcP0XHhMz8XD9Fx4TM/Fw/RceEzPxcP0XLkYVKgQVuaTJltUHHH3HPT19WFwYAAjI8MIBoM8MOYJ03PxMT0XDtNz8TE9Fw7Tc/ExPRcO03PxMT1XJgYVKoz0AaPi8Pgb0dPTjV45MA4OYXRkBKFQSB8Uo9EoD4Z5wPRcPEzPhcf0XDxMz4XH9Fw8TM+Fx/RcPEzPlYlBhQoimZCDyhSPo6ZGHRR7dLR1YGAAw+qgGAwazbisSCsPjNPH9FxcTM+FxfRcXEzPhcX0XFxMz4XF9FxcTM+ViUGFCmBlPGbA4uvv68dAfz8GBwcxPDyMYCCISCSio63WgVFw32SP22z2MD3nH7fZ7GF6zj9us9nD9Jx/3Gazh+m58jCoQDQDQ8ND+mAofcICgVEEQyF9UIxFo/qgSFROmJ6pkjA9UyVheqZKwvRceRhUqCCM5hWfRFZl5FoZZEb6g0UixkAzUXVAlP3BfTJ93HbFx/RcONx2xcf0XDjcdsXH9Fw43HbFx/RceRhUqBDMfLNDoqp6ChuP+oBoRlmtfcJ9kztus9nB9FwY3Gazg+m5MLjNZgfTc2Fwm80OpufKw6AC0QzEYlF1EDQOhMYUSx4QeTCkMsP0TJWE6ZkqCdMzVRKm58rDoEIF0RmRiioWM5poxeLqQGjOWwdE2RvcJ9PHbVd8TM+Fw21XfEzPhcNtV3xMz4XDbVd8TM+Vh0EFohmRg6B+kDl9MDSWEpUjpmeqJEzPVEmYnqmSMD1XGgYViGZMDofGwdF45CGRyhnTM1USpmeqJEzPVEmYnisJgwpERERERERENC0MKhARERERERHRtDCoQERERERERETTwqACTWn3D1ZgxaIVuGO7uSAr63H9IgfW/CCnD2XnkUvU77kET5hPiYiqiXFMdqROZ9yM3ebrJYXHa8rKdtxxxuyl6SeuLuE8RGWI6ZmqD4MKlB/bb8b19gDCI3dh7QXrsPbTy8wFM6UO0FfzAElEZGjHdRvi2LzPnB67BkvMV/KPx18qkuU34RFJzxtuQtuWa3FlIS5MZHD6LZ24DrfhUdvXPXE1g2E0Q0zPVEUYVKA8UCecH7sWm81n2ll3YfMtq80nM7f7B+fgxlfMJ7LufXfhdPMpEREVTsrxl6gYlp2PDywHOjs6zAWFtgyXP7YZl1vXQR65BFfeZ84TzRTTM1UBBhUoB0ZzrjVXX4I1ZnOu6x8xTzi3qIPlN9rM7g72Zl+2bhO6Gayx7PqrV2DF1evVQrObxBlWFwv7Z9Ukzbe234wrv6EOxFuuxVnyPK05rW7mZb5ffo/QzYPPuATXW+vS30VEVLmsbhHGcdk6plrHwxWJ47b9eDjx8dN8/+UfTz3+ZvyMWTbo43hyPeNlKhtSj/kF6TJH5U2dAyTSbiKNpKe5DOcO6l3paX/ND9Yn3pdIa/b168+p85LL7lYv3I0r9blG+nlK5nxjX8ZzDpoQ0zNVKAYVKGedr5yEH+2L40cXAGt/vR5LPr0O1y0H2r7cqbs7GEGGi/V7Nt95Im78mO2gdsE6bN53E3BfarS2c+VNarkRVT3zdrM5r24udhsexTX40ZfbjWZkaU185QB75X1GM+BH1HvWXmadqCpbNqFd1nXnxer77mKzLyKqIB24cVXqSd+ST282jsuXOXDWNzrUMXld8krVFuAD0l1CHw/P0SeOkx8/zfff8ZPU46++4mV2vVDH6M2XJQO8nbhCN/W94SxzQZqMZcMjX7Ituxid3zgn+Ruoem1/APerNNjWrtIezjfSh5oknXb+8gFdwRL2NDfu3CEtLevPfuNaQL3PmP+SSruq8vaxa9Gpz03Uec1KaaLejhskn0DSZbJVZOI8ZVuGPKAqcjfYlrWZeYxIY3qmKsCgAuWs7YPnJyv2r3QkDoaG7Xj0lxIwkIioOtGVQMKW59EpYyyopWvOlS4Rq7FGnfjaGQdasQxLlpkR2lXqwGguzcz8ruVX4Ex14rzkvVegTZ1o3/8b88hrLjdswhs8USWiimGe8Jknp1Z3s9M/r04A9dzFuN4+po11PDzqJP365tefmPz4iRNxhO3jlid+LVe8zICGPkbbjq0r2ycZ12GCskH/nuSyNXfamuxS9ZEWMZIWJG0tvwk/kjS8TJ0XmFdfJViWIpHmJjl3SDkXMNL1kiNPNJ6alT0JtElwTpqIT9RE3TpPyZgHVH5cYVuGL3dOGFyjKsL0TFWEQQUqDGtwGj1NPf7BiiPNI6Q+0Lbh/g92GtFRYylRCTALeDlBUNOUzbTTuumMZzRBZPSfCmOGgdTlRvAhM7NlgZ6SQYBkcHgS6WXDsmuwdl+nbu0mUlpLUPWxpw+zZaJu8r3qtsTVWbtEmpvhuYO0tDTSpJomGA8qcZ6ipeeB1bhBzUtLISHdQXlsJ6ZnqiYMKlCeLcOZH1QHRbOpltH/62bsPusSrFGvSncJqUytnWjAmG3PoxPt+MB71cFOz08m7bt+c1vys0R59sTVbbhxpdGk0GhqyGbaVGrMpq/L29VJaAdu/K6tH6zVfNY8rq448vRpHT9PP1ea0d6NtXKCOWXgzG6CskGv4xzdhJeBZMpEX2k1r85OONBdTucONtYAeroJuhE4nipgnDEPmFee154rlbJ1+nyHKBOmZ6pUDCpQHhgnixLJNPr1yhgLRrOps74BXHe7RGdX47MSkdVNsq7FZvOq1DhnfTPx2RXf3qRPjDu2mU1zdTOy1BNYow+x9V0dbDpLBbIdb7xizirjm4pnMOVdSowrAWxSSNNjHifNljNyIviAHrOgXR1zN2OtOXZC4oRy+Yno+Jh6nzm2jaS7bI+fKcdfla6tcRuM7gpTt0SzZCwb9PrMv0Wa3l5wE4/hlEJ36TGbkd/wigSmMlSyJjh3mNoyXH67tf423Aizibq+ECLdcjK0nMmUB5YZYz/pZYvOwdrlN+GzPLZTBkzPVKkcccWcn1JvX785R6VEdqFM0WgUvbF55tJSI0291YFJBo+5ZbUeVfaGdmNgx3L2g29djbq6OjQ1N6O1dR4WLJivH5vVc1nu8XjgdDrhcDj0RFMr1fQsaVbfkkmaM9oHDJXI/mUwBkCS6L6qGK24M44bYC2/BGtV2t/8ZSu9G3kBd64DLpPH0gksMD3nXymkZ2kVcNYvrxg30G2lY3rOv1I9PlcDpuf8Y3qePUzP5W1uc5M5l8SWClQk9pYKUjlLG0SMqMSdfovZBNC8wpB9s28j7SdGeJZBSxn1JyIiIqIKwaACFY00tU0MHJPF4I1EpcXoriDp1xi86G7cMNVgjaYln74Ja3Rf8u2449t3p95BhajA9LG3ylopEBERUfEwqEBEBSfNC8ubcacGGTNEWK0WJhxkaRy5jWoH7v/ul3D/FrbSISIiIqLKwTEVKoC9T9gpX37aXEpUXl74zrv0oz09l96YCnLbpeTYCXLv5rVHfgkrLtuE6zZsxuXbZBwFGejIPqaC2SrH/pmUsRU4pkIlK9X0nDP72CHmolLH9Jx/FZOeyxDTc/4xPc8epufylmlMBQYVKkD6QbH7QDcaGlvNV4lKmzvWh4XN6mBkFhrp6bl0yO2Z2nDjFvOpOehoyvILLsaa++42AgXpQQX9Prl1njXCPoMK1aB003OOGFQgpWLSc46euPoS4JbZTftMz/lXrem5FDA9lzcO1FgFeroYUKDyEqlpxo69AxgZGTGXlKpluPwxa0wQNemAQtpyddKZuE3kuFtKyvvst+zjLSWpjIxLz0RV4pFLjDv/EBHRhBhUqDCOGrc5R1Q+ojVzsHfvXgwODppLiKg4jPFC1pyxQt+ZZ0XiPub25WrZzy4x73hiji9yxs3Ybc2bY40QFZW0ntFp1kqDE6VNe1qW99vu1S/d0vQy63PC/v7D8IHL7lbL5B7/2d7xh2g6pDWjPZ06cP0jtuXmwNDSFdNIq6nv1++1pefrr1b5w0rTGdM5UX4xqFBh/LUN5hxR+XD55iAcDqOvr0+3WJDmiERUPJ0rb8LmfZ24bnkHbvxY8qTTWL4Zly8wF0gLmw03oU3fWvUcrMXF+FGi1Q5RsaiKv6rst32500i3r5yjKlWTp83xaVytY9W16JSubPvWYY18zhYgM96/E/ffebF6Zo6nY7xEVDCduAKP7DPuMrX2sqkDWdb7bzhrO+74mErPy29SzzvR/ooEw4S5XKdztd6V1+LKLO9cRZQLBhUqTI2Du5TKj8NMtxJMGB0dRSQS0c+JqDjWnCuVr2U4YqV62PK8OlE1tLW3m3M2y67B9fq2qur1L3+TFS0qvkfuwlr10PmNNqxYZIxps/l1VVGaJG2OS+PmOozlcoce9XDfXYlKXMa0T1Rg1i2njfS3CW9MVf9f2W7cLnj7A7hf5QPj88tw5gfN9Gsux33n6JYK0pUn+ztXEWWPNVAiKjmhUEgPnEREs2vFkZPf/pQnpzSb5E471jg3xl11kmaaNqdK+0SlINvgl9Gqxxr/ia3LKP8YVCCikhSLRdkNgqhI1v5amn1vxxuvqIflJ6FNL52AOXBd23J1Mnvftcn+6UTFctYlWKMejHRrjIGg+5RPkjbHpfG0dayVwRgvuIQtb2hWdf7yAd39zAiKnYgjzNiW8dxMv5ksOx8fWG59fjse/aUZVEtbbh+fgSifGFQgopIk8QQGFYiKYw3uMpuRt+O6268xmtNmZPRll1uqrn1sndE/fRUHsKNiW40bZKwD3aT7HKxV6fGGsyZPm+PTuDkGg7UO6Yue6QquDj7IQI22AR6JCqRt5fMqrRndFNbcKeN4LMPlX0ym9Y6VE7VMMN+nxxRpw/2w3qeW326NNaLSP27Cj9Ja9RDlg0OdtGd91t7b12/OUSmRXSiTNBffN8L77FJ5GtrztL43cW1tLbxeL1wuFwYcC/V9iqk4eN/o/LMfn0vzPuhylfcc4M7Ku70p03P+lX56zqQy0jjTc/6VVnqWVgRtuP+DneO68mTH+LwEDR557BqVYFbgrI6bSrarA9NzeZvb3GTOJbGlAhGVNCnwiYiIiGgi9pYKDpz1DeC6z3PsBCoeBhWooHqGgvj4Dx/Bed/5Pz3du+E1vfyZ1/bq5fI6Zc/anrL9AuExfOHnT6Zs13T29xMRjbcaN+yrvFYKRElM41QOluHyx8YPOJqTs+5KDsYotwJmLwcqIgYVqGCk0nvjr57D8kPm4qEv/B2++P634a4nOiqigvs/f3x11gMiu3qGcHBwFDdd9k5cuOoYcykREREREVHxMKhABfPC9i68eXAQ551yhH5+6jGLdXBBHsuZBEWe6thjPiuulgYffvKps8p+GxIRERERUWVw/qtizk8pEGRT9VImfc+HI3Xms9m3YetebNnTizNWHqoqw35zqWF3zxA2be/SgYfvrd+EF988iNOWH4LtXQO46id/wE8f34xfPLUFNTUOHLGgCV/+xdP41XNv4EePvIjD5zUiEBlLvG9P7zAeUq+lf95a5wN/3ob/+PVf1Ppe08tDkSjuefo1/b2y/pWHtmLrvr5xn9v4+n587ZfPYMNrexO/sX1JC7679i/oGhjFM+rvk/fVel36b5Jgw3U/ewK/2bQdt/3+Ff275LPfefBZPb/qmMX6PVf95Pf6b5NJ/pbWRr/+++Q7rL9ZfpP9vb9/eaf+Lmn98dnb/4A5tR78csNW7Dg4iKe27MVxh89LbGN5j7W+bervGlXPT1o2H4e2NuCmhzbq32N9tywrFeGhXXpgHrfbrQdprKmpQchRz0F6iui5J3+j94HP70dtbR3q62XgzDr41XNr0CTZL9wnuZPjcyBeOsfnasD0XDhMz8XH9Fw4TM/Fx/Rc3vx+nzmXxJYKVFD1Pjda6lMDChapmL/vlCN0831pxi/N+eW9d1z1Ht2i4ZLT27Gps0tXkkWd1417P78GJ6gK8u2q0i6V4juuOhvdgwH9urxPlp98xAL9eamsP7TxDf3aSGgMX79olV7nwy+8iY+9e6Wef/TFHbrCP9Hn0n/jSCiCK/5mJebPqcW/f/h03XLAblS9/vF3H6u7ejyxeTdOO2axnt/4xgEduFiiKvHyHTKdvmIJnn5trw6sdA8F9N8i733wz6/j5Z3dOogiv1H+5tYGtV0eS96c2ONy6r9hnvqt8ncdvajZfMVoIbJ5d49el/x2+RuEBCnkd8jfItPdT23hmBZERERERDQjDCpQQQ0HI+gZNir96aRifvTiueYzg1TSJbhw0X+s0+Mv2Ell3+9x6delW8WJbfP1++VRSHBAlktlXgYvlMdd3UP6NX1VvsW4Km8FOg4zn+/tHZnwc/bfKIGJHjOAMRH7+2u96nvUb5apzmzNIL9BKvfW9wh5XbbT5bc+jG8/+Cz+cfWJOPawVv33yja48Ltr9fuuOvsE/TgVCVRYv0MmmbeWS9Dj2jsf19NB9bdMtG+IiIiIiIiywaACFYxVabfIlXoJFmS6U4FVYZfXvnLPhkSrArtsm+rL56zWANeed7K5dGrT/VwupPvBbX94RbdKkJYKQloZSOuMFUta9PP/Wr9Jbyv5DdLaQEjLg1sffkHPz4QEGOS75W+853PnpLRwICIiIiIiyhWDClQw0k1BWgjIeAdCxlCQVgJ/e+xS/TwTaSFgtSqwWgukk9fkPdI1Qprvy6M4ZG59ynK53eJEt1q0Wzy3blqfy5WM5SBdNeRuGDIOg9VtQ1ouXH7rb3V3BumWIK0a5L3yO6R1gQQArABENqTLhXR52Lq3V09W9wf7cvlO3tKTiIiIiIhmikEFKhjpqnDd+07RgzVKc38ZK+D6vztl3DgEdnKnCOmKIE3+ZRBCGWvAGlPBIuuVsQLk6r10GZBxDqzlUjGXz8tycd7Jxp0nJuNz5/Y5q3uDDKIoLQqy5XU79e+Wbg/y98nvlsCCBF9kPAerW4IMBindH+Q3yRgIsu30o/psNuTOEBKEkK4UMm7C0nmN45bLJGNDTLYviIiIiIiIpuKIy5CnWert6zfnqJTILpQpGo1i38g8c2nlkiDD1/73GT3/1b8/VQ+qKK0aCtVlgYpjaM/TqKuT0X9r4fV69R0gBhwLE6P/UuH94FtX633Q1NyM1tZ5WLBgvn5sVs9luTUiM0djzp79+Nwbq/zjcylhes4/pufZw/Scf0zPs4fpubzNbW4y55LYUoHKjr2lglzxlxYQ2V7FJyIiIiIiovxhUIHKkjTltwZV5ICDREREREREs4NBBSIqYVn3zqIZio5ZY5c4jH8Oc47NDvOI6blYmJ6Lgem5WJiei4HpuViYnisTgwpUceTODXLnBGuAR7nTgdzKMpdBFak0OONhc44Kbf+e7er/RuGuHnQBbzzRTykPmJ6Lh+m58Jiei4fpufCYnouH6bkyMahQQRjhy0xuy/iPq09kF4kyI+nZHTNuh0mF9/LGJ1FTI4W8AzWOGjjMeX1ckUf1Hh5jpo/pubiYnguL6bm4mJ4Li+m5uJieKxODClTx5K4QMgYDlR83AnCEedeZQvvLhkex7dWNqpB3wul06RGXjalGLTPvvsECfsaYnouD6bk4mJ6Lg+m5OJiei4PpuXLxlpIVwNqFckucvcOter7aSBeHbz/4LGq9bqxYMhejoTF9u8ldPUP4yj0b1POIWt6il72wvQv/tX4T6rwuHBwM4PQVS/Q6nti8W89LEMJan+WL738bjl48F//88yf03Sfkc1+/aBUeeu4N/bml8xr1+y5++3L9eNsfXsG/f/h09AwH9PdLSwkJbNz00Eb9fiHrTF9mfX81st9S0ufz6VtKxmIxhEIhjI65EPfMgcfXCIcqdGjmpE+jNEGUKwZSwLtcbr3d6+vr0TxXbvHUinnz5mHu3BY0NjbC7/fD7Xbrwl/wKkJ27MfnSCSCQCCAkYiT6TnPmJ6Lg+m5OJiei4PpuTiYnitPpltKMqhQAaxdKBWwPUMter6ayNgJX/vfZ/T8de87BTf+6jk9f/3fnYIb/u85tDb6dUVdKu+HtjbgsJYGHTCQSr2wz0uwQYIFEjg4VL1PyOfE5Wes1EGF5YfMTQk8yGdb1HdYwQORKaggrPWLW9T8pe98C370yAv4Z/P77QGIapMeVJACRdJ0JBzG8MgI+vr60NPTraYe9Ktj0dDwEIKBoD4RiMWiarIOZVkf0qqcUUhLE0S5YiDb2+f3oaG+AU2qsGhpaVFTq75ndIMq+L3mPpErCYKFfHbsx2dJq6FgUKXdYabnvGN6Lgam52Jhei4GpudiYXquNAwqVCj7QbEagwoyAKNUxt//V0fiwlXH6IEaN3V24ZLT2/Gt+/+sWylYpCXAaarCblX6t+7tTano//uDz+oKvoy/YG+tIJ+zggpnHr9Uf48EG7bs6dXrEfLaFX+zUs9nCirI2A5WiwQhrSquOe+t+PEjL6FrwOjLJ79Z1l2NMgUVhBTicvVgcGBAHYP6dGE/0N+PYVXwy/JwJIxYNKrzgZEVWMhnR/ovGoV1jdMJj9ujrw7IlYM5TU26cJ+rpsY5c/Q+8Xq9+qoBC/nc2I/PcjVMt7wZHWV6zjum52Jgei4WpudiYHouFqbnSsOgQgUzDnBx7B6cay6pHlMFFazlFgkWTBVUkG4NVsDgjsde0a9ZQQUJHFjdFnINKljvb2nw6fdZ7F0grG4R1cYKKtTVSYHig8fj0QWJFPTBYBAjI8MYHBzCgCrsBwcH9XNZHglH9Hti8VjiBIGyowt4R40uvN0eozliXV29bn44RxXujY0N+rnVFFEKePkMC/jcWMdn62qYnJwyPecf03NxMD0XB9NzcTA9FwfTc2VhUKGCWbtx10D13eFgqu4Pwlp+Ytt83f1hsqDCP615K+56okN3m7jq7BP0umU+Pahg7/4gMnWj6BkMTPge+Q2fPPN43PzrjTroYI3ZYK2/2qQHFbxeCSrU6IJ+bGxMF/SjIyO6K4Rx1WBUX1WQkwAp5OMxdWIg/1jOZ0XKaVVc61GXdSGvCnG5OuD31+qrB/XSakRNVgEvY1zwqsH0WMdnKy1bJ65Mz/nD9Fw8TM+Fx/RcPEzPhcf0XHkYVKhg1m6sxqCCsForSFcH6arQrSrzkw3UOFVLBSsYIGQQxjqvG1eriv9X792QUum3WhjIuruHAvq1E5bN14GIzbt7UpZbrRvSWyRIywoJYgjrN8qYDtUmU1BB+t4JKcTD4bAu1IPBgO7bGFTzskxOAuRkQOcBNck/mpoU8FLSS4EthbcU4tI6xKcKeunr6PP5daEvy6wC3ircWcjnxjo+y6N14sr0nF9Mz8XD9Fx4TM/Fw/RceEzPlYdBhQonu7JagwqzrWcoWNWtDPLBHlSQAsbjkZF/XbpAkbQthblcJbBPssy4amAU8nIwy+GQVtVku0pRrR9VAS5XD6Qwl6sE9okFfH5Y6VIerRNXpuf8YXouLqbnwmJ6Li6m58Jieq48DCpUgZ3943cyFR6DCjOXHlTwejx6QB8pYIQU9FKgWwW+DJYUVfPyXB/GzEKesqeLaynk1STb2akm2eZWwS4FPwv4/LGKW3lkes4/pufiYnouLKbn4mJ6Liym58rCoEIVYFCBylWmoIJTFTZSsMgkhyprkoLdKtz1IUwezfVQbuwFvUxSqFsFuzUZb2EBnw86vZqP1sT0nD9Mz8Wl06v5aE1Mz/nD9FxcOr2aj9bE9Jw/TM+Vg0GFKsCgApWriYIKUuDYJQp2c96Sw6GMbOyFt71Az7Sc8iM93TI95w/Tc/ExPRcO03PxMT0XDtNz5WBQoQowqEDlarKgglXIpB+uWLDnV3phzsK9sJieC4vpubiYnguL6bm4mJ4Li+m5vDGoUAUYVKBylU1QwcLCvbBYuBcX03NhMT0XF9NzYTE9FxfTc2ExPZenGQcV+voHmLlKHIMKVK5yCSoQEREREVFxyTl5c9Mc81lSamflKTidOb2dZkE8HjPniMoH0y0RERERUWmbKB6QY1DBZc5RqQoMdZtzROVjLDhgzhERERERUSmaKB6QU1DB7WZQodT17NtmzhGVj9H+3eYcERERERGVooniATkFFTxuN/s2l7iB7jfRvbfDfEZU+gYPvoHg8H7zGRERERERlRqJA0g8IJOcB0nweb3mHJWq/dufx67XnsboYBf7qlNJknQp6XN/57Po2/equZSIiIiIiErRZHGAnO7+IOTt/QOD+pFKzwlf+KM5R1Re7vrIPN79gYiIiIioxMi5eNOcxgnPyXMOKohQKIyR0VHzGZWS9evWYeGyk9C6uN1cQlTapPtDoL8TtbW1DCoQEREREZWYOnWe7vV6zGfj5dz9QcgKvewGUZLmtB7OgAKVlcZ5R8BXv9B8RkREREREpULq/ZMFFMS0ggqirtYPj2fylVPxtSw6ypwjKh+1TUvMOSIiIiIiKgVS35d6/1SmHVQQ9XXSDIItFkqJv6HVnCMqHy7fHHOOiIiIiIhmm9Tzpb6fjRkFFYRELqSPBfs8lwaHY8a7lKjomG6JiIiIiGaf1Oulfp9NCwVLXs7kpY+FjAbp9/kYXCAiIiIiIiIqI1KPl/q81OunGkMhXd4uD+of4fehuWkO6uvrdHMJl8vJIAMRERERERFRCZF6utTXdTcHVX+XerzU56dTf5/WLSVng/zMcDiMaDRqLqFMth7Irt8LUakJH3zWvKVknTqgGQPBunhLSSKqQk6nUx8DeewjIqJyUBYdmcfGxhAMBhlQICIiooon5zuBQECf/xAREZW6kg4qSOuEUCikWyiUSYMKIiIioryQ8x+5qBKLxcwlREREpadkgwpsnVB9AuExfOHnT+K87/xfYpLnsnw6eoaC+PgPH8Ezr+01l4wnr8l75L25mGjd2XzndFjb5qaHNppLiIioGkhAQc6HIpGIuYSIiKi0lFxQga0TaMWSFtz7+TW46bJ34s2Dg3ho4xvmK4UlFff/eezVaQcxCmlXzxBqvS5cdfYJ5hIiIqomElRgqwUiIipFJRVUYOsEsju0pQGHz2vEru4hc0n+nXrMYvzkU2ehpcGngxdb9vSar5SWoxc14ysfPBV+j8tcQkRE1YatFoiIqBQ5/1Ux52eNdWcHDkg0cz0jbnOu/IxFY3j81d16/l1vOVQ/yvNarxvHLJ6Lz97+Bzz60g789PHNOO7wefjdyzvxL3c9hV88tQU1NQ6sPLRVtzL48i+exvfWb8K2fX0YVc9PWjYfu3uG8LVfPoPTlh+C3b1DuOonf8Ahc+sTyxc11+P2P7yCvX3D2LyrBwua6vCPtz+mv+tXz72hv6+lwa9/k5Dv+Z36LfL4nQefTbyn1uPWy+U7D21twL0bXhv3G4V0Y5DPbXhtL36zaTua67wT/kZZj/V+WY8EWtKX7ekdxqpjFut1l6vo6B492rlMbrdbj35u3fmBI6ATESVJcEEuwPDuOEREVApmvaWCFIpsnUCZSJN/6f4gFWjLUlWhvudz56BnMIC7nujAF9//Nj3JvIxj8ML2Lmze3aOXve+UI9A1MGp+cnJtC+bg/X91pO568dW/PxW/feFNnHzEAjz0hb/Tj7f//pUJu0VIVw2p6Mt7gpHke+T3ZPqNMj2xebdedvXqE3FQ/S2TkfdvfOOA7g4i091PbcFzrx9Ah/o7rWXyuryPiIiqg9VqgRdkiIhots1aUMFqnSDjJ3DsBLKToMCF312La+98XFfWzzv5CPMVJAIMT6sK9Pw5tTh68Vw9ybwsy7R8OuR7pOIvg0VKl4jr3ndKxq4Hpx2zWC9vbfSjeyiQEnjI5je21PtR75u8dYm8fzQU0dtDJh2EcMT11SlrmQREpCsHERFVF55LERHRbJuVoILVOoHRdcrEGqhRWgl858PvSKnMH9aSbLVQSBeuOka3AJCuF9La4cZfPTdhS4VikCDEHVedrbeJtNQ45YiFeiyI01cs0a9brSCIiKj6sNUnERHNpqIHFWRwIUbUaaakhYBU9rfu7dWTzMuyTMstw8EIeoYDuuuEXPmfjIxXIN0Z7rjqPbjk9HZz6XjSikCCDd1qna0N/pQASL5+o/39EjiQW1ZK94eL/mOdfk2CDdNtkUFERJVBzqt49ywiIpoNDlXw5L3kCUciiETGEI3KFGPhVkQ7+5vMufIjlfOv/e8zel7GNbBX0HuGgvjnnz+BK/5mZaKZvwyCKFfohVT8pXWBkICAdF2Q8RfExW9fjhOWzdfrlq4V0hJCuirIusRtf3gF//7h03Vl/iv3bNDdEb7w/rfpQRCtCr+Mf2DvXmD9nuWHzNXfJS0avn7RKt2dwf47p/qN9t8y0W+U9VjvF9Zvsa/bGgsiUxeNchE++Czq6ur05Pf79YCNLpdryoHIorGY7lscj8Wh//FwQ0REVNHkvMDprFGTC263Cx737A1UznoPlat85qO8BRVkNcFgCEG2QphV5RxUqEaZgiXVKtegwthYFNFYlEEEIiKiKifnCT6vFz6fd9ILEfnCeg9Vopnko7x0fwiFwugfGEQgGGTGIqKCkqsAIbkFbZQBBSIiIjIq+VIPkfqI1EsKifUeqlQzyUczbqkwMhrQffioNLClApWrbFoqRMaMpoVEREREE/F6vair9ZvP8of1HqomueSjGbVUGB4ZZcYioqIw+isyoEBERESTk/qJ1FPyifUeqja55KNpBxUkUicjDBMRFZpuoRBjQIGIiIiyI/UUqa/kA+s9VK2yzUfTCipIHwtG6oio0KTbQyweZwsFIiIiypnUV2Y6xgLrPVTtsslHOQcVZAiG0UB+on5ERBYZQ0H6bvl8Pj2mQm1trZ6Xbg9ERERE0yH1lukOIcd6D5FhqnyUc1BBbp8yw7EdqYDicV7RpfIj6VYGZEy/fSSPN0RERDQTch4h5xPTwfMQIsNU+Sj3oAKb/5S0wFC3OUdUPuKRYXMuFY83RERENFPTPZ/geQhR0mT5IaegQjgSYbSuxPXs22bOEZWPsdED5lwSjzdERESUD3I+IecVueB5CFGqyfJRTkGFSI6ZkYpvoPtNdO/tMJ8Rlb7gwE5Eg+Nb2HAsBSIiIsqXXM8reB5CNN5E+SLroEI0GmXmKhP7tz+PXa89jdHBLnCMBSpFki5DIz3o3/siRntfN5emikZ5vCEiIqL8yPW8guchRONNlC8c8Sza9UgLBZlC4bCqDJgLqSSd8IU/mnNE5WXtVW2or69HXV2dvvvDaCAIp9M5bvBGIiIiolzJuURz0xzz2dT6+gfY/YEozUT5aNKggrwk96WMxYyr3cEZ3ueVCm/9unVYuOwktC5uN5cQlTbp/hAP7NHBhJSgwmgATpeLQQUiIiLKi7nNTebc1Hr7+s05IrLLlI8m7P4g3R2CwWAioEDlYU7r4QwoUFnxzTkMTl+r+YyIiIiIiMpJxqCC7uoQ4n1Zy1HLoqPMOaLy4apdYM4REREREVE5GRdUkGAC7/IwDRKAMYMwsxmM8Tfwii+VH4e73pwjoumQVoVS9khHIektJIOhSotDq1wiIqLqJuVCXLdAj6NGlRMyWWVFTMoLohlIBBXkZES6O+iTEMqKzoBqu0mmdLmc8Hjc8LhdepITO5VzMTYWKWoXEocj6xt6EJUMplui3MnJoUxSBvm8Hj15ZfLIvBd+nxc16sVYdEyVRRzFnIio2kj9LhaTul0cbpcLPlUuSPngUeWETH6fD7V+n67DyPvGIhH9GaJc6TN5jp+QG72d4jF98iaZ06syp9vt1iPVy+SyMq3KqHW1tXCqk7piBxeIiKgyyQlfXJ38STDbKoPsd0qRSeZlmbxWq8ohCTBEx8Z44YCIqEpIKwRpuWYFmqWuImWDfi0mwQYjeCDL5LVavx9+v09fNJXygigXjnA4HM+2u0O13/1BR+7UJCdyEjiQTCjLhgcDGB4KIhKJ6kwqV4a8Phca5tTC5/foz0pAQd9JQ61CTvQKZWd/9qPaEpWSmqGXePcHoilIWSItE+QKk3VyONg/gr6eEUSj8URe0a0Y1L/6Bh9a5jfqckvKK1Xmq7JqDC51AklEVG2q5e4PUla4nEawQMoFOe537etHYCSiy44aqYuoMiEale4PY/DVurFgUZOqv3gSZUVY1Q/dbqMeQ2SXKR85RkZGsm7jUu1BBWlCKidyEhSQDLdr+0F1IjeKOU0NaJxTB4/XyLiSQQOjQfXaAALBIA49vAXzFjTrDC6ZdGwsWrATOgYVqFwxqEA0OXtAQfJEb/cgOl87gIY5DWid36xO/lzqXeoNOrvEVZkVw0DfEPbtPYi5rbU4cvkSHfSWCwnBUEitxytvJCKqGtUQVJAWaW6XUwcUpL7y+pa96OsexaIl89HQWGeeU8lkVAGlRcPQ4Ah275TyxIP2lUvV+VeNLitCqt7CwAKlY1BhBqQZkPQ3khYKA/0j2Pj061iwaB7mL2pR2VJaLDh0xpWNKXlVn9M5YoiEI3j9tR1we+I45bTl+mpRIQMLDCpQuWJQgWhiuuWB7nbn1fnhpb904sCeYSw/tk2VL3JlSZVB0jNPyiFVEOlyqEblK4c8j2LH9r3o7e7BO886DnX1fqPFgirXeLJIRNWk0oMKMi5CjSoAJPgcCkXwxG9fRkNjEw5rW6QKBacuJ1Rxoiaj+idlhTR6q6mROkwMO1VZcfBAF/7mvSegvqFWt7KWOouUM0QWBhWmSZoFuZxGxK9rfx8e/dVLWHHC0WiaO0edwclVn7jKcHJVSE7epPmpdHFwwOmWR7WRVSbd8monAqMDWPPBU/XVpEBAKkzJvk35wqAClSsGFYgyk3IlOhbRAQXJD0/9/hXsfnMYJ/5VO2pUQRNVZZCUQ5FILFEOSdHidDnUiaADLrdDnWTG0LltF/bv2YMPfOR01NX7dDlU43QVtEseEVEpqeSgghz7pVW1lBUSCHjg5xtQ39CCo5YfhlhcWh6ociIUM8sKiULrOIMuIzyeGl1e1NTEsG3LDhzcvxd//9F3obbOKCsKUWeh8sWgwjRIc1PJoDLo4vDQKO689TEctqwNS49YjKZmH444phl/fnK/ysBOLDykFs88vk8HFSSDen018Pmd+jGOMfzpiRfRMq8Gf3/Z3+j1yuCYXp/f/Kb8KEZQIRAew9f+9xls3t1jLgFWLGnBV//+VPg90vw26d4Nr2FTZ1fG19LJe+96osN8BtR63fj6Ratw9KJmc0n56RkK4p9//gSGg5HE3/LMa3vx7QefnXCbZcta9xV/sxKnHrPYXFq+GFQgykwG+nWqfCCB7Zc2voH197+KVWe8VZ3s1SGsThADo2NqiiIcjiE6ZoylIN0kWuZ7cejSBgwOBhEJR+Goiapy6CXU1Ydx+WdW6xNQOVn0+WvNbyIiqmyVHFSI6K4KLt2q+lf3bMDrHcM47YwT1DmUG8FAFKMjY/pRggrSVVuiCnJ65ZY6i79GlSlOXW9RpQ6e/uMLaJ0PfPTTq3V3CmmxkO86C5WvTPmIIacpSLcHyZxy8nX/z57CwQPAnOZm9HWHVQZ0weN14p1nLsFfn74IfpUZ9+8ZwT417dk5hJ3bB9U0gL27htT7Q2hobMFf/rQLzzzxsq4oyVTOt/mSSvG9n1+Dmy57J948OIiH1MnuTEkgQdYn6z18XiNu//0rOohRDiRYIFMm8xr96BkM6PmdPUP6sRi27uvD2r90ms+IqNzoVgrqhE7Ki+HBUdx7xwZ1EtiEUKAGB/YFsHvnCHbvGFHzo5i/0I+WeT70HgyixunA2e9rw4lvW4jT3nUYwuEoerqC6oRxDl5+4QCe+N0mHawr93KIiIiMskK6yMkx/fUtu/HYb7bC42lGf++YqpeMoqc7CDjG4HTLoIwx1NbHVb3FgaGBMLr2j+q6yq4dgwgFowgGYnB7GvH8n3fj2ade0eu0yiKiiTCoMAkjA43pE6/Xt+zCU7/bjuhYPRYtacBZ5y1D21HN6nUYzYnG4upkrg6nvnORPrHr7w2h52BAneiNYO/uIezfO6Le58TQoEudFP4RoVBYNzmNRMq/9cehLQ06ALCre3xl+cJVx+A7H35Hzlfj5f0nts1H91AAo6HSP+GVVgO3/eEV89l4S9X2sYIJsp3keaFJMEaCMiOh7O7uQkSlR/rHWu10fvvQc9i3W64yeXGwK4TuA0HU1bl0ebPi+Lk4+32H49y/b8PStno1NaDGWYOxqDHAwtxWny6PggGok0gn/vfOx9V6jKC53JeciIjKl9QnrMr/A3c9hcEBLwIBF7r2h3Q5MjoSwKubBrB3ZxiDfXHs3h7E1lf74auTAALQ1xvECScvxFnnHomBgaAuKwZVWXHvT/+oW1dLWSEtIYgm4vx//+///as5P6WxKotQSZNTOZmTyv/P/7/f4Y3XxlTGa0FgNIbjTlqgB2jcv2dQnehtw8LF9fD53DhkaYPO2Jue7dIDpIQCEZWpxxBW8yMjYbz5Ri8O7N2nTvjm4LBlC/VgWTJQVr6adw8EfeZc4YxFY3j81d16/l1vOVQ/ynNpZSB/xXU/ewK/2bQdz7y2DwcGRnH3k1vgVtvws7f/QR3wHBgaDeOqn/xeByIObW3Qnxev7urBlj29OGPloWhp8OvnnQcGcOZxS/Him136M794agv29A5j1TGLdXeJ//j1X9Sy1/CGet/ajZ341XNv4EePvKgffR4XvnLvBtz3p2047vB5+vd9+RdP43vrN+n1vPjmQZy2/BA88Odt+PEjL+nfLJ+11i+Vcuv9sj5Zh4yQIX+HtAD4zoPPJpbf+/RrujvIU1v2pPxdso7fvbQDyw+Zi8HREFYe1qq21S7Uqd8SUdtRtt9/rXter0t+0+9f3ql/k/y9X/vlM9jw2l79/dZvlW1v/aZt6jeMqvWftGw+AqpycNVP/oCfPr5Zr0e282t7+/AHtb6Xd3Tr5ysPbcVND21MfJf1O+3bceMbB/CT37+i/ybZB/J++Q2yPQrNET6gBxaSSZp5S4VHCkjJG+z+QNUqHA7pMkidJ+I/v/4rDA02qvzRqPPJyavmY/X5bRgelmapNTh06Rw9CNe2jh51IjmEY09cqPvMyvTUY53YsX0QvT0B7N3Vj3179mD5yvk45ND5+jt4JwgiqgZ+f/bnyXIHt3Kh6xOq4j84MIz//NpvVJkxH15vA+Yv8qP74CiGBuK48KNH49wPtuHkUxdi1RmL0TLPj2f+uE/VbWJonuvTAYWhgSB2dHbjlRcO4sC+QTXfiVXvWo65LY3qOyK67CHKlI/YUmES0iRUKjVyS5XHH96sMqpDZbAgPKrCIyd5ck/wFzd24+nfd2PLK336ZG6wP4Sf/X8d6iQvgpGhCAYHQ+jvDehWC3t2DGKgf0xNcTz28PP6O6SyFJskWPPop36ClrnG9MmHzYU2O26513j9tA3YYS4rtl09Q7r7g1WRHg1F8PF3H6tbKMg9csXbjlqIS05v12MmyHgCp69YMuk4AFIZl7EYWlXFNqgql9IKQD4v3SK6BwOJbgYjoTE9VsFnV5+on0tl/Y6rztYV5qc69uDWj79bzz+kKv/iuvedgoe+8He6i8XBwVH928VBtc6r1Tq++P636cCGtDyQ7hzSUkLW94/qNbnqL7/FYnXR2LS9C5efsRLz59Tqz2f6uw5T20YCALvV90nLC/m7hPyd8ln5TfI9YuveXv3YNTCK951yRMpvfUF9lwQv5HvkNXmPaKn3q8+/R69HtpNsOwnGSBcVeS4tRiR4IEEDWZ8s+6/1m3RwRFjbUbZPvc+t/ybZBrItTitCQIGIMouORXU5cWCflDMHVTkUx95dI7pM2fxyF3a+2YetHd1Yd38nnvxDJ373m2147JHdeOaJA7jnzk148S87ce9P/4InHt2JXnViuevNAVUGRTA0GMefnnhVX9USciUqqQu3npYse8ZP9+LWsu1Vpf62T+WrvNyMT5rbxF4+J8rlXLbVw+vN96/Ho+YiIqJsSXdt8fLznejvj6myIobdO4f1BdKD+8P4+D+uxNIjGlUZ8Tr+58eb8MyTO9B+XCs+cuWxujs3aiK49pPr8K/X/Q5P/X5voqwYGXLgL38yxjuT7hVWmaEljlvm9KnN5gsGex2mMo5tybLx1Fu6jEVZHrtLob5WaAwqTMLqO9TbPYCe7hCCQQf6eoI4/T2HIKwqg5KtznjvUlz+mbfgbW9frE7K1AZ1OuGt9WIkEFXTGEZGxjA8HMZAXwDb3+jD8KDcTtKFN7bu1ydxcrI4cQuQzbjvXnNWue9XqZl1tknl9sLvrsW1dz6uK9fnnXyEXi4tAloaxw/m8rfHLtUVb3n9PFUhzkQCErI+Wa8EKj727pXYqR6l8iwBCVku32t1JZAKsFSoLdJlotZrdLVoVb+hpcGnH4V0qZDXvvDzJ/V3SEXaoq/atxhBERlUcW/fsK6Yy/defuvDOhAiAQYJAgh7RTtTt490+rvVJK0H5DfINrCWy2+UFgHyPVaQQMi2OnrxXD0vv1XGZHj6tb2J5TLJvJB1SNDhov9YlzLYpcUK0lh/54nL5uvlEjwQ1naU9Sw/ZK5+rwRA5PdZv6EYpLDSg6OmVHCIqpfkBckXO97YD5fbj7GIA72qHNq9YxDRiBMjw1FVFkkruWa85bhFempZ2IAarwfLjlyAJYe14HB1XJSyqad7VJ1kDiCgyqeaGi927TiYOEHMra/sEL5ychkGFjo34NS5D+ErL5nPC0F9x0VftZcJDTi6zZwlIioA+7nTnp3d8HhqdVlR11CDFzZ2462nLkDjHD9+9F/P456f7sK+vTH8961v4LfrtmHnzh5VX4njze0BwOHGQH8U+/YM4mCXdNtWpYvHj727uhNlkVVmZPRSv63C3IWthTzWUslhUGESxn3B4+oEblA3DZURVaV1wj9+9BH825eeUq/H9a0mV544TzcvHRgIYMebvVh0eD3ed9ExuOQfjlWVwbjKrDHs3TusWyzEHQ541Mne8JD0cTIzqHrM6OE3cZ85q6Vk1tlnDdQoV8ft4yakV/TTSeDAGrQwnVS25Uq6rPOez52TcucHuTovy2WSK+9CrvhbQYSpyFX5y2/9rQ48yHfUZfE5+9/4k0+dhea66XcvkUCLXPmXv9FvfnfvcBAf/+Ejel5aKlhBglxJK4Sv3LNBtzaQVgi5sm9HCZhIAOXpLXv02A8SaCgGuRuKTDLCsExEJJX9MV1ODKs8KWWHy23c/nGfKlPO//AxOOKoFlxx1VvwD1e/BQ3qpHHe/Hp84rPH4rPXn4hTTl2sltXilFWH4tPX/rU6eRxUJ5oxOF1OfcuxUHBsyhPFo792Hnp6P26bzsPX9SFmCF+5sbQC3VPZsW4XtprzBbO13/yOxbhHb6/VOFM/JyIqDOsYLlMwEFJlhRsuTw3qGpzY8uoAlixtwN49Q3jqyQFc/qm34HNfPAFnve8QPPjQPpz8tqU47q2HYOeeCPyNPgwMjWHXbgmMyu2IXaqs8KhzMqMckvJCzRhfmqIBR0u50GEd/0Q3Xhp/jYsqGIMKk5DMozOQInd5cJn3+x4ZceDFTQPqtbjKeP3YtasfcmeWhx/djVDEiaVHtOI9q5fitNOX4CMfPw7/9p/vxtEr58HhknvAOuFRlW/J8FOdzD36K/NOAu0qs8pjxy6sLeOB/O947BXdCkDuhCBjEVhX/adiXZGXq/TSJF8q4RPdZWEyViBDrtLLvL2lQjqvOnGX4IO0lpAWAFJplxYO9u4PuTqspQFPbN6dMo6EBBVkm0hFvmc4oOcnI++T1gzSRUImq2WDtJawWiFkajkhAR/732O1ULBaLNhZLRMefuFNdn0gmmVWGaHLDm8NXF7AqcohpzphdDhqVHkUVa/LmAs1iI7FIbcKmzPHh8OWNupWDDKKtzweevhcHHbkXNSo9RjrcsJf69HrlrIo+2FL5mPNReYxrMQC3cW3Aj82gy0/NnqvTd/Zq82gDYMQRJQb3ZXarFP41HHdrcoJGXzR4VR1GfVaKBxTUxxBh1fVRdQ5484R1Hh9GIrW6+VxpxNhpx/DIQe6+lSZ4nSrMsaqr7hQW+dLlBWZC4sGHHecPA5hq1VPMS+MHq3qMJVjPq562jjmP3P1+PPnasegwhQkA8nVH49PAgvqZM7j0CdlA6NxfOMbf8bVn38Z//yv2/D407vx5v4xtC9vxur3LtEneLJ5z3rvMixYOAcDw2PqsyqjSwb1OdE6v0FnUGlymnkQumTXhwu+fAY+bF4Z+vk6sw9PmXl2235doZaxCf75/W/TldtbH37BfHVycqX8ir9ZqT8vXQSkef5k4zFM5ARVgZaKt3R9+MnvX9bLJmoxIaQ7h/X+B//8uu6K4XNnbt1gdRuQbhISgMhEKuty5d9ekT9yYRNOPmKB/py0NJDWE5PdclL+bhmPQt5/91NbEneRkO4ksk2le8gO9SgtDVTy0oEE6Q4h3SukdYd8l/w9skz2hb0liMX6W6xuFkQ0e6wTudYFc1QZFNPlkMvrgEOVQ5ZwRMoS6wKSOoEMxXQwQU7+pHyJxx0Ih+JoWdCgPuvRJ4keXw0WLG7W69bjBzlmeDqguxZYfWeNKWUcIKvfqfQnTXlvhm4U417PNHZBclliSuvPayd9e0+yuiV0bMZJKevKMIaEfV22PrO3JsZLGP+7dJ/Zi62A915cZF9Pttsn0S/X3nd3Q/JvTfyutL9/XD/d3LYPEZUvK6gg04LFTfB4jLIiMhZDbZMXmzv6MH9+PZYfPw//ecde/M+Du/HQ46M4/V2L4HY58dqbQTTMm4N9/TVw+OpUPccHt5QVqr4i61l0iFFW6NsbZ6yzAMetkODBEF4ymyrs2GYcb487LlNQYYpjru349Ul1/LOOndY4Binj1sixb4JxDVLHt0k75k4ksS5zSvldGcZUsJuqbBsnfTuU97gTjpGRkcyXyTMIhqrrViID/f1wOmtUJorhC1f+j3o+D+FoM0JRLyIOP5yNDfDPqYOn3g+Xz4XDD/XgG59dok/etm3vQyAUwYqj5kPGKrz9thew7oHN8DgDcDkOYtW7WvCJfzoPo6OjaJzTpEe7TyGJWp+cSBPK1ThaZQx9QtS+As8/vQpLjXfpDGNf7uhvMl8hmj4JQohrzztZPxZD+OCzqKur05Pf79cVJKfLlbgDBFE16u/r1eWDNGm9/pM/RSi4SJVB6gTP6cUN//nX8PrceryE+a0NcLkkgCCjgMclnqA+J0EFCY4by/7tW0/ihWd3wecaRQ324SP/cBL+5r0nY3h4GPPmLzC/UciJzkP4SofR/SH1ioyc7G0wuuZduAo9P1yRuizNBXebV/ETZVoG9nJNTspO3jxhNwVjfRN/3/jfa5CgwkW2MYqE9dsyvaZZf1+m365/cxP+zfwdsq5/2WaWx3Z6Hchh+xhl/pm2fWA3+d9vfTb37UNULeY2Z3+e3NvXb86Vvp7ug/D5fHocuP/3mXsQix+GSLwRh6l6yK4Dcfznd0/GgoX1ePjJfuzuimJ5mxfvOrkBW98YxHdu68KhrWN48aVhBHv7ERsdhNcxCp9zCA7sxhe/9T4ccfQh+m4Yra1yJzST/bh1N3CRmreOMcZxtQFf/1oDvvJV+7Eti2NuxmOYWtfGC7FmXYbjbELyOxL1ozSTHQMn+kzyd2UoGycr28zffFXb+Pra0gmO8fbPlLJM+YgtFSbh9sht7SLqRM2JlScdArc3DK/foQMIrjovvA0+eBr98Db61ElQPb75j0sgYyuMjcVx5/oR/OB/hzE6GtEneR//hxNwyUePhc9fA483ihNOOUItN1oqyC1g0iW6Plx4uM4cS885tCK6QFBps7qXyF0iJhpMk4iKRwJrcqswr8+DY9+6OFEOxWtc+Kd/3ox/+tft+P5dXXpALWmtIOWPTPJcHmWZ8VocTrcb3lqPKoeA2roYjjv5SF0G1dQkWz2k2/rVh2xXUWSyTvTUyZs+yZKTpZeNZXLipZvwr8IF+hXgpW3jr+bIyZh+391mizNbufbojVZAQU4OZV3WGA42ifGGrPd8HM+rE1ex9asbM17pOfOHyffokzr1GV2Z79yAr+iT2+S67rlQnisZunckfrstuG9ZevWFyb/JWp/aRrlun/GSv80Igpj7wPw7kttoL74iV8+msX2IqLy5XG7d6qxpbgOOWTlP1TUiqrxwIhIdg6+hFt/+/hvYsrUHf/vXjfj4+S3467f48dxL3bj1gX60tPoxEFT1kzpVr5Gp1gtfrSov/HEsXlKPw9sW6nW71XdM6OgmXU/Zurlb/d8cpLH9UKw5Sl60yfGYmzzOSUV7M/7NqvRbx9ONK4z6kZ36DmvAXAnE6veZx+aJj4HJdY8ro+59ObuBiccd4ycee2jHLY+ZAYX07VB+4xVZGFSYhE+deVkDxq06Y4XKoEGVwaLqhMypm466PE7d56jG5cSLr0fww3t3IaJO4jweBz7yvnm49PwFaGyUwEQcd9/zMn77yBvqxFCasXqw8sQjzICFK0P/JFvXh/cZJ21oO7Lsu0BQ6ZOuDzIgZfogmUQ0O/z+2kQ5dPqZK1U5FFBlkDpJrHWqMsoNl9uNUAR4cctB/OXVLmzqOIg39w7oVgtG1wdV0NcYLRakzPKrz8nJ5ltPPRzN6uRT1u31efX6s2WccCX7/uvKtJwUmUEGoBXHpQcCEhbj69ZVIvMkNClZ9h39tZPN9c/HVT/LcNKo7cVFZrP/xG+w/a6stK3CM2mfO1o3482kAR8+J/er/LltnwzMiwuG5IjqF3zZCmyobfRl84T5ntdtJ+V52D5EVBZq62oRCAT0cf9dZx8Lt3dUlRVRHDgYxcL5UVVX8eI7t/fi/32vE//239vxL7fuxI9+FUFDrRtORxA9Qx5dVniknPC71CQDy4dwxnuPRY2zRq/bXzvJYOJtTdDDKujAgDlI43FN44KvuR1z1WsXHZlcRyJg2oCvX2fVj1bhHitgbLEGzG1fgX+R4LE4++RE8PW+TN0gOvthHFptZVTiM8luHROz/Sao77V+0wRjD23dbAUwrLIOOFN9Xpd1975ZlsFfBhUmIc2uJfInlf9lRy7GsW+dD6/KpLW1Mcg5mNMRA8aiiKlJbt3ycqdTPRpXhk482o8z/6oBMblLlzqZ69gyDGdNXJ8QnnXe8SrTunUGra2rN77MznbXh/sutq4OJZvIpJ40EBFRpZLAs9PpMsqhow7BCX+1UJUfI6iVwIInBlXqoEudNP7ovgB+9EAYP/6/CB75c1iVN8lgtQ4ouBzq/YDfF0Z9Qxhnv+9k3UdWggp1mcoh07grNopxJSozow9rpiadGVgnoRlO2I47ylZ5T7zPdPbhiSv91vgIupyc6ZgBZn/YiZvWzvz2kDltH9PRK1rNOZEcUT15fqAme/PbQm0fIipZbrcHDlVvkRYF7ccejrccP1eVFcOo80exZ6+qpwSHcMTCMBr9DlW/caGp1oFDm0fQ1zuCvV01iIXCcEQj8LiiqPXFVH0ngEOX+vDX73iLXqcMDOzxqEJkQmawVO4AYVbQU49dGUx5zE0rCxJSj8VLj0oNKljjOaQc/6Y67ibu3GOXHJhRt2yb1AS/KeWOGJZkcDilNeAkXf/KAYMKU2icM0ePeyABhnM+cDLmzAnC4x5CrScCr0NlwLEgYsEAxgIBNLqD2LN/EL97aheGh6NqiuGFl/egq6sPhx/mhNs5iGNWNOJtpy3XJ4gSbZD+T+kSXR8mwi4QRERVY05Tk1EOORxY/f6T0TovosqTfvhVmeN1hFAzFkBclUPRwKiaAhgeGMHrb3bj9e3deGP7QbzR2YXt2w8gEhqA09GLNR84Di3zmnRgu76+QV/ZmtLZq5PdB+7dkDrglXliKCdFk50c5o/cdSHZhSBB/a7xAxZOxTZQVqFO6Iq5ffQJbD63DxGVi6amZoyMjOjx4M79+7ehpSUEd00f/K4ARgbH0NkZwbZto6quPYCtrwfxxpsxDPZHEVdlQU1kFJ54EL6aEDyqvlJXO4wLPnKqvo2xrLNpyrEo5uNo6w4Q64yKdOaAQBGOuVPIrtvZbLLdRaOMMKgwBYnKeb0+dfI1qjLnHHzw0pNR6+uFC93qZG4InpjKvOER1IRGsG/3KL71/Tfxy3UDeG7TAXS8dhD//T/b8Z0b/oRNz23BIYfE8IFLTtUnhiMjw5jb0mJ+i529+ad5hSgxJfvosAsEEVF1kIEapRuEBBbmzKnHhy4/Fa1zVbkTOwB3rB+e6DDcY0NwmWXR9jcGccMPduLG73fixu9txU3/+RJuvvkp7Ox8He859wiceMqRiIRDkEGI6xtSr/BMZunVxyYqqvddnBylOqtxEHKUctKXaJZql7ydo70VRc5B94c3Jq5eWX1vE8GTPMnv9kl2nUj0FU6ZrCbFedo+RFQWZJw2XWfxGXWWpuZ6XPyxUzGvVZUL0f2qrOhTZcWgmkZV3SUEVyQAZ2hYlRtqUuWHlCHuaD9qxg6gobZPffZtWLR4LgKq3JF1euQ2EFMwujEMmQMzNuC4TP3W8nLMTa10J1ommBKtBBLjMaROGQdqTHTHs687GQDJeLeHFBP8pvb0bn7CCsBkquvJVPoDNWbCoMIErNt4ySBWcpVIWhaE1UnYsiMW4SP/8FdY0DoER3g3nJEulRF7VeYcgDsyqJ4H9OPd92zBf9/2F/X8IGoie/GWt3jV596O+nofhoeH9NUhp9Opv0O+K8HWX2h8380VuMAczIRdIIiIKpe9DJKpobER0VgUwWAACxY146OfersqV5xwRHagJrwXznC3OjlUZVG4T01SHg2ocqlfL5fXmxv6cNGlx+O005cjFh3D6OgImufOTXzHuLIoI1s/UWtQQFszzmTf0GQT/dzYyrjEYFrqpO4jqVezjC4EcqJnBjbOXp15sK4sJE/8kn1vrb6u+ZHP7SOSJ6P3fSPZ6kBGU9fb5FOb87p9iKi02csK6abQ0NCIiHoMmWXF5aqsOPEkH5xjO+EI7UFNqAvOkFVe9Op5Z0jVVUJ7Vb1mB5YfE8fHP/N2LGubj2BgFGOqvGhsnKPXPVVZkdoNIXN3sRkdcxNdu2yDGXYmB2VMsAIEHZvxb1arukSLsQlu9Wjrjpdc9+v4uT5WZzOejn2ARdugj/YxIWyscSTsA0cmjt1l2qKMQYU06ZlTggm6z2l9g25dEA4FcehhrbjiqtPxt++Zj6a6A0BwOxxBlVmDu1ET2KMfo8O7MTa8E0sWDuLCDy/H33/4r1BX58HQ4IDuSuH2ePSI3mNq/fJ9lkTXBxkxNUNmPPN95hWHCa42xOMyiANReYnHk3mAqNrZyyEpg4LBoG5+KoMHSzkUGB1BU1MtPnjJX+HSjx+HFcuj8Dl2qrKoU5U/b+pJyqWacCcWtvbiPe+dj09/7p1YsfIQVeaEMTjYD5/fGIhY1i3fkW1gYenVZySushsnQ8lKbrJvaPJWYJONv5BJYqAqGWRQr2t8P9hkiwnrPWqymtFOUHaKZB9Xo5+tXHlKXybrStzqLGNf2Fzld/uIxDYa95uNgcKmu32IqLwk6iv6wmdYd2mTWwRLq4Ih9TiqyovGBj/+7oNvxT985hSccooHzfX7ddngCL5hlBmhN9Do3YPj1XHqo584Hh+67FS0tNTpsmZYTdJaW8ofq6yQutGEZYV98N2MV+jHH4dzO+baAtvSnct+bLNrW4WvmwHqxNgz1vsuPHaCVgAr8OPE3R7S1j3hZ9JYn7PdJSkx6GOaTMdpq3tcchDe8sKgQhrJJFZAQU64JHMODAygv79fZaYx9PT0YGR4SI+M+s53t+Oqz78Ll318Jc74mzk46UQHjlsZxSknu3D2OfNx5WdPwRWffgeOPe5Qtd4xfb9xyaCyXlmftFiQe77KdxlsXR8miGzZm+dk6gIRGJpiPAaiEhQNDZpzRKTLITOobZ0kSpkh5c/oaABdXQdUedKn3hnFUUcvxIUfeRv+6YvvwhWfOg4fvOhwnP/BQ/Hhjx6Df/zn0/CJz74Db3/XMarMcqqyaxD7D+xXJ4ijan1GuSbrlu/QgQXzZHFyyTsN6JOhT23GmT9Ma84vTU4TJ2c5jmItI4OnXFWXLgPp4wNMMGaA3M4rw60eExIjeRt0hd4+VoQm9wi31j3BKOE5yuv2EXr09PS/X7aT1WR2mtuHiMqKFVQIq+O3dI8bHBxUx/U+HDx4EENDw9i7by96ervV+8aw5NC5OPf8E/GZa96Fz33hHfjEZ07EJ646Af/0z2/HZ//5DHzgopNxxJHzVfkTQW9PN/bv36eDCd3d3bq8kbJCvsMKQmcMKtgH1c105wcxw2Ou3Mkm5fNyXLN38TKl3EbYpLsaJO7Ck4G06kpfl6x/ss8kqGPwuLJrsrvtyHE6vSucbItsBoUsTQ6VYKZq75gQDIXNucplNe+xruBIhpJMJJP0Kwqq5Q71b8GC+WhubtbRQBltVej8Jf9zGLfvEnKSNhoYQdeBgxgeGdJ9Y+VqU21tLerqatVjHRoaGlBfP/Ho27l4+s+v4tBjTjOfEZWHkYOb4cawyhN1evL7/ToryT36pWVPVgPJEVUIfZIYDusySCr8Ug6NqBM6/ajKoVAoqN/T2tqKRQsXwuev1XeJkNG5JadYhbqc9ElXBynPevRJ4gHE4jKqtw91ugxS+U2VPVaek4GDZT1STpWWzfikvvIjJ1zl2deUiErD3CkHHEzq7es350qTbvGs6hlSTkg9RcoIqfxLK4PREVVvUWVILBZFy9y5WLRokT7eu11uVW9xJuopcq4VV++RYIF8bt++/ejr61PnX3LbYr9RVtTX6W7bUlZI/UXKCiknpBt3SXh4vXEHHAnYMnBaFJnyEYMKaSRTySQnc5JBJXNK5E9aFUhmDYwG1HYIYiwyhvqGeiyYPx/z5s3Tg2jpzKUyaTwW1+sYUJ87eLBLRwzlBNDr8cJfKwEFyZz1OpggkwQn5syZY/6CmVm/bh0WLjsJrYtTQl9EJWukdzvCg28mAgpWBYdBBapWVks560RxaGgoMRndH6QcCukmr3L/8ObmueqksVn3e/V6PTq/SBkkzV/7evvViXEPQsEQXBLU9hrlkNxG0iqDZJITRcl3cqI4+W3DCkkGxTK7O9hPDq0Tximv/BARTa6iggqqHJBWCkFp0abqKPayQsbNkbIiFA4joibR0KjqHE1NOkDgleO8OrUKqbqd1HH6BwYwNDikyw+X2wW/zz+urJC6i5yjSVBBygkJQheVjItgdkmQVgfWgIsypozuQpF1qwKaKQYVsiAnYnJCZw8qSGbTkb9hlUHV8pCawpEwomPGAFpy5UdOxGSSCpAsl+ihNEuSQINUjNwqg0qrBr/flxJUkMwpQYXGxkbzF8yMBBXEnNbD0bLoKPgbWvXVK6JSImMoBId7MNy7A2OBg7qAYlCByGBvqWBdfdL9W4eGMapOHmWwRjkRlKCCDKIld3HQfVxt/Vwlz0grOsk/cnsxl9OlgwoSdNCt5VQek8C4nDBKnrOuPs12SwUZqGrC2y7yhJGIZqiSggr2C6GJVm2qrJD6ipQV0qotHFblRKKssMbOMVqyCSkrampkUmVFjVOXAbqs8KiyQpUTumW1mqTeUmuen3m9Xl1OFL+lgi3wnIHcTaJcuw6UGwYVsiAZTros6MifyqRWRrW6PkhAITImmXgMMXmvGVSQzGnvX2RVhCSD1qhMJ5nUozKgDNDoVyduklElY9aaUUDJtPlgBRX2xBdhw644OvaOpvwuolLgUAVY+6JavOsIN5Y3ygB0DCoQWeSkT04C9QjeUu6oSa5EWWWQlE9yIillldwRIhYzyh97OaSDCuYkJ4xSFhkBbrcui+QWYdJqQcoiOUHUJ4nqdXnPbDdpzRhYYECBiPKgkoIKVp3FKiusYLRVboyZ9RVdV5FJAgryL0NZUeMwgtBWncXlcqryQm6rb5QPcp4mj9JCQcoIeY+8v/gyBxYYUCguBhWqgAQVNgUOQ2N9Hc4+fj6OXlRnvkJUWrbuG8FvXuzCaCCI9y4LMahAREREBVVJQQWi2cKgQhX4xe9fwXHHHIaVS1JHPCUqVS/tHMTruw/i2HkxBhWIiIioYBhUIJq5TPmIne0rzOKF8xhQoLJy3GGNaGnKz5giRERERERUXAwqVJi3L59nzhGVj1XHtJhzRERERERUThhUqDAuJ5uJU/lxO3koIiIiIiIqRzyTJyIiIiIiIqJpYVCBiIiIiIiIiKaFQQUiIiIiIiIimhYGFYiIiIiIiIhoWhhUICIiIiIiIqJpcYyMjMTN+SkFQ2FzjkqVA1nvzrzY89tnsPox4JrPnYpLF5gLZ9mTdz6Oz2AZXrzsMHPJRHrx0xtfxs095lPRMh/rr2vHIeZTi/47X2rK+Fo6Y5vY84qnpLZPqdq2bRvq6ur05Pf7EVdJ2elyoaamBg4H72pCREREMzO3ucmcm1pvX785R0R2mfIRWypQeXlxE774ojmfLxJI+M478eLn5qOtpwuf+W2v+cJMSCBBrfM7x+KaljBu/mkH9pivlLxCbGMiIiIiIqpIFRdUiMfjVT1Vtp344i8GzfkCWLAA728BOvcPmwuSDnnPqXgxi1YK483Fu4/zAD1BdJpLSluBt3GFypQXORV3KrRM38kpf1OhZfpOTvmbCi3Td3LK30SUKV1wyt9UDSqm+0P6DquWHZjOWVPcZuLJ7g/HAD99GQ/Cg84eSSceXPOhJjz4iy5Vmbaa/6sK6xe2Y0uL7T1Wt4ADHXj/f8h7lUQXBPv7gfPbwnjArJmv/tA78e3jjXmR7HLQiNXtg1hvdX94cROOtyrJ7eldIszuD7C+z3w+X73vhB71uSDaWsLqN83H7cf142PS/eGsIFar9bWdcSweXLhDrzvzb0l2CTGe+/D975yId2T4Pfr1l4A2tU062xfgmq4DU2zHtG4b5vaCXo8Pq6H+fnkt8ffa35+6L9DeiPUd8nuM5csefhyf6ZD3jd/GhVaO3R943Jl96Wkj32mF+7iwuP/KG/dfeSv0/itF7P6QinmssCo1j1Vk9wdJ/FYGkMdYLDZuikajVTPNtk6oirfV5P8RqIq0Of/wTvMd6j3zD0nrFqAquBJQkErwd5ZhdU8XVt+Z/v5T8dVPqNfU8/GV3Z34vgQU9OdbALNSbF11lwCA/r6u7ZM36z+gKvOq4t22sN5cEMbys96pWygsNJfg+BOx/gxV4X/sZSM4oL5z8op3L37/kvptLT60TfZ71Pe+X7pLXDZfP51qO777UulaYXXZ6MfvD+jFukVEu7z2oUa1HXrwpFq057ev4eaeRrUOWe5L6YqxHi3Gb1HrfvCFXrzjsom2MdnxuDO7U6btbd8f1vxM2Ncjj5m+M9Nv4zT1lGlb2re1NT8T9vXIY6bvzPTbOE09ZdqW9m1tzc+EfT3ymOk7M/02TlNPmbalfVtb81TZ7PtaHjOli0zph9PUU6Ztad/W1nylKeuWCrJTgjEPAlEvxuJOxFH5EdapLPT2mXPFMa6lwnHH4sH3qFnriv9lh9kGToRxddyssOrlHaqy+yHgM7Yr/onl32nBemmpIK0C3jNXfZt5dT29wmte/U/5vHyfbm2Q2pRftzDQ6xKTDNSo1xlMbW2QGKjR+B3rE1f9zc+ajG1izyvm+/bbWimY5Pd8H68lWzKYv2ny7Zi59cG7X7D9xsTvN/ZLyt+I5LY1tqW5Lv09qfuomMqlpQKPO7MpDmc8DHdsFG4EdLqQSdKIlU6sSViPueI+LhTuv/LG/VfeirP/Sh1bKjCPFU715LGKaqkgGWI46sfgWB0icRczRAVbvtAKAkyPBBv0VX01JQMKNtZAjTLpoIHFh2WT3rEhjI795uw4UtG3vjc18JDx9+iWDFmSriJfMAIPuqWCuXhS9r9RBy9oOnjcmW0ORB1eBJ3Naj/UIhAIIBQMIhQKIRKJYGxsbNwVgVxxHxcS91954/4rb4Xff1T6mMcKqbrzWFkGFWQnSIRtNOozl1A5Wf+CNOHvxfYu9SCV6eNbdJN7Y/lOrJfuC+0t2Vd8M31epC3/4hcez8tdDZ6802il0Nai1v1IDnd1yNfv2S+DPnrw/hPmmvOTsQaKNLpISCuK428soztRlBAed0pL3NOEkYgTQ8PDGB0d1YV3OByeUaHNfVw83H/ljfuvvBVi/1HpYx4rnmrMY2UXVLA2vjTZofK0Gj04/gvSJN+Day6VlgGH4dtyxb1ju1quKuxyVV038U93GFa3q0r5Lx7H+1Nu+6g+r8cQkM+r6nK7qkSPW67WO+X4B1l4cZMeyHD1h07Fg5cat6BcbRv/YXJ5+j3HLzXGV/iPx3H8I0G0TdpiQu5ccUzi/bqrit7mE5loG1c3HndKU9w9B319fRgcGMDIyDCCweC0C23u4+Lj/itv3H/lLZ/7j0of81jxVVseK7sxFawNfzDcxCY7GRR7TIXcTDAmApFSymMq8LhTmuKqUN7y51+p9FKL+vp61Ku0U2umH7fbDZeZfsRUaYj7uPi4/8ob9195y+f+KyfVOqYC81jxVXIeq5gxFSRjMEMQUTHxuFN6HKow7unp0VcCBgYGMDwygmDQaGJoXQWwTqSywX1cXNx/5Y37r7zle/9R6WMeK65qy2NlFVSwNjwPcuXqMHz7O2ylQOWFx53S1t/Xj4H+fgwODmJ4eBjBQDDnAZG4j2cP91954/4rb/nYf1T6uB9nTzXlsbJsqUBEJU4OjtEo4uGwnogKZWh4SBfU0l8xEBhF0BxlOWbeK5pKG/dfeeP+K2/cf0SFVU15rGy7PxCl03c2+MLjOD4xcGIvfnqjep6Huz7wrgkTiz3zDCJf/jLCF1yA0GmnIXjiiQgedxyCJ5yA0FvfakwXXYT4q6+anyhPPO6UJon6y6jKMgCScdsmYxCkqCqsZZ/lst+4j4uP+6+8cf+Vt3zuPyp93J/FV015rOyCCswQNKkWD9q6RszK/zA6evRMUTx55yY8ac5Xi7EHH0T4E59A9P/+D7HXXkN8cFAtHDNfTZKAwtjdd5vPyg+PO6VLIv56ChuPurA2rwBY+y2b/cd9PDu4/8ob9195y9f+o9LH/Tg7qimPsfsDVRgfliOITpk9MIItEmTQywvMvNVktYnecYc5lwWXy5whyp9YLKoKaKOQNqZYsrDmSVTJ4/4rb9x/5Y37j6iwqimPsfsDVRgf2ucHsf2Amt0fROd8CTKYDnTg/dI9wpze/9tetdDoIvH+OzclXkt0lXhxk/neZ/D9/eYy5ck7k+s4/gvSOmEnvviLQfXKID6jnyv270p0m5BbaqrvulG6aTyDWx6QR6t1g/k79G8qI11d5kyaGnVokSCCzwf4/ah529vguvRS88XyxONOaYrFjOaDsbgqpM15q7CWPZbLfuM+Lj7uv/LG/Vfe8rn/qPRxfxZfNeUxtlSgivPuE3x48IVe7NkfRNtCValNWIDvf+edeFFN68/woPOlA4kxEjq7fPq177cD61+QMRlUJf+RQaBlPtZ/5xi0d1mDDfai7WxjHS9+ZxlWYxDrXzwM3/5Qo3qtUa3jRLxDggf/0YXO9mXGe3q6sDoxzoP6rvmHqOWn4urTmtCmP68WHjiAB3s8eP8Jc403lYsFC8yZJOeFF8L34ovwbdoE33PPwffss/DcdhscRxxhvoMon6SA1g8ypwtqYymVB+6/8sb9V964/4gKq3ryGIMKVHkkkLB/GJ37w1i+sM5cqCyYi0PMFgSrH0u9I0HbcQtwiDkPGZNBV/Kt5XPx7uM85otqHaoebbRW2I715tIUL/bo5atPOEz9/zCsblcPHT2J8RbaFtYbM6pC/v4WM4ghrSpamvDu8XX0kub6xCfMuaTovfci8rWvmc+IikGKaqPgNh4rsbiuZNx/5Y37r7xx/xEVVnXkMQYVqPIsqMPyLlWx7/KgfaG5TNF3cPiPfrz/c0ZLhekxujB8BmYrBHNpLpYvtFojmMGKrhH89IXB1MBGuWhpMWdSRe+7D5GvftV8RkRERERElYpBBapA9WiXbgU9PiyzXfmXlgswWwPo+cmYrQiMLhK9+P1L5vtl8Ef1oFshmPPjHN+igw1GN4qdWC8DOLa34B3yWppDTmhCW08Xbu4ow64PSrxTD4mZUfSBB/StJomIiIiIqHIxqEAVyGwBkFaRf8fZ83UFfvUXHsd3u9TrPeZdIjKai0svtd7/Mjrmy5gJyoJ2fF7GXfjF47rVA1qALft7zUCCDNT4DH564DB8+3Pqsx3bjS4SMi7DZdIVIgMzeGEFO8pN/LXXzDmDY+lSc84gt5qMfOEL5jMiIiIiIqo0DCpo23HHGQ6sWGSbzrgZu81XC+2Jq4v7fZXqkPeciheva9ddCPS8rsirCv533olvH69mF7TjQXOgxgevU6/rQRXn4tLr1PP3GK0E3nGZet1ch/39377sxMRy/R69/FS1HuuzxvfIskslOGD7bGJ99t+Spiy7PijxN9805wzuf/kXfacHu+i6dYhcd52aiZpLSOd5dZy5/hFzQbrtN2PNohW4Y7v5fFLG8WvNDyZ783pcP9n3zVg2v6EasWypOI9covZjat7c/YMVatkleMJ8nkK/33hNvy/D/pho+dSY77JjHP9S9xG3HRFRPjGoYLf8JjyyL47NG25C25ZrcWWRCpvTb+nEdbgNj9q+7omrJzhBocqhB418GTf3NOLzZlCj3MS2bjXnDDXHHQf3zTejZtUqc4kh+vDDCF97LeKRiLmkmm3HG68Yc2t/nXGoz9mx/WZcn+sxT1WYCheoqCAsWyrHWZdgDTpw/2+sjbodj/6yA7jgEpxuLqESs70Dm/XM3Vibl+PVdtxxdbGDdbPxnURE2WNQIZNl5+MDy4HODukMXwzLcPljm3H5MvOpOlG/8j5znipXojWDtJgoTzWnnWbOqXkJJNTXw9HUBI8EFt6R+lfFfvc7jH3+80AwaC6pUtsfwP1b2rHmgnbgvrvyUMGT40ccaz9tHUAyWY0bVKX2hrPMp+OoE9aPXWueeGdrPa6/7G5zPpvfQCxbKkE72lP2YQc6tgBt7XKbn8kt+fRmbH7sGiwxn1Nx7P7NbehcfjHWqP2WDORO/5i1+wfn4EYzMFwss/GdRES5YFBhKroZcrLpqtFUzmw2d4Y0eZQmxcbz9OatRpPGFYnPr/nB+sT7Ek3u7OvXn7NO1O/GlbqpntFsz/guo8ml1XRaJusqobWMqJg83/oWXB/+sJ7cN9xgLlXq63Vgwfmud5kLDNE//hFhCSwMD5tLqo9xgnsFPvv5K9CWcuXMaqKr8vt3nzeXZXMcMY9Het5Yx/VXS5NreY/VTNtcLt+VckwzXtcnrKpi1PmNNr2elO+8Wp2E6ybc1meM9Txx9TlYq1a39rLkMXDi45qY6LdVqTIrW/QkaaHqLcOZH7QFBB+5S+WDdnzgvctSt1WG7hAp3RwSeWoFvmePMWXKO/q9an/LPk7kpwzs+ZT7ymS0JGn74DfxWft+y3Tc1GnezHN6+6XmP/1etX+u/IbaYVuuxVnmvhifb1Lzsc5fj1j71Xbcy7C/jDRyCa63vleWZ/hOIqJSw6BCJvpKonXl4Xz8SJqtqumRL7ej85cPJA7onbhCN2mVq39n3m68x2jeamtuqtbzgQ3mZ79xLaDeZ8x/SRVsquD52LXovGCd/uyPVkqz2HbccOfF6oMXq++9K9GcsnPlTeo9m3H5NrnS1I7r1DrluzZfpk5cVIFzg7mMqKi8Xrj++Z/15Jgzx1xo8vvhksDC3/6tucAQe/JJhK+5BvGBAXNJNTGbSq9sxxLzqvXm142Dxe4fXKsrJ5KPf9S+KXUQ0UmPI+OtxSXqeNGJ65bbm2kbnviu7ZhzQQdu/NjNwKfXqfeqY96XO5NX7szv3HzLauw+6pvG8U1/xrjad/ot67BGvW3NnektINQJ+irrO9R75ETYVsGZ7LdVvDIuW/T333dOIthQzZa8NxkQ3P36JmD5FThz2Xa0fd7cV5LuJ21qr/bPt+82u8WsQ/srVlQh036zdngHVnxRrXvClg5G0EjysM5fr3BfaWaeW3HkMnO/bcIb2R52HvkSbtwi+UVtd5V3Or9xDu7ANfiRymd638m+eCRDvjE/buRj41h347eh1mPOf1eOh5Psry2b0C75XvKrBEGWpX2n+TYiolLCoIKdnPxKZFhOiNXB+0dycr1MFUTmlYOzJFJsJxUDPaPeo04odERbPquXmfTJhjmPE3GEml9y5InGU7OwgzpRk4i0NEudqFms1bTyiV/LlSZVKK2yvksVkKoissJcRlRKHB4P3DfdhJr3vMdcYoht2IDI5z+PeE+PuaRKpOT5NqN1gK5MmsEG83hhnPzaTHYcyWDNuXJTU0P6MUUfSxLHHHXCPOFJqvE9Yok6DlpX1aZsPq+v3Fq/YTXWXKAebN08JvttFasCyhZZBlUBmrgLTRVZJttFAoLrk0FCva+sq9ZGK54JWcGlD56vP6dbPtiWZ95v7Wg/ypzNxMx30trIOrZYActqpluGqUdpUWWk6xyCmUedpINHV0revexurLnT1pXIlDHfmKs39q/JTCNHrDSfT7a/UvJ2DkEQIqJZxKCCnb5qIFcZklcDdFO0VbclrgjZWSdjRnPFNtz/wU7jao6xNGtGpNr83luSJ9x2EmVPMiPnepJCzugvLVcQiUqO0wnPTTfBuTo1bceefRaRa64BqimwsO15ddJpy79yJcp+9bkIdL/uxHFKnTBP1Jx2uZxQG3RF6TK50sbjzLRUSNkiFSBe/RZGsKzzl9fqIIARKDOa0F8Js4WO8cZpybzfkkG+yUjLIeuzHOPEDMqYLT9kkrRsbxU0qWXXYK1uXWA8XXvZRF220vONuTgL3F9EVCkYVJiCLpDMqPGEV9V0RcHoU2nMZ8katMu8Uqn74CWaOmZ2+rnSfNVsVqmvHBpNVOVq19pz2f2BSpf73/8dzve9z3xmiP3lL8ZdIfbtM5dUNn1Vy1ZZT44kD+NqpRlgsK6uFYIOEHzMCBCkV2YzM+9WoUe3T965YkL6bzK6SEhFa620bODI+OOUW9ky04pypdHba0uH2icXY4203jDvMKADDIm7DUwgbf/o1g4Zlmez3xLS8l1yjIBqZhx/EkE6xdhvmQO5RksBY+BNTeeDc3TXoomCehnzjX5lCtxfVAF0cFyl3eQYLmbLullMz8mxayY6huZ4bKWsMagwhdM/rwoSs+nqDa/ISX+GE7uzvmn0k5Pmb9/epAoeVShtM1+b1DJcfru1/jbcCLNZrC5spMldhqj4WXcZfZqlKZ9ujncXTjf728myvr4+841Epcf9zW/Cef755jNDbONGRP7jP+BwVHr3HfME194kVpo0SyVCVSqX6HENjOPIWR0nFqwCp8dCMI9p0ux+zRflyrnRBFs3xbWNf2BQx6kvqhNns8vG/eo345UOVWAbV2vluLPmB7vM94rVuEFOwPX7z8FauUo/wVXyalZuZYu1Lz/L7g8Gs1KYCBKqbXW9tf1W3aaWT9b9IHX/dKyUiun45Yn9lhWV73QffDPfXbCOXVVsg2gm6C4N6floNT6r0rnRFeEuQO1HTecJW9eGC27SrRB09zS9jy7BE5nyjfnxyeW2v1K+01xGVBKWt6NNnxMIW1COqo5jZGQk68vbwVDYnJsd8XhcT9FoFL2xeeZSsvPF+tDkN58QlajIV7+K6AMPmM9U3l6wAHt//GPU1tairq4Ofr8fsVgcTpcLNTU1sxpw4HGntP3gW1frNNPU3IzW1nlYsGC+fmxWz2W5x+OB0+nUaWiidMR9PHu4/8pb+e4/uVppdC2q5m4H+dh/5WZuc5M5N7Xevn5zrrwVKo9Jq4CzfmlcBFnz2F04XVq3few23YprxbhBnIttojxe3LxfqXksUz5iS4UKE6xpwtDo7AZ/iKbi/trX4LzwQvMZMHD66Tp4kBJAqJATGCIiKiVGpeLGLWmtGIhoGk5C+0pzQFHpprfyRD2QrWYO8GxNRpcIo7uP/XbGyfetwPVXq+VWi0n758e1olTMLnr6dXN8qGT3B1PHlxLvydglY6rvoKwxqFBxHNjVq/LZnoOIRKLmMqLS4/jCFzD64x9jxze/icGLLtKRWplmu2UCERFVsmW4/LHcB1UkoszOPPdEfVcVucVuW/tJ5lJVwc9wO2pL4nbGy4zbqxoDqt4E3GeNMWQsn/g2udttt+BVr8N+C96kzldOSgwyvdZ2y1fDVN9BuWD3hwok22jn9tfR19ttLpm5B+78Lnw+HxoaGzFnThPmzm1GU1MTGhoa1HI/3G53ojKYXiG09lssFsNgLPtmZzOzF+s+cwHu2mE+FUuvxn9+/0OY/+y/4uJvbMUl/9/dOGcR0PXAxfinP5xrvIZncOu51+BpHJ543U6/9443zWeGxZffh5vOX2w+E+Y6zrgZd3/+VHPZ7JjJfisEj9ulH63vkyCC/AZp/uX1enW3B/m9siwq3R9KoEkYjzuljc3nyxv3X3nj/itv7P4wOXZ/mJzR/eEKPHI7cOV323E9zsHac9cBl50DWN0fpCWABA2EBABuAa5fdA42q4q87n5gvi53QpH3y2DS+i46596V/JxJKv+JLgvSSsG81bG9G0PiNz12Ph61dXPQy78BXLdB/b6PmcuP/NLk35EH7P5AGelR0/PeNGa6o/5K873Mo5dKopy3YBHmNM+Fv7YuL5NV8fOoR6n8ScVPKqV+f63uB6/7wpuPmSbrtUzrLsxUC7ekbhlo7Pcv4kGZbv84lsprXqnYrkDbEcZ7ffLGGg98+nNeOPVWfBO7uqx1Jaee3W8CZ37fWJ+avnwmsPePz2Aw5X3mOlyqkpyyvPjTTPdbvic5gNonWSa/SX6bTPJ75eDK1gozo5v/Wc35JmrWZ2/yZ5s4InIR6X0w04HXJi4LMsrLd1JOctjmWeVd87xh3Psmuj0spTHyTPr2SzkP0/tsoltI2uQ9P033nJBoFi1rx4pX7sLaV9rRfpS5TJnsdtSptzOeWDFuu8pbu+YHgwoVqrauHq3zFurHfExS2dMVVLPyJxXBWr8/taJYX4d6W4XRmvQy9ZrMZ1p3YSYzqFDjgT/9NZ8EFVzwms/9HiOoIO979abPqJODI3HoEepgeMc9GLQ+o6eNePpR4NBjViaWvf0956nzk1/hL3329/nV2uUr1PZJLJudaSb7rZCTFWSwJmmhkCmoUG6R29LSjus2GIWkvnXkfdemniCfdZdRiJq3SrPujc8CtRKpStTVrHCWjynyrtw5QPKuNNddrp7KHVbk+WNyJxfKmrXdzO249tvJPCK3/11zJ7tHEGWnXf27G2u3nIgjEnkmy9tRp91eVd+GWkx129Usb8FrvG7cZQuw/z5lqu+gnDCoUMEaGuegpXW+qrRJJW5mk8vlMiqnHqOZur7irSun1iSVQ/VeXWmUCmtykmXGesz3FGWqhVvqog6jBULKax4jqOAxn/s86o3yvmevw5d+A5z5vadw9399FUvf+DYu++afkp97dh3+gKNw7tnLk8uWn4ileB1v7u3Brz58BD7xvz1quc9oqfCbK/Cevz7CnK7Di7V/wk1q/qZnzc8WYZrJfivMZAQV7MEFq8uD/Eb5vWypkH9LjjxR/T/b2xFS0ejATra3oJu+3T84BzdaJ3RF+k6ymcE2Z94thmU4YqV6sN3W9fRbshy5nvmJSDFuS20EECwT3Y46nXFLV+N912KzBEq1qW67mt0teNtWPo8rFzlw5X3SIiE9r/JWvPnEoMIUkk0RL8Fac5mmm7yZzeayHJE0ZZmaMkXUdFMh83UjWpYafdOv59DEUa5WN8xpgtfnn9EklT2rgmqvpHq90pw+fZJKon1KvpZp3YWZjsFH1w/g2fWfx7L0186+A89uvQPvMp8vu3Kj8T69fADfOlstP/rz+KWaf/a7a9I+txEfPdp8LpP5vm+dbXzfL688Ri1fg2/JZ1Mm+T5juV6/9fkCTzPbb/mfJIBgn3SaMFso2AMKxRznoRrI4En6SoKtWSIVl/3YnigzbE2ndVlzxopEGbHmB+sTTbSN4382ZUFas255XZU7V36jQ1WY1ImXPE9rrj2+zLF+yyW43lpX3rv9VQizifwaaztZ+8O+3L7N9aO5D835qa6KMe8Wg3kVdflJutVWxvM3JZFXzLyh9521b4235JafzDSQ/n6icrHk05sTLaT0/C2r1ZzRkkpXzq0WkWpa+5j1Xtvr2np8T8ooPeDiZly/Emhrbzdesn3eWHeaZddgrfW6/XfoeWNA1rW33JV4j/Gd5nIrADHVd1DWGFSYlD2hXwJYTXKkicyko4WqE7uMI5Ker/sVScKVJo1Wk5wEVcBceZ/Z7PHOizOMUjo9Ho/Rt9+rKnDSDH46k1T2rEqfvYJqTEbTemNSlVapuNonWWa+nmndnAo3zWi/FWBKfrcn8Vus32UPKjCYkA8duHGVcbJ6ljqOsSnvLFKVlBusY7t0N7lvghGmtwAfUO/R5cM3rgVut+a/lHVZcKb6jD45ku/ZchsexTX4kVwFkqbeac3jpbJjlTnyPWsvs/Uh37IJ7bIufRXnrryURZWpAyu+aG1v++jj5nL7Nlcnr8b+bDMGB5vwqhjzblHoK5yyneX2khfjR3pf2c/f4vjRSnOf6vMzs+/1F4G1Kq+myzU/TTYyPlH1sLdUkBYFF+N6dsMsSwwqTOaRu3TrhDXnGpG3NdYgI+ZyfWKgCyNg8+tWyaFsfwD3q2VGpM0WEVu2DEvMCLicKKSTPnyJ/j55blJnVC6l4iZ91qXylttkXT22Jllf5km9XyqH9kmvw/Y6p6JNM9pvBZgkcGCf7L/B+o1WCwUGFmbKOLk1Bke6GGvYpG/2yCBWVkXRHK06Y2Vy+RU4M3EuZZQFRvP3bKkyZpnZWkF9j9WUO7PtePSXqhwyv3PJe69Am/qNclswLeW3mPcgpwzMvKX3sdVvV2RuXbDk0zfpPrw6f35+oqtizLtFocdUWGfsD6vZtnn+lqzgGPvUOD8z94XZDztV7vlpiTontForyPcQVSvdusAMsLE7UfliUGEGch0tVDeBW3Vb4kpUsUklzapYWhW4bCd7Rc8+ZXovp9KZMu0zmTK9dzan9N9H+XP652UgxrtxJZuwzyKjuac1+rUEpAvS1FkHrY1bZVkDcNJsSRsQbJypx0lg3i2G5FVSe560Bq7VU4GaROuuEhOMjE9EVG4YVJhMnkck1VcwzGh18mpG0unnXqz+fzfWyrrS+ukZ759k9NQcpVfipposmV7jVLqTJdNrpThRASy7BtfLCeu4EeSpaMwWamvPlUqKeWV0miYtC7bJQHPt+MB7VSGj5ydjDqwlXSRUutj9m9uSn6UcmGX29g5sVg+JvsATeOLqc7BWbee2tLsNZMS8WxRW6xG9PyY4f0s9PzNaq6bKNT9lOTI+EVGZYFBhUvZRQa9VB3/rZGGq0UIzj0iqrzqYffhueEUKn7STvrPuMvrVXSbRa7mdkTQBUutKjJ56DjpWTn7CQkSUzrji2YEbv7veHDRsospM8iSa8khVDmVcA31slzJj+U34bM5N2rMoC876Jq5bbnaz+PYmvc/larhuiq3LntRxeqTJ6Y8uMN7PvvvTpfbJr83uJmq/Zhp9PCHRL38z1lrnCFO0QrDn3fSLDamYd6fPbK2g9sf3Hsl8/mbkLfP8TOet8XLLT/b8PNnI+ERE5cExMjISN+enFAyFzbnZEY/H9RSNRtEbm2cupWL4wbeu1rcAbGpuRmvrPCxYMF8/NqvnslwG3JNuFZmuOHO/zZ6Z7LdC8Hk95tzUZvt4Y2H6LW35SOPcx7OnrPefVPJ18/Xq7QNcNflP72u52CMjyEsL1WvRvqH8g3Cldo5QDHObm8y5qfX29Ztz5a0s8liFqtQ8likfsaUCEREREdFE7C0VdAvVm9iqh4jIhkEFIiIiolzl+S5NVMqW6Tt5FXrwRiKicsWgAhERERERERFNC4MKRDSrpA+ZdWtJl8ulJ+ljRkQWYxA+uZ+9fUq/LaUehDPtPZneR0RERJRPDCoQUdFIsMDr9cLn88Hv96O2tlY/ynOZ5HWZJLBARGmW34RHdPPrTqN/d9otCWX0ed00W+5OpMigcvI89e5ERERERPnFoAIRFY0EC2SUW2mVUCkjSRMV3zIcsVI9pN+WmIiIiGgWMKhARERUVrbjjVfUw/KTMt4vn4iIiKiYGFQgIiIqB1uuxVl6nIQ23LjlYvzosWuwxHyJiIiIaLYwqEBERFQO9JgK67BG5i+4hLcyJCIiopLAoAIREVHZWI3PfrkduO8c3tWBiIiISgKDCkRERGVkyadv0q0V0u/+QERERDQbGFQgIiIqK2ZrhS3X4nuPbMcdZziw5gfbzdfSrcf1ixxs1UBEREQFw6ACERFRSVuGyx+LY7NtYMYln96MzfviuOEs47W1n15mvqKcdZf5mjxZjRsS80RERET5V8ZBhbj5SIUWHRsz5xzGP4c5JzM5434rlvzuNzIw/ZYSpnEaj3m0WAqT/7j/ioXHz2rFPFYs1ZbHyjao4IyHzTkqtP17pFmtkRnUg84QxhP9NCfcb8WTz/1GBqbf0sI0TumYR4unEPmP+694ePysTsxjxVNteawsgwoS4XHHRs1nVGgvb3wSNTWSKRyocdTAYc7rSJs8qvdkE3XjfiuufO03MjD9lh6mcbJjHi2ufOc/7r/i4vGz+jCPFVe15bGybangRgCOcL/5jArlLxsexbZXN6pM4YTT6VKTPMpUo5apDGJmjGxxvxVHvvcbGZh+SwfTOGXCPFochcp/3H/FweNn9WIeK45qzGNlF1TQO8F8dEV6Ee7fgdBoP+KxmF5OMyd9gPbs2IaH778dG373IFwuN9xuc/IYjy6XkUESGUOxHjPhfiu8Quw3MjD9lgamcZoI82jhFTL/cf8VHo+f1Y15rPCqPY85RkZGsh6xIxia3X448bjxU2MqA0QiEYSCQQwND6Ovrw89Pd1q6kF/X79aNoRgIKjfE4tF1WT9iRycJDtG4pYmOxJhk0zg8/vQUN+ApuYmtLS0qKkVzc3Nalk9vD6ffo9kEJGeObjfiiW/+60Q5qrfka1elSZKAdNvKSlMGpd9LFM0GkVvbJ65lIrhB9+6GnV1dWr/NaO1dR4WLJivH2UfynKPx6NPwGTfTbb/BPNooRUu/wnuv0IrzP4rN+V4HjJTzGPFUj15LFM+Ktuggpz8hUIhjI6OYnBgQGX8Pp05Bvr7MawySiAQQDgSRky9Tz5nfJSZIjty8mYk7hp1Mudxe+D3+1GvMsCcpiadGeaqqXHOHNTW1sLr9SaibvrTaZmC+61Y8rvfCqHcgwpMv7OtMGnc2FcMKsyGfAcVmEcLqXD5T3D/FVrpnyMUQ7UHFZjHCql68ljZBxWEkcDjOmNIJE0S/8jIMAYHhzCgMsfg4KB+HgwGEQlHdOaJxWOJDEXZ0RnCUaMTuzTZ8fl86gSvHo2NjZijMkNjY4N+LpnFirLJZybKENxvxZHv/ZZv5VqYM/2WjkKkcWv/yn5jUKG48hFUEMyjxVGI/Ce4/4qjUPuvnFRjUEEwjxVHteSxigkqCMkUY2NjiYwxOjKCYZl0lG1UR+HkNckU8ZjKSPKP+SIrkq5V8tajlOpMoRK9RNP8/lodbatXJ3q1arIyhPQPkkxhfDZzpuB+K7xC7Ld8K+eggmD6nV2FSuOyf2WS/cagQnHlM6ggmEcLp1D5T3D/FV4h9185qeaggmAeK5xqymMVFVSQRytjhMNhnQmCwYDuCxRU87JMXpP36M+oSf7R1CRDSM6QBC6JXRK9nNj5VMaQvkE+n19nEllmZQgrM0yUKbjfCq8Q+y3fyj2owPQ7uwqVxmVfycSgQvHlO6jAPFo4hSxjuP8Kr5D7r5xUe1CBeaxwqimPVURQQWTKGBJVs0+yzIiyGZlCPmF9jiYnCVuStn5UCV5O6CTxS1TNPuWaIbjfCqtQ+y2fyrkwZ/qdfYVK43pfqYlBheLLV1BBWHlNHplH80/vA+uxAGUM919hFXr/lYtqDSoI5rHCqqY8VjFBBZGeMSQDWBlEBheJqnl5rt9nZgrKnk7ekinUJAnfqSYZdMTKCJJR8nHSwP2WX4Xab/lS7oU50+/sK0Qal/0lk+xPBhWKK59BBcE8WliFyH923H+FVej9Vw6qOaggmMcKq1ryWEUFFYQ9Y1iTZAQrM+jX5VG/i3JlzxhW5rAygjUZb8ktQ+j9Yj5aE/db/hRqv+VDJRTmOn2aj9bE9Ftc+U7j1n5jUKH48h1UEDoPmo/WxDyaP/nOf+n0/jEfrYn7L38Kvf9KXbUHFYTOQ+ajNTGP5U815LGKCyoInfBNiYxgzlvs85Q9e2K3Z4BMy3PF/VY4hdxvM1UphTnT7+zKdxq39qERVGhVS2Ynf1Sb6NgYfvzvn4OMhC1BhNZ5rVgwf4F6nIempqZpBxVEel60nqcvp9xlymfp+yeXfZUJ91/hFGP/lTIGFQzMY4VTDXmsIoMKlvSEz4yQX+mJP1+ZgfutsAq136ar0gpzpt/Zl480LvtNJgkqDEQbEXV4zVeokPbs2IZf/fwW1NcbLRXmtc7D/AUL0NraiuamJj1K9nSDChbm0cLKR/6bDPdfYRV6/5UiBhVSMY8VVqXmsYoOKliYGQqrUJmB+62wSuUgVqmFOdPv7JtJGpf9J5M0/RwJOxF0NpuvUCE9fP/teHPri7pFQnPzXN1SYb60VGhtNVoq1NbC4/WmNBudLubRwip0GcP9V1ilco5QDAwqZMY8VliVlseqIqhARKWLhTmVIntQQW6nNRytRdyTfVql3P1lw6PY8LsH4fX69P27re4P8+fPR0tLK+bMmYNaCSp4PHkJKhARCZ6HEM1cpnxUYz5mheU5EU1XrhUCViComKz0Jo+uSC/C/TsQGu3Xt9Wi/JAxFKTLg7RQkICCy2W7zZYneautahiBnoiKL9djCY89RONNlC9yaqkQDkcQY/MYIpoGl8uJxoYG89nUBoeGMDYWNZ8RFY7V7FNaKsh9ukPBIIaGh9HX14eenm419aC/r18tG0IwENTvicXkNlxWechyMTvGiUhNjYyG7dRBBJ/fh4b6BjQ1N6GlpUW3UpBWCw319fD6fPo9EmAQPMEnopngeQjRzE2Uj3IKKkTGxhCN8qoNEeXO6/WirtZvPpvayGgAoVDIfEZUOPagggzWKOludHQUgwMD6O3r08GFgf5+DA8PIxAIIBwJ6/t5G90m9Br052kq0oXBCA7Ifbs9bg/8fr/u/jCnqUkHE+aqqdHs+iDHDKvVgv40gwpENAM8DyGauYnyUU5Bhai+ijNmPiMiyp6M8O5xu81nUwtHIqoSN2I+Iyos+7gK0hJBggcjI8MYHBzCwMCAehzUz4PBICLhiA4+xOLGPb0pezqg4KjRwQLp8uDz+fQtJRsbG/U4Co2NDfq5BBusVgryGQYUiGimeB5CNHMT5aOcggoipE6meBJFRLmQCkFz0xzzWfb6+gd4vKGisNKZBBXGxsYSgYXRkREMy6RbKYzqq1bymgQV4rE49D8m0axIXMAh/2ocRlBBnZTIFQ+/v1a3Vqivq9O3kbQCCjK+AlspEFE+8DyEaOYmy0c5BRWkgJfuD4Fg0FxCRDQ1v8+nKgo+81n2AoEgjzdUFNZJozxagQW5E4QEEYLBgB5LIajmZZm8Ju/Rn1GT/KOpSUBBIgtyUiLBAjmnkLs7+LxePbaCz+fXQQZZZgUUrGACgwpENBM8DyGaucnyUdZBBbmqIIW9nET1DwwmTsCIiCYjlYGmOY3TqhTweEPFZKUzebS3WLBPssxopWAEFeQTTJ/ZkWOAHAX0Y43RBUKCB9IqwT4xoEBE+STHEJ6HEM3MVPkoq6CCFVCwhEJhjIyOms+IiCZWpwdc85jPcsfjDRWTdeIojxJY0GMnmAEGGZxRxhZKbaVAudCnIuqERE5KJHDgVJMM2mgFEuR8gwEFIsonnocQzdxU+WjKoEJ6QMHCEVGJaCpy7MhlpOWJ8HhDxWQPLFiTBBKsYIJ+XR71uyhX9sCCFVywAgnWZLyFAQUimhmehxDNXDb5aNKgwkQBBcvwyKjuX0pElE76RdfX1ZrPZo7HGyomHTgwJQIJ5rzFPk/ZswcL7AGETMuJiKaL5yFEM5dtPpowqCBXDeRWT1Nh5I6I0uXrykA6Hm+o2NIDBwwk5Fd68IDBBCLKB56HEM1cLvkoY1BBAgqykmwLd+lrNBoI8GSLqMrJMaPWLyO4T7/v4lR4vKHZwPRWWAwmEFE+8DyEaOamk4/GBRVkJdJCIdcCXjJWMBjSt9xiJiOqLvq44fWqY0f2wciZ4PGGiIiILDwPIZq5meSjlKCCXtE0AgrpwvrWW3LbLZnMUbKJqGLIMcLplJHa5XZwLnjcbvOV4uPxhoiIqLrwPIRo5vKZjxJBBVmpdHmQrg+zQW7XxcFPqoOkNeve5EREBH1niYg6MZVbWFLly7Wbab7J+ZacdxFJGszHBUUiqm46qDDbAQU5kZKJKp8VTGDhRUQ0ngQVpMLHK12Vj4EFKhVT3e2NiGgqOoogt4pgQIEKSdKXRMIlrTGgQESUmZzc+/1+Bl+rgLROCQaDsxZAkvJY0huRBDMZYCKimXCog0h8tgoVBhQqn5wUy8mxtFAgIqLsSWVTykie7Fc2KSdns/m5BDYkwEHVbbbTIRGVN4c6aZmVEDkDCpVPggkcN4GIaGakwidN1Vnxq1yzWaGT08DZbDFBpUMuAEkLFiKiXM1KUIEBhcrGcROIiPJPWixI2cnKX2ViYIFKgaTB2eoSTUTlq+hBBTkp4l0eKpMUQrM5PgcRUTVgYL5yzWZgwRrjgaqbpD0Z14WIKBdFDSowoFCZpADiuAlERMUjRbeUp7wFZeWRwPxs3RWC52kk2H2ViHJVtKACC6rKJIN88o4ORESzg10iKtNsBhbYEoaEtFbguR0RZasoQQUGFCqPFDS8HRUR0eyTYlwqgVLWUuWYzcCCnLMxPVU3Ob+T9EdElI2CBBXCOso9hmhUphivoBARERERUV5IsM3prFGTDA7ugmcWu2uw3kPlKp/5KG9BBVlNMBhCMBRiZiIiIiIioqKQypHP64XPV5zWPaz3UCWaST7KS1AhFApjNBBgpiIiIiIiolkhFaFavx9er8dckn+s91Clm04+mnFQYWQ0oDJXyHxGREREREQ0e2Q8iLra/N8ak/Ueqia55KMZBRWGR0Y5ACMREREREZUUGVC8vq7WfDZzrPdQNco2H9WYjzmTSB0zFhERERERlRqpp0h9JR9Y76FqlW0+mlZQQfoSsekPERERERGVKqmvSL1lJljvoWqXTT7KOaggvSVkcBIiIiIiIqJSNpNBFVnvITJMlY9yDirI7VNmMAwDERERERFRUUi9Reov08F6D5FhqnyUe1CBzX+IiIiIiKhMTLf+wnoPUdJk+SGnoEI4EmG0joiIiIiIyobUX6QekwvWe4hSTZaPcgoqRCJj5hwREREREVF5yLUew3oP0XgT5YucggrRKDMXERERERGVl1zrMaz3EI03Ub7IMagQM+eIiIiIiIjKQ671GNZ7iMabKF/kFFRgvyIiIiIiIio3udZjWO8hGm+ifJF1UIEZi4iIiIiIiIjssgoqSEAhxFuqEBEREREREZFNVkGFcDiMWIz9ioiI7OS4qFtxqcnhMAKwsViULbuIiIiIqGpMGVSQgEI0GjWfERFVNwkYxGMxOBCH1+OGz+uBz+dV8x741aPf54PLWaPeE0V0bIwBBiIiIsorOQ/RFzTUuYizxgH1n56X5XLuIa8RFZNDnfBOmOrGVKKUoIIlGErOExFVGymsXS6nmlyoqZk8JiuHVgnIBkMhXbbLZ4iIiGj2zG1uMuem1tvXb86VBl1lU1ONswZu8zzEIc0kbeQ90ooyEonoepxDvaemxmm+SpQfmfLRhEEFORlOH0eBQQUiqkbGYTIOj9sNp9MonEeGg+g9OKQK7pgu1KVYj6n3xeMx+Gs9aJ3fCK/Pkyjcw+EIXOrzRERENDvKNaggFzWcEkxQ5xH6nMMMJsg5xljEaFHudDn1e4Sct8gkdbnIWFR/jihfsg4qSAKVRJj+EoMKRFRtdBNDCSh4PDqgMDgwgm2b98Ln82Pewrnwej3qdd3uUL8vHotjaHAY+/YchL/OhWPecqgqzF36ikEwGITb45U3EhERUZGVY1BBzkPkPELOQSSYEBgN4cDefoRDUb1MXhORyJi+iOH21GDBoibUN9bqupxcKA4EAnC5PeNaNhBNR1ZBBXkqJ77pAQXBoAIRVRM5DsZUYSyBA2lm+MaWvdj66gG0H9cGX61fve5Qhb28z3ivlNV6qpF+jjHs33sQO7fvwdvf/RbMbW00AwsheLwMLBARERVbuQUVZPBnq5WktEjoeHknQoE4Fh82H3V1PvUOCRLIZNTb4upfYCSA3TsPqHORKFaesAw+v0cHFkZHR+GRCxsMLNAMZRVUkICCtFTIhEEFIqomY5FwooXCy893YtOfduPkVSvh8fog4yCNRWKIhGOqsDaaGUo57XI54PI44HY7UFMTx749XXjt1a34uw+dinkLmo2grToB4BgLRERExVVOQYVodEyPnSDnC4P9I3jikVexZOlizF/cqs4ialR9TYIOxkUNYV3YMIZ8iuHAvm50bnsT7/jblZi/sJkXNihvpgwqyKCMkuAmwqACEVULaaEg4yN4VeG7s/MA7v7vDTjxr45H63xVMEeA0ZExPTldDh1cGB0d06MvO12A11cDf61LTTXqeRwvPPcaRka6cOXnz1WFuVu9N6De41OFP68WEBERFUu5BBUkoFCjzhHkwoZ0u3zw53/C0iMOxyGHLUAsVpO4qDEWievxnKTJpJxSON0OuPWFDRmgMYY9uw5g6+at+LuLTsWCxS26e3s0GlPvka6bRNOTKR8lhi+XYMJkAQUiomoi/RKlhYL0Ubzrv/+IQKBOFdg+dO0LYu+uYQSDYziwL4De7lH09Y5ioC+E7q6Aen1Uv75rxwD27BzCwf0B+P2N2Ll9FL/+5VM6kCB3kJD1ExEREaWTCxu6y8NYFP97xxMIjHpQVz9HnXOEsX/PKHa9OYyhwQjaj5uLd521BKefuQRHtTej52AAuzoHsW/3kJoPorauAdFoLX7+k9+pdQR1qwfpUjFRq3Si6TIayKiEZb91JBFRNTMKW4n6O/Dsk5vx2isDiIR96O4K60DC3t0B9VoMp75zIfbuCuDAnhBa57v0lYXB/hD6egLoPjCKfXuHsX/fMEZH4xgacOLX9z+nXhswTxQYVCAiIqJUcn5g3S7yqd+9iI6X+uCvbUZvdwT79wSwZ+cIgoEo3nX2EsgQCRsefxPPbdiFphYP/ubspehV5yC7dwypc5Vh9HQF9YWN3W8GbBc2XOqchvU+yq8a6f2QfutIIqJqFh0b0wW6BBfW3f8chgbc6OuJofuARP0davkY/vTEQezfO4C3vX0hhofCeHFjn+4OMTQUwtBgGP19QVWYj+Lg/hF0HRjFQH9MzYfxh4c36u+Q0Zxtvc+IiIiIMBYxggqhUBj33/VndY7hU/NOdO0P4sBeOa8I4PhTWhEKjuEn33sZjz60Dw8/uAf/84MX4fU5cWT7XBxU5x379w7jgDoHCQahzkucWPuAXNgY1OuWiyBE+VST6daRRETVTApbieaHgiE893QnBgehWyh07R/Fqy/2YfebIxgdHsP6B3fD64/jLSe1Ylg9b5yrTgLCY2o+rAMNA/1B9HYHsHN7v5qPYHAgjmcef1Ufc2X947qcPbweLXN/MsG0Ho+ab6sMXbj1Uxuww3xGRERU7eT8QC5oyDnCpj+/hu1bh3RAoKcrjO6uoO7SIOcWiw6pw6ubunVLyZHhiD7v2L51GJ3benHIoQ0Y6AsYFzYOyBTQ5x9yYeOx3z6n1y2T3BGCKF9q2KeGiCiVVPalYO860IdwUAreGgwNSOuDYcyd58bwyBiOOrYe4WgcP7v9DRxz7BwcfnQzNj0/jIGhGEaDMQyPjqn3RdCvCv8dnX0YHY2oQtyD3Tt7EicM0q8xe3tx0dx7cWun+bTEPfqpSYIhnRtw6tyH8JWXzOdlYsct9+YpwNOFW08zt8+nNpvLiIio2tlbSj7zxw4MDTrU+UcMe3YOo687gIF+I4gg5xDDQxGM6HONMYyoSc47RobH9EDRQ+aFjb7uUXXeMYCBAePCxlOPvZI4B2FQgfIpMVAjEREZJKAg09DgKDw+D9weF+Q20K+9Oog/P92N4UAcz/65H/0jqlAPufGDH7yBvz1nCeYf2oTRqBsjESdGww6MqPft3DmIQGBMj6Pg8XoQDhkDJOnviE3USmwx7un9OHqsaeMKHK2XD+ErN5ZHJfTMH1q/ey++ckuXudSwY90ubDXny0bnBlz01SEc/bXz1D5ZjTPNxdOx45bH8JWOBnx9o9pGP1xhLiUiomo3ZnZLkPOEHZ1Sdnp118od2wd1t8rhYSOQILeyDkXi6jwjhtGQegwZFzQiY3GMqckINhhdMaW1pAQi4nGXWudBvW4hAYxMkgH0n+DUtPJ7YslgefafmUCi1WauAfzN+KT5uz/5sLkoa/lvPfnop+y/P4/bp0QxqEBElMaq9MstmdwemQCXR+7V5MCBg6qQHo5jMORBuMaHMY8fI7Fa/PCOnbjksiPQtHAOwk4/AlEvunqjGAnKLZ5cOjDh8TpRW+/T67a+Iyttq3DP1xqM+Zf6y6fLgPrdz/R+HPecYz4vZ+bf8szV880F07f06gvR03shrmozFxARESky3pKQc4SR4bC+DbWjpgajIxHs3DGsWyVI8EBEog6MRp0YHXMiMOZS5x0uRGMOhOU216E4RgMxfWFjRH1WWj94PF4ERyOJoIL1mKoLa+8ZMueBrfe8XvndFPPeetIIblx0r/m0SjCoQEQ0jnRNiGFOcz38dQ64vXG4vA44vE6oUhnDUTeGYx5EfbVw1NfD2ViPwVgDfvrgAXzyE0fC29SoXvdhzOVHjdcHp9cDt0+CCjVYeEiTDiZIs0M5UZiJZBcDczrNHmW3R8U3JKL3ieb248ZvsHetSI2o27/HirDbr2SMb8KfvFog00kfSZ6UyLpO+qp5wtKxGSep1/UVBduViVsT607+ppTvsz5jp08Kkq/LlM3VgJT1yvab4ArJ5N9v/b3ye5PbTqbxvyH19Qm/R/2WW9O7kGT4G1N+R8bfnnblxr7fE/vNtr9S0hARERWTXGuQ8w+Z3Oqcw7iw4UCNCxgciuBgbxif/Kdj///2zjZIruq880+/d8+MRjNCEgYLGw2IMApQxmEdI5cV2EQKRkOcYGEcYS8FeHcxWE4VllSLbeG1IXEVYH8ItRg+GBfZiDKFIBtbYJfIFhsc460sC7s2O6JQLEwsXoyQZjQzPdPT3dO95zkv996+fW9Pd8/bud3/n+rqvvTte+/c55w+5zznf55D/auzNPLJD9KBJ/5AL1eI5d/SRz56Fg0NDdJNX/iQOLdME/my+C5fQ1wrk6RMNuV0bARy7F/ob4/obebIePSUhS2y6OrJn/yaDurNbgJOBQAA8MFjDTmuQk9vls7ZuJoymTlKZWOUFAVyPJulzOoeygz0Uryvl6q5HM1lxJLO0b+O99J/e+4k7f4PG6l/fT9l+ldRMtdDqVxGFOSiMM9U6YLN75cFeqlUktM6tQs3Puu84NxID2gUvvb1UaeA2/nJzapxuustfcQwSXddVh+z4bWv/7DmPrx/+ccedx0DzOMveBq33EB9obZAlc6D2sZzOG/RXebaw+fQyJD6W2vuJzi4y9Ng57/nstG6SgE/a53zwUPddfk5695LE/d34Hf4Q7rLUyF77evP+Zw1tZ+HxsoQz3KXee/Xn0vb+L0G/I38HI3+xjquupp+cL3efvyX8r5vPPBLba+z6Qc/20IflNsAAACWm6r4Z2IdnLGul1LpKiXTosGWjlMslaDpUoJWrc7Q1NQc5adEXWKWqFwkKolltlClqck5mpmp0urBHE3PpcX3spRIq2Gc3LGx9sx+p2MjCKeBPbxKD7t8iw62UsYsBqKcUsM/Wx1quJke1sNGH75KH7KG9XT7z9SzLYbi0UbgVAAAAB9pUQAXi0UZB+HS3z+XUplZymSJUrkkpXpSlO5NU7ovK9YZsS+WbIaSHHtBLEffydGLo6fp1hs/QNlVOUr3ZCmTy1A2F6N0tky/99ELZA/BnFiadiqIRjOP52cu+Mz5otE3Sn8l9/W4fFFIvWSGRwT2KrgxGrigffY+1ThV8QHEcU/Mhl/Ufdl8dwvt1EdeE41idd8/oW8Oq2MH/171ej/7Be1QGN5ML8nvmXNUbAWOteA8qz7HX/g7z8UNXM/fvvMxvp5YHjtb7r/29Relo8KtBJl7ft5pOB+8O6zn3bxDwfVb1HWd9+ChifvX4DyDeV+T9LdPG3UHx1LgLdce6jmDY2U49/vuZrfhb57VY49fHJ1fkeFl23fdZ7vrMlc5csE3LltQrAgAAAALI5lIOsGizz1/nah/lEXdQRzPJCieSVO8JyeHOFCVg0pXaYZjKkxXaEYshRlWIKjj5Uqc0qv6xHdyso6SFvWXTIZoaNP75LX5Hom6Oog79OGCz1xJ3zTlqC7fa/Eo3MKCSHvVc+z8d843nQwh16hT3bkKP3ai16g0a5SS7vW8zvY6Vaenk6M99aRfcSgW/RxSbeh0TnCngemAcL/j75DwP5//c3lN/ozv4VUbev4OG4BTAQAAfGSyWSqW1LjDLVf8LvX2lSibK4slLj6LUyIVp1g8JheKiUX8ksptPib2f/4K0YmTU/Tnf/Z+yoiCPNeTEOsynfc7a2jj+WdLh0WWS/dQVEHkFBxOD/XZ9E3p4TbeeHdc/gc36YZ6ELKn20UGURTfd7zlQwN0idqqw21orqVLtAOBrr9Y33c9XVDzxXfpNT0mced+0+O9nm7frxvhTY3NXEWf3eHx4r+mnSSisf4V43y46jLHUVHTg8IVAl2wm79ROibkER+OPHEVfXOvDpbojV1haOX+Avfv9rwvzWuj9Y33beLe0pHx+K99lYOzaafH2aLiMIi/xwnsWH/95hHpRztGHMTf94MO7T0BAICokEqnpZKRG/4XffhcsV+kdLYiljglsylK9Yq6QyxOca5zCIrFqrOwM4GPc7VEbFG6r4dSPVlK59KUzXKw6Dm65PeGHLUkd6DU4Ax9UOXwtk/qcqKufPIrEutVerWIOk2N0k7sf+xxutx/jc/NP/yO1Xk1Ks0apWQ93GCvj23A9292qF+9evLZLwT8reI56oeCzodyNPifj1WWgdfie9SoKcXf0fI9lw44FQAAwAc7BnLZHM3OztKadavp49s2iYJ9knrYsZCpUJLKROUSzc0Waa5YokqxLNdzel0plemH/3Ca+nrK9DvnZygnvpfJTNPIzn8jC/zp6Wnq6e3Td2sS2QMeJAXUnvkA2b7hgs1r9VY9ykPuG67QNu/RL3RBywW/4xRp8Gz1rKILPAEM3zha24OgrllboH9wxzmuwoALXX1e/fCEIGrv53fONHP/YFyHy2uj74n/XYeLrDCYawUMaZAMD9SrJjSq16KZZ2iA4xhRuM4QAAAAKwUHVIzF4nJ4wtCm99OGc3spnSlSJhenVC5B6WyCRQpSkcBLVa/9i6jJiHNT4ntpsaQoneM4UXH60Ec2qZhOop7D9/Liqv5U45muOler2mod6O6QuQC1ZAhGgeiqKifpNaO8M07uI7+hQ0GKhxqM0q9eKVnPKB3UDXZH+WcUiaJM/yvxN7WjnlRDE/2KQ8Evxom4A8Bx2qtzwoY7uOpF9z0639XDE/2Yv8N55jqHz8oBpwIAAATQv7qfZmYKctrHP9h+CW08L02p+CnKpQqUic9SojxD1dkZmpuepvKMWKbVdkVs8/F4uUgH/+7XdPrUGKUSp+iKbedJlUKhwEMpspRKpfSdgnALK2fx9bi7crk2HAIe+Vy9B39+GjkpGrIEAZ+k9J9nZggYuhDq7V9EWh16EI6oYDWqTHmko/74Dg05Nk7BAa1dBxCzeH8HAACAhZDNZUVdoUBpUU/4o5GLKZXOy86JXI4olawqJUJVCSVjoiXHvgG1KPUCOxRYq5BMEOWycerpqVI6PUNX/PHvim117SxfrAbv0AceZslspp11QyA8s0M4qkVW013sDMmrx6gsvY57j0rwgnAnuh9X6edXSjbm4C49dEHP5MT1qubiLvjUk8733U6eCzY3dqgE43nf37jSnQ3KcfgHDIv0KCYbqlNXCDgVAAAgAO4pWD0wQPn8FGUzKbruc5fTOR+oUHzubUpVxihdmaRUaZKSpSmKz6olURRLKU+p8qT8PF4ep/LM2/SRy9fRFdsvpspcWRbmg4Nr9F3axPGUc2GkPeh+OXso79J/uVsrB7RX3js+f2G4knynV6BmaTXokqfgdJ61dnGHcLgVhZoek3m9+LWNeUeZoGn6/vPiVoAcm9UsjaeYNHEwgnpp2sHtaVLUBpQEAACwUvT1rSIeJjlX4eEK59PwxQOUTJ6mnkyRsqkyJXTrLR6Lqamv9ZJMKqcC/88OhUyiTLlMidLJKdpwTpq2brtYqhT42qtW9ctzHTyzPnjVdE7HQ0BZWtvBsJAhee3hNOZDp9p2nSJqiIbpjGklFkGtmrEG7exvydHv4Dr2L9nkrUesp5HPzPd3CRxHzDwdEssInAoAAKDhcYZmKicueDOZDCUSSZqezlP/6l767Oc/Rr9/eT8l5n5Dsdm3KFE6QcniKUoVx8WalzGxnKTE7Lvi8+PUk3qHrvnU+fSJT15KsViVJicnac2aNfI+fH2+D2+3jBnn7/H++xvD4bgFmSN5D+3NbhW34ewNkOioKtpRDZiCU0sVJU6vvep5cK6vx0jK+APzOVkcWaenN0Bc1wRldGji/s1iKkDeAI9OAKaG4zvdoRNuL02t0qAWV6rqOiM8eP7OC74hKl1yK6BXBAAAwLLDQxO4U2NqaoqSyQT9yac/Qu87a44S4nc/E5ui/GSeSqUylcplGXDRu5jj+alpSsfylKyeotX90/Tpf7eF0umU7Cjha/txhj6EstizQDRorC8iPLzBGZ7gwHGrWiu/XTxBGsOGLy4WlwxEalginAoAACAwDgVu7HMAI46nMDMzQ+lMWm5PTU5QLpemHX96KX3+9svoQx+KU2/yTaKCKJUKr1Os8Gu9/hWd0X+Ctl6xmm6/4+P0kY+eR9VKmU6Pj4trZWRhz2oFvgdXAIwToyUcDzUXjKpwcz3l83mt3d4EJ+6Bp2BcqAzeCTzoiUGgejpcqaPT+6/PaRj7YGiLG4Ha/7xaehl0TyeOgy9Ipctm+oozJlHHYQiqIDRx/2Zx5aH1dmsc08ATn8HpQXKHvaiYDQLHUeI+62ceFxU3X++RV/Xwzd1bat5DS9NTAgAAWFS4LsJLT0+v7NQozEzT6oFe2nXzFjr33ArFym/Sww+/QHvvfJb2fPV52rP/Z2L5OX1ZLHv2v0B7vvZT2vuV/05/8zcvUqz4Fq1fN0Of+/eX07ozV4s6zbS8Jl/b3EfhHdJgZhgyS3jsAqfskTRydK8sTuDmGlWmOzNTS/zkRSeeUV18g5Zw62K19S7PsIh2h5quEHAqAACAwOtQYGcC9xCMj4/Te++dpKn8NJ147wSdOvWeOKdE53zgDLr2+svoL/7TFfQfv/hh+vSuIbr2unNo1+c20Rf3XE633bGVtl11EfX3Z2lmeore/e1vaVJc7/Tp0zR26pRULHCwRr7XXFlNHdUSLPX39cTvfMwU/PMVlDxXsm+4g6hEmEKxuRkaGiCHIfiHU7Bk3yPv9wUJrK2Y1FMTSEkjhxCYmRD4ngExFWrOCYAVDTXX5cpUgMJh3vs3Dc/a4R+2oAI0zTe2c9t3fd/j4RhOQCcjSxXXr3kP/N6vpM/qPYaVEUbOuvMxNRzlg7uvdCuNu+yaogoAALoFbz2El1X9/TIOU0HUSdas6aPP3vIx+qM/PotyyRNUmnqHylMnxXKayvkJmstPqu2pU1Sa/C2lq+/Qxz4+QLfc/nF631kD4jozNCuu1b96NZX9nRqeoQ87P+kv1zxyfFnWePfdYILOdNI24agKzRSTQWVwaziqUE98AzOzU2u477Fm+KHjtPDFcogAsXw+33RttjBb1FsAANBZGOkgqwjYqcBDHqYmp2gqn5f7XKhzYb9aFMhnv/9s6elPJVNqaknxz/khrVblOMji7CyNjY3RO++8Q8VSkTKZLPXkctTb10u9vX1i6RXX6KFsNkvJZLJ+aiewMnAQS1Y5cKM9bDpKAAAAkWTNYL30P4xTY+N6a3mQcRQ8TgWuk/Cx6fwU5UR9QSkMiCYmZmj0l8fp6Ksn6N138pTPc+cEiXOStG59Dw1tOoMu/tA5NDjYR/F4VXZizIilb1WfrGskRd2Fg0XzwjNAvPXQU1o1x47ogNhH3DjXCj3unX/4Kv+UkrWw013GGzLlqfe6Qcec67OT/Xq6/TX/OTzkQM145FxbwE5y+dxOee0+l3pONTwyOCC1vhd3djjPpJD32PRi/XMyvnNr0ed63peEOyy+uzbgbwh/j43/ToH/nS3DUBIvQfkISgUAABCwWsB47VVBXqJZUZizk4EdDPl8nsbGx+jo0aP0j//jH+l//vznNDr6Cv3mX9+gEyd+SyffO0G/fectOnbsV/R//8/L9E//9FP65//1z/TW229L5wR/f5qdE4VZWUmQvQSi8iB7CVpVKoCF4+nB8A6/ePbvdWUhYmMZAQAARBvTscFOgInTp+nkyZOifvEunTw1RsePH6f3TpwQ9YdZ6l+VpY9u2UR/fuNH6Yt7rqS9+/+Q9t31h/QX+66kz91yOW298kIaHOyhUqkgv/Pmm8dF/WVcbL9Hp8S1JiYm5D34XnNz73iGPoQMFxwaIDPRghoCwT3+XkUiN2wXpgBYKoJjKnDjv0315FVX+5SL/Lebd6HjTniGTUoaBJJ8+FT987FDpPkg0PYApQIAAAi4MDcFOisTOJiRcQbkZeE7Q7PiN5Blg6VySRTEygFR5UU7BTi4klzicUokOBJzUqoZOC5DlpUKPT1SqcCRnXmbl1wuB6XCiuD2fARhejkAAAB0DjYrFbixL+sfU0olycMwuQ7CsRC4Q4I7IjjY89lnnyVnb5BKg0RC1jsY2TmilQ48zPKtt96SismEqGPksqIO0ivqIL19og6i1JK9rJYUdRDeB6AVgvIRnAoAACBgySEv7FjgwIwmUKPcLhSoqOWIHAOBhzcoVYMKdOSNicCFO8sJeb7oRDxBCVHgJ0XBz1GX0+mMLNgzYuFhDzy7BFcK5Dmi0AfLTbBjAQ4FAADoTGx2KnAcJ9OpwU6ByYlJp2NjdrbgdGxwHaSvt1cOx+wR64zulGB15bQ4n+M38Xe4DpISdY+MqHtkc9yxwZ0afbRq1Sq59PX1irpITm4D0ApwKgAAAAAAAAC6EpudCuxI4E4Mdgjw8AR2KLCTYIY7Noo8dFJ1bMjhk1WtlvR0bBi1JHdUxGNxqVBIpZKUTqVlZwYrI3t6clKtYJSS3MHBqgUAWgFOBQAAAAAAAEBXYrNTgYdfsiLSqCU54HNBLKViUQ67LJeVopKHXToOBf7ndSrwP6OYTCi1JDsWODgjD7NkhSQ7Esw2qyR5DUArwKkAAAAAAAAA6EpsdioAEBWC8hFmfwAAAAAAAAAAAEBbwKkAAAAAAAAAAACAtoBTAQAAAAAAAAAAAG0BpwIAAAAAAAAAAADaAk4FAAAAAAAAAAAAtAWcCgAAAAAAAAAAAGgLOBUAAAAAAAAAAADQFnAqAAAAAAAAAAAAoC3gVAAAAAAAAAAAAEBbwKkAAAAAAAAAAACAtojl8/mq3p6XwmxRb6081WrTjw3aJBaL6a32gI2WFtjHbmAfu4F97Ab2sRvYx24Wap9OZs3ggN6an1Nj43oLAOAlKB9FzqngL4hQMC0+/sKo1cIJNlpaYB+7gX3sBvaxG9jHbmAfu1mofboBOBUAWDiRdip4Cx7eNvv+46A9vAWP2eZ10PEwYKOlA/axG9jHbmAfu4F97Ab2sZvFsE830U1OBeSp6GNr3o2sU4EzRaGSppm5DJWrCaoSfhwXjyolqkVKVaYpRTNOQRSPx+Vi9k2iNms/sNFSAfvYDexjN7CP3cA+dgP72M3i2Kfb6AanAuc5L/59YD/+/Gpb/o2kU4EzwtRcjqbnsvoIWCpixXFKlk5RggukRIKSyaQsmBJi2xRQ8jxfwoaNlgfYx25gH7uBfewG9rEb2Mdu2rVPN9LJTgXObwbeNvv+48BOvPnTm2eDjq80kXMqcMJn7/ZEuVcfAUtNcfwNipUmKZVK1SymgPImcgY2Wl5gH7uBfewG9rEb2MduYB+7adU+3UqnOhVMfoMiKIpET3UUlI8SX/3qV/+z3p6X8tyc3lp6OHMwk+UeqmDmy2WjLEw8/u4bNFcuCxtUxBE3IXsXL7DR8gH72A3sYzewj93APnYD+9hNK/Yx624kl2teNTNTKOgtu+E2EyuCpuZMfute+0aTGFVjSSrHc1QSGbkyO0kV0eauVDgfK/valoeD8pH1v/TsbQPLRzrXTydPvkenxsZoYmKSpvN5mp2dpbIopOZEAjfOHi+w0fIB+9gN7GM3sI/dwD52A/vYTTv2AdGH7coKBQwx6gyq6QHKlxI0OTVF09PTNDMzQ8ViUeZjdjKYfGxjfrbaqcAvDPKd5SUWj4tC6SSNiULp9OnTNCUKpUJBJWiTmL0JGTZaXmAfu4F97Ab2sRvYx25gH7tp1T4g+hh78pAH0DlUU6tlPp4Q+TifnxL5uCDzse2OBSudCra+rG5hfGycTo+P08TEBE1NicQ8U6BSqVSTmL0LWF5gH7uBfewG9rEb2MduYB+7acY+DGzTWUAR1FlEVXWEgW6gjsmpSVkYsXdsZmaaCiIhc6HkHd8DVg7Yx25gH7uBfewG9rEb2MduYJ/uQzrwoAjqKKKqOrJ++ANYftizzWN4WG7DnrFSSUlu5gISMmy0/MA+dgP72A3sYzewj93APnbTin1AtDG2hE07kyiqjqx1KiCTrBycaOVSVGtZIGkvtzcRw0YrA+xjN7CP3cA+dgP72A3sYzfN2gcAYDdRVB1h+AOoo1KZE4WQKojUUnELJBRGKw7sYzewj93APnYD+9gN7GM3sE/3IW0LOo4oqo4w/AHUUamoxFqpioSrt6UteC0+99oFNlp+YB+7gX3sBvaxG9jHbmAfu2nFPiD6wJ6dSxRVR1AqgAC4EJIr3uJUq48CO4B97Ab2sRvYx25gH7uBfewG9gGgE4ii6ghOBRACF0eqcFJrFEl2AfvYDexjN7CP3cA+dgP72A3s003Avp1JFFVHcCoAAAAAAAAAAABWwE4EuZLOQbUjd60FTgUAAAAAAAAAAMAa2J2gnAtqbbNLAU4FAAAAAAAAAAAAtEnXOBWe3x2jzWfp5cpv03F9fGl4hvaJ++w7rHfbYjGuEUXU3+3Yipfdz+jPlprX6ftXLuf9ogjsYzewj93APp2Bz44LrlMo24w8+LreBwAAAKJFVzgVjj+4mW49OEx7X6jS6NvHaC/toe1L7lhoj+d330DP6+2uZufTwlbCXo/uIjq4Y5mcKxvppueeppGDBzw2EJW93XamlRUF9rEb2MduYJ8Iww6FHXTI2PCF+2noVVGnaMdZc/iGLuw4AAAA0Il0gVPhGfrru4+IStz9dNNG3hcVqztFRU5UAv56yQrzq+leUdm4d7vebRZRwbj1oN5u9xqdxvYbaESsRv9luXpw+L0foK167/iDO+i+V/QOqAf2sRvYx25gn8hx/ME9dIiGae8dV6sDG79Mh9i58IDeb5pnaN+Nj+ltdvhU6dBtspICAAAARI7Odyq8foRGxWpoeFjtM5s+TENiJStyoiG/+azNNMKyUKleUDJEJUu9gfaJz77P9T15nj4uFtW7oCSQ+8R56rg+1xznc17/No3o77if+4ZjnMXqBFPBeIxuNfvmGgJWW5jzHYmkfCbxjOZalqovFo0GNhi5kt+PeL8/9b5v866UTdU5fFycd9ic59qk5vrc6yRsdys7pLgXit9to7TiXMd7rMvkrLCP3cA+dgP7RIJjR8Q7o0vpvLD2v/89+4/J8p3rADvokFgfupFtrW1o3qe33iBtweg6QV19AwAAAFh5uiamwubzPTWAjcO0WaxU5YA5QpvvrNLoc18m4p6bV9VQicPDL8tCnzm+6R4ldRTLQztFReBHurIgOEQ3iOPHaO+FR+jJH9eW8s9/Zw8d0zLJh3YeoftuVpW1oTvUtUbffppG6DE6dPhqupelsLSLHvL0JElEhWS7qPyNPCrOF+ccu3tIVziZx4iuEcelBPN79GynVTIOH5A2YPs1ssGxi+4Xx0fppg3Xivenzjm8f5iOPfGUrpCJc+gWOqztdN+3SJynt7/D1xEVthsfo6H9x8R3xfFXdtC+o1+mh8Q16ML76bBIGxvkVfxphe3FdrlU2fbw1zzH2FY7OrviB/vYDexjN7BPNLlQdUzUN/4D3jM7DL7lOXbhY3Tr7mdo6wNc9pMs12sVieIaW0y9QZzDTh/jnBA0qm8AAAAAK0XXOBVq5KV16oVhGt7E69fp2SeOiArDLbRtI9GGT9yiKg6CDRvFAd3b4A5RUIxc48oeXUeFQt7j4A79PVEZk5W3jeJ6Rq2geisa8fyPWMGwi0a44qHlsm6FUx+XHKEjR/Vm1NHvbLOooPH4Y650NbKBY0txzgZd0WNHjJeh667VFWfBRcPSDuddpPd15Z4dNpvPGhIV5zBJsi+tSGWJfs5XX6JjUgXjHht5VDQEPP6sjgH2sRvYx25gn2jD74LXeugDO4Ekge+ZpB2cY3Q/HW40VEJfQ9UrrqYRvrYnDkaj+gYAAACwUnS+U6FOlSA4qioErnqhgZRRIx0AN3Lvj6cC0QQbbhtVKgK5JypjpjeDK46keyLkZ6AG2UujeuTMWNVGNjC2lMNEtnyPPsVKE+6FaxGpBtH3DR7f6ksr3MtnnpMVJrKSyb1I6uNDN3aoRBX2sRvYx25gn8iiHDwv068a/N3+97z1AbH9KCsRBT7lAVhMGg3P0Z8t1ruXDsCwwNqLfC8AAIgAXaBUuJq+xJWvg3t05UdJEbmy9CWnh9+wkbZdJ87VwwiO//h7qjdCfOdXr4jVzhtoq9luEllRvFlVFJ1KoFZKyB4Hvd2IrddwZYSHSIhVTS9GN9GcDaTzSCtNWurFqVGAKKePO8QkCF9a4cq+My55B9EjohLpOJO6AdjHbmAfu4F9osKG2+4X79IMKxGId+IoSwLfs25g/oiHLTTRKeG7xiG+tkwXYD6e3z1E912kHHZc36oZnvP6U/TkfCqRdnn927TP68BYynsBAICldMXwB1YLyHgGW9h7zZJEMwyhHqfCIM7d/gTpSpOeMUJKVodEYSEqW68cccayNkKOm+SeCVG5kHER7hT33fhl2icqFhygiXud6EItRZWVCZaW+np/th+QBaQ8/0Y1NrN2DGY30JwNtt4hKrr6fd/7CleKtUx1XnRMC3l9NV2YlCTzEBh5vfoeiQ23PS3Htcq0cjfR3keEbYWtnLQmx8WaWUc6HdjHbmAfu4F9ooN4l6wwlO9SlclSeSLrFEHvWdj2EWE3fb6c3lrOHKGGNnC5PvLgb9SlJeIa7LAx12C1CBqnTVDrjFPDVz1xJ1hlE1LvawuRF6R6R9z3+zfvqe0cWux7AbBMyI5Q8TsV6nSWw++aVagph2rjgL7NOLkXQjPPABaLWD6fr+rteSnMFvXW0lKtVuUyNzdHpyrr9NHlgXtkZAXqhVG6iUTm2fIS7ZMFR/fw4F/upt7eXhoYHKS1a9fRmWeul+tBsc/H0+k0xePKH1WpVJbdRt0O7GM3sI/dwD52A/vYjc324QaRVI2wI8bXqHc+E/DwFNkxww0kdo7xQfMdVuPIYUii3qc/38znEx9/mYYuPCLOF+fe+RJtF+fds/9l+pqOb8IdPjzcJfBey0Qz9kkkEhSLxeTSjawZHNBb83NqbFxv2cfit5W4Aa5iwUhHaZAzU+YJHoLXTDwddb0nr1P5Ihh2KuwgapRPWAn042vp3tBrBCDy8T46IK7ZzDPYie15OSgfqV9+4OBVKnBPDO2/B7JDAAAAAACLMTNqyLgVrCIxChw5REXN6sXDdkZv5OOisXEzq214uMQx2kt76NZ5ezPd2VGMw2KtVPS4DoXgewEQAXjYzqvDNLJzmLzBYdtnI930XFj8HgMrvxo53lQ+nW+YeC3PyFl4FM08A1gs4FSoQyVwb5AlAAAAAABgM279TcWueIzuffB1PYOWZ9gOB9r8KTegTODNZhseZnaUcALvBeU1iAAyjtyFt9CX7uChQzqOm0QNUZDBT7/zkj5mYu1slrMRqcCoz8ihBmqbEz2rBMy2Huawm+Py8DlmCIVn+IMcWqG+bz4/Lqc2Jjl7Dl+n5p4cCJWVRc531HWe371Dxp7joWUmpo0z/MF7Dxk4nwl7NtAqcCoAAAAAAIAIoxs+esYFo1pwA5rukgGzVYfRKN3UVsCD+WcKU/juhb4pYD16GmGejnjjtfQpE+tNcPzBPaKRrtQ3Dw2/XBvHRzT4zWxEx+7eI4P4qu2vBSodDhEHrOUZhDzxTjTPf8coh9gpeITuu/nbRH4lEKPvycMzjm+6R+cz5UjkALcm79cPPRK/Eezok/fQ8e48M7Q0ejbQHHAqLBAnKrbeXzDS6wa53NLj8Y6G0sw5IJSW0nJthRCA7mWJfnfaLlvwO1jDQspo+d0l6AVDvUGgAl86sm09sxYrEWpn0NLvSjecjj3xlKi/+XozjbpATz/eCoH3kp8AYDFy6INYywCxKq6CyRvS2aBnHVIBUD3o4wrldNtw/qV6vx7vzHX+GYykasgJaBseUN/r3NuwUWzIfObGMQmlZvY83++FoNGzgeaAU6EdOGiIU/iAbuH53agcLBXsCR/d/zTtfcVM/QoAAJ0FS+NHHkXP9VKx9QHuZeQZtGJ6dpKnVe+mnLVEyaF5to6RRzn4tp6VQ8ZfEI0oup8ekufeI3sq5fCFH4mGhr52OGr6VZZnS6d44L0AsBzpQPMobHgWGz2l8HLBM/W5UxWLfBzWYXvhhx3HhpytQgZWbWK6XrDkwKnQMrVBQ2QmwNRBHYongMxhz1zkYPH5BFf+rqabnnuatulDAADQSWx9YIlmAnCmN+x2VGwEI4f2Rq/nd2+OOzbgqR/NuU49znONBw64dQD/O/bsy3qgPF/dL/BeAFiMjAXiaayrKe55GABJp5lxMMi4C/qUxUY6CG5WDgIeQjE/ehrZnTeIfFg7pWwg8m9SQyRYgXeI6/Tyu2CxgFOB0RK1fZyg2cNtvGM1QUOUNC44aEhtsA91vunV1rK63SIx68+MjFRmoLrzvajvqs8ROMS835ErxTuveSfe4ya4iznHK2n0vM/dB/Qxxivv1edIGb45LtYykiz3gLCdvHbxXr+LCQx+ozjURL7asJFUPnmQ5Wz6vdcFzal97+59vHYV+Tjw/A7PPyHvPzAfhP3eCby/Sd78YL4rP5fn6+M6L8o8wvfw5MHQawX8FoY9f/01OhVvGvb+Ns3/DoI+9x5rvmwJ+x3sFvxpmg+F/64p/O/R/970NTn/BF2r5rcw6DfKm6+85/jy2381Mnt1XF1fb2NIGQCgIaqBPXTdtZ4O0mEa5uFBR47QBhnXQKl3th+5tAn1TnvIWAh65pbtdx+hkTvZ0edTAtWwkW66c5czZONJ8cz0yhHx26eGNrBaaOTB3+hzmavpXlZCyPN30CGeRjZo2kzQNnAqOIhG4zVVJb1xJD/XOlIgGXjkiaeCg4ZIuPKgE6kM9FEr3Tn2yocdeY7ykr1OQ3cYbzYHFfFGWlUoB4aWIz16qQxaUl+p6T6OXXS/eGcqmIr3najjo3TT0RvUD9Kj/N52yR8jWUE8/DXpEJLHrxF2UF9rAvFDxFIwKQ07QFvldYxd+Po7AiqD3YRI+6FTczWXr4LSdVDQnG2PqO95r6fyiQoidHj4Zceu3ZN/Qt7/4ZB8IAmwi1Tj6KnQxPmHmpgK7RjdIn7v3N44bx4Mm1Yt6Lcw7Pm7Zmq2sN+m+d5BoM1aK1sO7yeULR7cNO1NlyK9XlQ/5WD9b8xTtE1Wcs24fh6nvIv23UaB1woKTBZkh3nLvDP1AVNplhVzjoAung2VZgBAQ5Qqt7ZNoxU78vfDr95RQ7i8Sm2l1tFKHkfFo76nrutR/tZc23tcbauyy61XeJVAdepweS91/qHn3M+MWujQbVs9zyAIVCeFPRtoFTgVHHbRiE7APB3QkaNitXEjbdA9CVw5b4gOcqI8fcqz5h2PVOMBlJ40cW2RxlWPkpr+pBYdHEVUCOX4QO4pf7X1oEGdiAqmspHOu0isPO9ETQ0l3qmc0knb0yN3CjreFptYIubapevHyJq0Hzg1lzdfaZrMV/VBczjPsPNOvHc5VRcTFkSoi/JPyPsPyweK+t87db4OgNSsnJojRetNpjYP6nHJvmnV6n4LGz5/8DU6jbDfpvneQbDNmixbtNS1rpLW7Zg0rdOlGzjM/A4ZQn5j5Jh85chRToMbaGvItWSabyIw2XxlXg2i0rxPjy0e2n8PpL0AAACWBTgVGiClw1u+50yXsrgoaeKtxL0UavqTQKTyQXvVmqnkdzGbzzcN2SVGejq510jtHroxSLYK6lGN17bzlXREDNGT1x1TPez6cEOQf5YUf6OmNg/qHly5tOt4W4xrRJ1W30GTZQsIxJ+mWZWo3r1Ygnqv6n5jVKfCoR/dQIdYRXKH+x3/taRDx/ktq1U3NsN8ZR4imAMAAFgu4FRogCyQdQ/ovIWzb3oib+9pIHq6I9kDobdrqVU71MZu6G6MZFoGZfEGltHUTunkTiETdNyLmpNXNHy5R6kRh3n86g45H2/TjdtOpuHUXPW0lK+8yOjEw/SpT4gvOlN9+fKJE0Soi/JPyPsPywdhNJoKTdmpiUBImpamVWvq+ee5RsQJ+22a7x0Efr7AsqXp38FOZ97ftfD3uOG2+2nkoLDLzvuVEyjkWlJN0kRgsvnKvBpEOmAlxNCF4noHMZsOAACA5QFOhQZsvcOMTYzRva9w5YEbMqoiUR80hGW7JsgIz/EaLmWUaIminHZoy/dERcFU5lxqgqPcTbT3EUhUmRE6ICrP/I6Hg9/J9gOygmamdOLeITlWShx3pnr6lriOeOeKq+lLPLafbXrWASItHa1BSpJZ5rqZvr+Jr+ORJJuKY9ci0n7Q1FwhBOerJvBO9fWtl0XFWikfZAVeS8S3PyEq0/r07sk/Ie8/LB+E4c0fcliP6nV1AyHtoCMXhTd8agi8Vhjhz9/8NSJO2G/TfO8g6PO2y5Ymfge7ivl/18J/Y1SgMNeJF3yt4MBk9cxb5jk8o4IK73yaDon6iHq2znXGAQAAsIdYPp+v6u15KcwW9dbSUq1W5TI3N0enKuv0UbBcPPiXu6m3t5cGBgdp7dp1dOaZ6+V6UOzz8XQ6TfG48kdVKpVltBHLencQPeoGcOlG7LXPysA9hLJC/8Io3UTfppEtL9G+FRzqAPvYDexjN7CPF/vKPNjHbpqxTyKRoFgsJpduZM3ggN6an1Nj43rLPtBW6mxsz8tB+Uj98gMAQETxKhVYOUIITgYAAAAAAMCyAacCiBDeaV8AMNROQ+TOPAEAAFEGZR4AAIBoAKcCAAAAAAAAAAAA2gJOBQAAAAAAAAAAALQFnAoAAAAAAAAAAABoCzgVAAAAAAAAAAAA0BZwKgAAAAAAAAAAAKAt4FQAAAAAAAAAAABAW8CpAAAAAAAAAAAAgLaAUwEAAAAAAAAAAABtAacCAAAAAAAAAAAA2gJOBQAAAAAAAAAAALQFnAoAAAAAAAAAAABoiwg4Fap6DZaDuXJZb8XUv5je4o1QYKPlAvaxG9jHbmAfu4F97Ab2sZv27AMAAIuD9U6FRLWot8By8M6br4v/VWEkVrJAUjtyNxDYaPmAfewG9rEb2MduYB+7gX3sph37dCNzc3N6CwCwmFjtVGDvaqoyrffAcvDLF39K8TgXSjGKx+IU09vS081rcY7X6w0bLS+wj93APnYD+9gN7GM3sI/dtGqfbqUznQpQBHUSUVUdWa9USNEMxYrjeg8sJf/7hWfp6P97URRKCUokkmLhNS9xcUwUULpg8gMbLQ+wj93APnYD+9gN7GM3sI/dtGufbqQTnQpQBHUWUVUdWetUkD+Aep0snaLi+Bs0Oz1O1UpFHgeLA3vD3nzjKP3kyUfohX/4O0omU5RK6SWt1smkKqCcgknAa9ho6YF97Ab2sRvYx25gH7uBfexmIfbpZqrVKlU6KB2yPaEI6iyiqjqK5fP5pjUzhdnl8YRxhmc405dKJZotFGhyaorGxsbo5Mn3xHKSxsfGxbFJKswU5DmVypxYzJ8CGVDzqETJiZc93FwIZXNZWtW3igYGB+iMM84Qy1oaHBwUx/ook83Kc0xiZlvBRksJ7GM3sI/dwD52A/vYDexjN+3Zhx0MjLFTt5HNpOV74GU+Tol0aiucv3jhtlKxWKSpuR6qpgf0pyCqsOqInYSZTJb6RL7l/Lt23Vpav369zM+rV6+mnp4eSqfTMi9zPl6JvLxG/Mb4sd6pwDKl2dlZmp6eponTp0UGH5MF0+nxcZoShdTMzAwVS0WqiPNUBpNXkN8HzcCJURUu8USC0qk05XI5mZBXDwzIxLxGLP06EWcyGen19lYaYKOlBPaxG9jHbmAfu4F97Ab2sZv27AOngmqMZbNZfSQc250KDOcxdsxxXsqXElRNr6Z0tp9i2s7Aflh1xEMeWKHAw5hYdcTpk/Py4JpBWrt2La1bt47WrDmD+vv7ZT5npxjnZ2Yl8nJknAqMKlyUB87JLPkpmpiYpNOiYJqYmJD7hUKBSsWSzFSVasXJZKB5ZIEUi8vEyZI5Tsi9vX0y4bJHrL9/ldw3idgro4ONlh7Yx25gH7uBfewG9rEb2Mdu2rWPsVE3wk4Fht/JfO8hCk4Fk8egCIoyKh1GSXUUOacCw5mlXC47hdJ0Pk9TvEgP97T0gPNnXCBVRUaR/5BPmobToShe5HgdWSiJRMre7FyuR3rI+np7qUcspkDi8XkmERtgo6UD9rEb2MduYB+7gX3sBvaxm4XYB04Fku+El0ZExanA+YfzEhRBUUXkY87P4r+oqI4i6VTgtSmUeMwQZ5pCYUZ63Qpim4/xZ3yO/A5nFmSUpuECiVOyTMgicXKhw+N0siLBspcsm83JxMvHTIHkT7yw0dIB+9gN7GM3sI/dwD52A/vYzULs47dTN2GcCvw+WNnRCJudCgznGZPHjOMOiqBoIvNxhFRHkXIqMCbRmwzDBQ9nGu/Cx5SHW2US/gYyS/PIBGnWIoFyYubCx3hwzRJWIMFGSwvsYzewj93APnYD+9gN7GM3C7VPt2KcCgw30Bq9jyg4FRhv/oIiKHpwEuTcHCXVUeScCoy/UOIMYTIPy3jmxDbvy/PEgjzSOjI5ikTJCZMTaUIsLL8xiZYTeKMCCTZaWmAfu4F97Ab2sRvYx25gH7tZqH26Ea9Twag4woiKU8HkL85XUARFD5GDa/Ixp0nbVUeRdCow3kxjFs4YJnPIz3ktzwLtIJOkTtAmUZtEaxZ1SnDilTbQa7PARosH7GM3sI/dwD52A/vYDexjNwu1T7fhdSqYxlsYtjsVGJl/9JrzFDsPvGogXvgYO/SgCLITmU/NWuRddgZy2vQqjrwKBRvydGSdCow38csMoff9x0F7eBOmN7EGHQ8DNlo6YB+7gX3sBvaxG9jHbmAfu1kM+3QTXqcCvxeWlIcRBacC481P7FiAIih6yByq8y07DmxXHUXaqWDwFzoohBYff0JtNeHCRksL7GM3sI/dwD52A/vYDexjNwu1TzfgdSowHBCPG2tBRMWpwJi8xGuzsCPBOBPk57yWZwEbkblV5FnOt7xwujSOBLOoU1Y+X3eEU8EgMwdYUhaaaGGjpQX2sRvYx25gH7uBfewG9rGbhdqnk/E7FYy0PIgoORUYb77ibbPvPw7sxJtvzTavg46vNAt2KswWiyIx6h0AAAAAAAAAiADcHsv4YihwT3DY1JJj46cj2Qj3PzMcCdHD7zywxZnA8LMMDqzWey4tORWKxRJVkDABAAAAAAAAESIuGkPpdL0qIWxqyYnJSSqX5/Re9IAzIfrY5EwwJJMJ6l+1Su+5tORUKMnooRW9BwAAAAAAAAD2k0jEKZWsn0IybGrJ/PSMnJ4RAODC01v29tQHOA2OTBJCWCATAAAAAAAAALCVsHYMBzMMIpWqdzQA0O2E5YuWvAQ8vYWFKgwAAAAAAAAACITbL9yOCYKnYAwinUpZKT8HYKXg/MD5IoiWpQeJeEJvAQAAAAAAAIDdNGq/cOyBMLVCNpPRWwCARvmhZacCB2eA0w4AAAAAAABgO9xu4fZLI0KdCtkM1AoACDgfcH4Io2WnApNMYIwRAAAAAAAAwG6aabeEDYHghlRPrj4oHQDdBueDRg62tpwKHD2VFwAAAAAAAACwkWbbLGFKBSaTScuI9wB0K5z+OR80om3PAE/JEhbwBAAAAAAAAABWCm6nBE0hGUSjuAoMT6HHU08C0G1wug+aQtLPgrwCPKUEFAsAAAAAAAAAW+D2SatTQoYNgTD09fZAsQC6Ck7vnO6bYcEeAY4C2dvTgyAmAAAAAAAAgBWDmyOsTmhWoeBlPqcCwz22aPeATofTN6fzZhQKhlg+n6/q7bZgD0YikZCyoUJhlgqzs3IbAAAAAAAAAJYabuPztJHzzfIwHz2iIdUMaPeAToSdCSwYaGfWkwU5FeLxuLhpVu+5FEslKpXKNDfHSwWZDQAAAAAAALAocHsnxv/iMdkeWaw4b6aztBXQ7gFRhR0HKphpUg4XSqdS+pPWWZBToZ2MBzqPcrlMxWJR74FOgwvrJAdmFXkdcr/owAGnOG+ynBMVnM6E8yaXw8iXoFAoNAwyBxrD5RvnpaUC9aTokBKNKl4AAK3RtltPeTbgUOh2uBKDgrLz4PzNjgRWIvHC22i4RAtucHLE3lxORazmfdBZ4PcXGNAIWhhL7XxFfTk6wDkHQDsQ/X/3TzG3nGwy6QAAAABJRU5ErkJggg==;imageBorder=default;" vertex="1" parent="1">
          <mxGeometry x="558" y="907.6" width="209" height="108.4" as="geometry" />
        </mxCell>
        <mxCell id="EsEte_tRfW7ecfYolJ52-46" style="edgeStyle=orthogonalEdgeStyle;rounded=0;orthogonalLoop=1;jettySize=auto;html=1;exitX=1;exitY=0.5;exitDx=0;exitDy=0;entryX=0;entryY=0.5;entryDx=0;entryDy=0;" edge="1" parent="1" source="EsEte_tRfW7ecfYolJ52-41" target="EsEte_tRfW7ecfYolJ52-42">
          <mxGeometry relative="1" as="geometry" />
        </mxCell>
        <mxCell id="EsEte_tRfW7ecfYolJ52-41" value="FR&amp;nbsp;&lt;div&gt;LAD LEX&amp;nbsp;&lt;div&gt;OPC Permanent&lt;/div&gt;&lt;/div&gt;" style="whiteSpace=wrap;html=1;rounded=1;" vertex="1" parent="1">
          <mxGeometry x="53" y="940" width="78" height="60" as="geometry" />
        </mxCell>
        <mxCell id="EsEte_tRfW7ecfYolJ52-47" style="edgeStyle=orthogonalEdgeStyle;rounded=0;orthogonalLoop=1;jettySize=auto;html=1;exitX=1;exitY=0.5;exitDx=0;exitDy=0;entryX=0;entryY=0.5;entryDx=0;entryDy=0;" edge="1" parent="1" source="EsEte_tRfW7ecfYolJ52-42" target="EsEte_tRfW7ecfYolJ52-43">
          <mxGeometry relative="1" as="geometry" />
        </mxCell>
        <mxCell id="EsEte_tRfW7ecfYolJ52-42" value="Intégration&lt;div&gt;prix&lt;/div&gt;" style="whiteSpace=wrap;html=1;rounded=1;" vertex="1" parent="1">
          <mxGeometry x="156" y="940" width="70" height="60" as="geometry" />
        </mxCell>
        <mxCell id="EsEte_tRfW7ecfYolJ52-49" style="edgeStyle=orthogonalEdgeStyle;rounded=0;orthogonalLoop=1;jettySize=auto;html=1;exitX=1;exitY=0.5;exitDx=0;exitDy=0;entryX=0;entryY=0.5;entryDx=0;entryDy=0;" edge="1" parent="1" source="EsEte_tRfW7ecfYolJ52-43" target="Dj-Ovf57cEZ3DP5Jcv66-33">
          <mxGeometry relative="1" as="geometry" />
        </mxCell>
        <mxCell id="EsEte_tRfW7ecfYolJ52-43" value="Import de prix permanent&lt;div&gt;mandatory&lt;/div&gt;" style="whiteSpace=wrap;html=1;rounded=1;" vertex="1" parent="1">
          <mxGeometry x="249.5" y="940" width="80.5" height="60" as="geometry" />
        </mxCell>
        <mxCell id="EsEte_tRfW7ecfYolJ52-45" style="edgeStyle=orthogonalEdgeStyle;rounded=0;orthogonalLoop=1;jettySize=auto;html=1;exitX=0;exitY=0.5;exitDx=0;exitDy=0;entryX=0;entryY=0.5;entryDx=0;entryDy=0;" edge="1" parent="1" source="Dj-Ovf57cEZ3DP5Jcv66-32" target="EsEte_tRfW7ecfYolJ52-41">
          <mxGeometry relative="1" as="geometry">
            <mxPoint x="32" y="920" as="targetPoint" />
          </mxGeometry>
        </mxCell>
        <mxCell id="EsEte_tRfW7ecfYolJ52-51" value="" style="sketch=0;outlineConnect=0;fontColor=#232F3E;gradientColor=none;fillColor=#232F3D;strokeColor=none;dashed=0;verticalLabelPosition=bottom;verticalAlign=top;align=center;html=1;fontSize=12;fontStyle=0;aspect=fixed;pointerEvents=1;shape=mxgraph.aws4.magnifying_glass_2;" vertex="1" parent="1">
          <mxGeometry x="655" y="848" width="49" height="49" as="geometry" />
        </mxCell>
        <mxCell id="EsEte_tRfW7ecfYolJ52-52" value="zoomez !" style="text;html=1;align=center;verticalAlign=middle;whiteSpace=wrap;rounded=0;" vertex="1" parent="1">
          <mxGeometry x="704" y="853" width="60" height="30" as="geometry" />
        </mxCell>
        <mxCell id="EsEte_tRfW7ecfYolJ52-55" value="" style="shape=image;verticalLabelPosition=bottom;labelBackgroundColor=default;verticalAlign=top;aspect=fixed;imageAspect=0;image=data:image/png,iVBORw0KGgoAAAANSUhEUgAAA90AAAEyCAYAAADnQ7P4AAAAAXNSR0IArs4c6QAAAARnQU1BAACxjwv8YQUAAAAJcEhZcwAADsMAAA7DAcdvqGQAACLLSURBVHhe7d0LnF1VfS/w/8k7gZDwCvEC4RMaxGCwhFatsYICVkuEIlc/IlG86BW9tsUWQtpyQStSW0PAVlutVJoLNohXL/ABQosKWKypiCVWUhBIkybhkSeQhLwfc/feZ83MmclMMjOZlcwk3+/ns5i91t77nD075xzOb9baa9eaCgEAAAD0ugHpJwAAANDLhG4AAADIROgGAACATIRuAAAAyEToBgAAgEyEbgAAAMhE6AYAAIBMhG4AAADIROgGAACATIRuAAAAyEToBgAAgEyEbgAAAMhE6AYAAIBMhG4AAADIpNZUKBe2bN0WO3Y2xc6olc1lE9CvNMWAogwcUIuhQwanNgAAYH+q7dixo2nTlu2xfXsRuovStHNHWgX0N7UBA2PgoMExqCjDhw6KAQMMZgEAgP2ptn7DpqatWzYL23AAKcP3kKHD4tARw1ILAACwPwwQuOHAU76ny/f2lq1bUwsAALA/1FatWlVd0w0ceIYMGxGHHToi1QAAgH3NBZ9wANu+dUtaAgAA9gehGw5gO106AgAA+1Vt5cqVhpfDAezoo49OSwAAwL6mpxsAAAAyqa1YsWKve7qX/r+74i3/99WIt74pnr/85NQK9AVjxoxJSwAAwL5WW758eeeh+4XH4h1XPB3PpmrdoXHtTW+N+NID8fll5fIFceHP743Jt62NeMcZ8dx5K+r7HH9y/OsNb4zj017A/nHMMcekJQAAYF/b/fDyYUNjYPlz/Gnx7MNXxraqXBZ/POGE+ONbm5erLVs17zNoaAyrGgAAAODgVHvxxRc77+l++Yl456d+Eb8c/4aY/4VT46jUHLE6bp5R9nRHXHDFtPjs6vtST/dpce2in8fnl6TNCie9/81x0U8erW87ZWzcPW95tc9Xjn0szrrymdZe9ONfG/Nmlj3jrY/drNr+jakCdMvYsWPTEgAAsK91bSK1xb+IyR+cE8dX5cF4KIbFiEH1VUNH1H/WjY4//tPT4nXlYuodX/A/j2/ZtgzcpaEjnonfLwN3cw/6deMilj0T/+PO1bHsznlV4P7gdc0961fGt86pdgMAAIB+ZUBTU1N0XtJWbYaXfyAuaFlRKrZLSxE7Ys3GnWl5Z6x/8cVYsWZrqrcG6f8TL8TdZcPin8dJ77gxBn9mabX+mdWvxrDh9b8DfOszRXux7v33vBirXml/XIqidLUAAAD7TxdvGVYP0C9WZVWsTa3dtXNr/TFWNT/t2We39GZX5eo3xAnTPhrPXjqqvr5w95duj7PuWp1qAAAA0H/svqe7pQ+7+NlmXdWStO1J23WftttW+7/lV+KDZfXBx+JzP3shXnghlZWvxKurl8cRH/hoFcKbw/eg4cPS8yqK0t0CAADsP13s6e6G486ML55d/Fz8RJw+7Vtx9l0v19sbvTIx/v7hs4vgvS6uv+pbcUKxXVnOvmt1PPw334oj3/2lamj5SbPXVr3h/36xWx4BAADQ/9See+65zrvCDj0qXjNqaAzYuSXWvrg6Xk3N5b26j3rNqBhaRPbtG5+PDQNfE6PqlXh+xctx+DHHtkyetnPL5tg2eFjLtsXq5PA45tgRkTar7NyyNjYPHNWybyU9JtAzxx57bFoCAAD2td2HbqDfE7oBAGD/qS1btkzohgPYcccdl5YAAIB9rbZ06VKhGw5gxx9/fFoCAAD2td6fSA0AAACo1JYsWaKnGw5g48aNS0sAAMC+pqcbAAAAMhG6AQAAIBOhGwAAADIRugEAACCT2osvvmgiNQAAAMigtn7TNqEbAAAAMqitXr1a6AYAAIAMXNMNAAAAmQjdAAAAkElt1apVhpcDAABABnq6AQAAIBOhGwAAADKprVy50vByAAAAyEBPNwAAAGRSW7FihZ5uAAAAyKC2fPlyoRsAAAAyMLwcAAAAMqm9+OKLeroBAAAgAz3dAAAAkEnthRde0NMNAAAAGejpBgAAgExqzz//vJ5uAAAAyEBPNwAAAGRSe+655/R0AwAAQAZ6ugEAACCT2rJly/R0AwAAQAa1pUuXCt0AAACQgeHlAAAAkEltyZIleroBAAAgg1pTIS0DAAAAvcjwcgAAAMhE6AYAAIBMhG4AAADIROgGAACATIRuAAAAyEToBgAAgEyEbgAAAMhE6AYAAIBMhG4AAADIROgGAACATIRuAAAAyEToBgAAgEyEbgAAAMhE6AYAAIBMhG4AAADIROgGAACATIRuAAAAyEToBgAAgEyEbgAAAMhE6AYAAIBMhG4AAADIROgGAACATIRuAAAAyEToBgAAgEyEbgAAAMhE6AYAAIBMhG4AAADIROgGAACATIRuAAAAyEToBgAAgEyEbgAAAMhE6AYAAIBMhG4AAADIROgGAACATIRuAAAAyEToBgAAgEyEbgAAAMhE6AYAAIBMhG4AAADIROgGAACATIRuAAAAyEToBgAAgEyEbgAAAMhE6AYAAIBMhG4AAADIROgGAACATIRuAAAAyEToBgAAgEyEbgAAAMhE6AYAAIBMhG4AAADIROgGAACATIRuAAAAyEToBgAAgEyEbgAAAMhE6AYAAIBMhG4AAADIROgGAACATIRuAAAAyEToBgAAgEyEbgAAAMhE6AYAAIBMhG4AAADIROgGAACATIRuAAAAyEToBgAAgEyEbgAAAMhE6AYAAIBMhG4AAADIROgGAACATIRuAAAAyEToBgAAgExqTYW0DNCn3f/Ao2kJAIDuOvddb05L7EtCN9BvlKF74uvHpRoAAF311H8sFbr3E6Eb6DfK0P3Wt74+1QAA6Kof//g/Ogzds2fPjquu+qNYs2ZVaqG9I488Om644Ytx6aWXppbuEbqBfqMM3We87dRUAwCgqx750RMdhu6jjhoTX/vruTFp0htTC+0tWPBY/K/fmxqrV69MLd0jdAP9Rhm6337mr6YaAABd9cN//vcOQ3etVosnnxAJ9+SUU2vR0+gsdAP9Rhm6z3rH5FQDAKCrHnp4vtC9F4RuoNW906J29emx6IkrY3xq6pJyv/NvrxYvvqcp5pxXLXZicdx46olxyyWL4smruvUse6UM3eec/WupBgBAV/3gwX8TuveC0A19SXN4/fDcaLrt3Ia2iLlNcyK15NOj0F0P0Y9/IYXthTfGKSc9HrM6Pd7dhO497ttzZeh+1zmuNwIA6K4HfvCY0L0X9iZ0D0g/gd72zelx48K03Oc9FY8vmBinT0zVCVfGkz0NzXuzbxfUBtQURVEURVGUbhb2H6Ebsrg4Zs2MmH7d/aneTtkbXSs+AMtySes2919Si1MumRanpHWn3LA4Ft9wStp2WnTyaPXe5ebHS0PES9W+p94Yizup15W91lPj9iJ4Tz+p2L9cXz1ew/M1Pn7tlNY/JjxxTWt78+/Rbt/W46//PpW0zY1p3bR7m9saHrsTA4rtFUVRFEVRlO6Vnnhu9ilVD29jmfHDtLKv+WHxHfrUafFIqvYlQjdkMvGqWXHxN+d0EJTvj2nnz49ZzzZFU9OimDV/amsYLTw1//SY21Ssu+fieGrGiTE15ta3m3R7TG/YrlURmt87PWLmomrIS7lf94yPK5+YGxfHxPox7TIsvTjek6bH5HvK4y3Lk3HlhPqalmN9dlZM7Khn/95pceKMyfVtmubG5BlTG7a5PW6pfrc9XT8OAMB+c97cavh5Vb5ycdz3+300eL99TnGMc+KMVO1LhG7I5ty4fub8XYPyvXPi9kkfiwur4Do+LrxkYjx1250tvc8TL7mwHnonnl7E4ItjVnXN9PiY2Nmk3QvvjFsWNG+XQXW8s+L6DoJxy7FOmBiTyyHqT1XNLe7/zu0xceb1aaj5uTHtw0/FLXc1/6btjrkalt4a6AEA6GPefn1cVXxXe3Jx8X2u6llu6AW/urWr6ZGry/qNMfu95brU+7z0xnhPw/bvmZ2+E7Zpb+iprtpPidlLO6rfHzOK7WfMTvuWz10ez3tvjOcat51dP8aW59pPhG7IaPx7PxYx45o2vd2Lfzk/LdWNf13Xb4H11BPtUm0/UPbWNw8vn/rN1AgAQP/zw2vihoUT47+fPT71LKce8Lmz4sR7p7cG5NK9t0T8Vbm+7H0uQvLU6RFXLGrZ575Ly86XevspX6m3fe+K+fHJ5uDcBffdE/G35eN9oaPZhJ6KG56d1vBc+4/QDTlNuDJmffj2mH51a9BuH7Lbh/De1J1An8vE5mHvqezLW4wBALCX7p3a0jt9yu/Pj6vmPhmXjkvrmo2bGKcUIfepRaleOm9W63Y/nBP3xcUxo334LdsnzIrL316vHnf2x+LEhbfE9xvD+26859NXxnFpeVcT46pP5prat3uEbsjs3M/MiljQ0EN93rS4eMEtcWd1bfPiuPO2p1qHafdENbT79phTTkZWKId0t7Hg8eIjsFR/rm6rjnd6XJMevzvOfX95XXpDT/+90+qTpnWkixOpAQCwDzVe0/1EY+CuD/GuB/KpRaju3HOL5xffWU+PE1O9WdV+EBC6IbeqtzstV86NOfdMrs8UXjsxpk8uPsj2qve3fLyL4/bz60O450TDRGrnzYm5H749plbDu6fG45Ob7wnWHW0fv83s5XtSPP+imfPT8xfl/PmttyUDAKCfWhyz31sE7ZZAPjfek9Z05LjxkyMWPh6NHeGlqv0gIHRDbyuCZlO7+1Sfe1s5tLqhrdomDbm+rXXLcruWAN7uftfVYzRs20bD4825rVhumIG8/txlebJY92QHs5OXimDdOIlZ+3ttNx5vtV0543njUPFy/zQLebt9x19VPGebfYvG9o9fqtpMpAYA0F+857fSt7lq+PhuvH1aEcpvj5ntJzQr2xdOjy+n2dAf+dvpsWjCx+KdZW96uyHr1br6YjfVe+RbJ1NrV68mhGuYsC0DoRsAAIBuGB+Xfrp++7BqePn3igCe1nTs3Jg5d1bETSem4ejNobdoT7chK9s+ee/F8bd3NV+nfW5cfsXElnX3nTRrl+Hp/UWtqex+AugH7n/g0Tj3XW9ONQAAuqqz71HlJYDlEHF2rwz+PY3OeroBAAAgE6EbAAAAMhG6AQAAIBOhGwAA4CB15JFHx4IFj6UaHSnPT3meespEakC/YSI1AICe6ex71OzZs+Oqq/4o1qxZlVporwzcN9zwxbj00ktTS/cI3UC/IXQDAPSM71H7j9AN9Bvl/ywAAOgZoXv/ELoBAAAgExOpAQAAQCZCNwAAAGQidAMAAEAmQjcAAABkInQDAABAJkI3AAAAZCJ0AwAAQCZCNwAAAGQidAMAAEAmQjcAAABkInQDAABAJkI3AAAAZCJ0AwAAQCZCNwAAAGQidAMAAEAmQjcAAABkInQDAABAJkI3AAAAZCJ0AwAAQCZCNwAAAGQidAMAAEAmQjcAAABkInQDAABAJkI3AAAAZCJ0AwAAQCZCNwAAAGQidAMAAEAmQjcAAABkInQDAABAJkI3AAAAZCJ0AwAAQCZCNwAAAGQidAMAAEAmQjcAAABkInQDAABAJkI3AAAAZCJ0AwAAQCZCNwAAAGQidAMAAEAmQjcAAABkInQDAABAJkI3AAAAZCJ0AwAAQCZCNwAAAGQidAMAAEAmQjcAAABkInQDAABAJkI3AAAAZCJ0AwAAQCZCNwAAAGQidAMAAEAmQjcAAABkInQDAABAJkI3AAAAZCJ0AwAAQCZCNwAAAGQidAMAAEAmQjcAAABkInQDAABAJkI3AAAAZCJ0AwAAQCZCNwAAAGQidAMAAEAmtaZCWgYAClt/8pPY+uijURsyJAYce2wMPvXUGDR+fFoLANB1QjcANNh0553xyuWXp1qrER/8YIyYNi0Gn3ZaagEA2DOhGwAarPmd34mt//Zvqbar4e97X4y84ooYOG5cagEA6JxrugGgGzZ997uxcsqU2HDzzakFAKBzAzZt2pQWAYBDp0+PgccfHwPHjo2RV18dQ888M61pa91118XLH/94bF+8OLUAAOyq9vLLLzeNHj06VQGA9rY8/HBs/Id/iM0PPJBaWtUOOSRG/+VfxrDf/u3UAgC7t/Oll6qfA444ovrJga22atWqpoEDB8bhhx+emgCAjmz+/vdj3Wc+EzuWLUstrQ675po45JOfTDUAiNixdGls/6//avm5fcGCat6Qpk2bojZ8eP2PtlOnpq05UNW2bNnStHbt2hg0aFAMGzYshhf/+ABAx3auXh3r/+IvYuMdd6SWViM+9KEYdf31UfxPNbX03M5Vq2LA0UenGgB9VdlrvaMM1EWw3rFkST1cP/tsbH/yyWjaujVt1bEycB/+9a+nGgeqavbybdu2xcaNG2Nr8aLYsWNHWgUAdOquu6Lpz/4sVRqcfnrU/uRPInp6X+/iy1vT1VdH/OxnEW98Y9R+7/ciXv/6tBKA/ebVVyOKQB3LlkVTOZ9HWZ55JuL559MGPXDJJVHr4DaVHFjcMgwAemjLv/xLrL3iitjxwguppW7AqFEx+q/+Koaec05q6bp1RZDf8LWvpVpUE7qNKQM4QD+16c47Y/0Xv1h8oA2MUTNnxtDf/M20pm8qh35vX7gwti9aFDv+8z+r5W1PPln97C2Dxo+PIWecEaOuu646LxzYhG4A2AvldXprr7kmtjz0UGppddi118Yhn/hEqnXN8te+Npo2bky1utF//dcx/IILUg2g/9g2f36sPu+8VIsYfPrpcdQ996TafrZ9e2x79tnYUYTrMmBvf+aZ2P7LX8a2p55KG+y98m4Yg04+OQadeGIMOuGEGFiE7cETJ7p86CAjdANAL1j3p38aG77xjVRrVd5ybORVV8Xg005LLZ0rv+itfuc7U63VsOIL6+ENvd8A/cXaK6+Mjd/+dqoVobv4LDzqvvtSbR8qIs/WRx+NrY8/XvVel5+3237xi7Ry79SGDYvBv/qrVbAuQ/WgceNiYFHK3uzayJFpKw5mQjcA9JINs2fHumuvTbW2ynt+H/qpT6Vax8rJ2dZOn55qbR1TfFEcMGZMqgH0Dyvf/ObY0XDN8xFz5lR/jNwXyp7rrY89Flv/9V9j8/e+t8soom4bMKAK14Nf97oYNGFCDCx7r3/lV6qwDbsjdANALyqHmZfDzcth5+0Ne/e747DPfz4GvuY1qaXV9qefjlVlL/fOnamlrVFf/GKMmDYt1QD6vvJzcOWUKalWBI+RI2NsLw7dbm/nK6/E1p/8JLb+9Kex5Yc/rEJ3Tw0+9dQYVIbrk06qDw0vSxG0y+AN3SV0A0Av27luXbx6442x4ZZbUkurgSecEKNnzYohb3lLaql76UMfqr4kNqsNGdLmVjOGmAP9zfqbbopXi9Js+PveV92Xujdt/dnPqpC99cc/ji3//M+ptevK663La6ybw3XVe10sl5/B0FuEbgDIZPMDD8T666+P7eVtZdopZ/AdcfHF1fIrf/AHsem7362Wm5Wzn7/y6U+nWhHWjz02xjz6aKoB9G3lBGpris+4pvXrU0vxufblL8fwCy9MtZ4pP0+rkF18Hm558MHYuWZNWrNnZU/10Le/vbquvLn3unbooWkt5CN0A0BGTa++Wk2yVl6v3d6oG2+MrT/6UWy6++7UUnfIpZdWw9BXnHJK1WverAzdZfgG6OvWz5oVrzb0apcTi42ZNy/Vuq78DK0mQCuHjD/ySGx74om0Zs9qw4fHsN/6rWpk0ZA3vSkGvfa1aQ3sW0I3AOwDr371q7H+C19Itbry+sbGXqBSef/aw7/xjar35aVLLmlzK7Ijbr01hp59dqoB9F3lnRja33qr/GNi+UfFPdm5cmVs/qd/ii0PPxybv//91No1Q9785hj6trfFkDe+sX4Zj2uw6QOEbgDYRzbPnRsv/+7vVveG7Ug5o+/ov/mbGDB6dFVfP3NmvPrlL1fLpa7MgA6wv23+x3+Mlz/+8VRr64hvfasKxR0pg/bm+++PTXfemVr2rOxBH/qOd1RhuywDjzkmrYG+Q+gGgF7StHlzFax3LF9e3SKnLDuL5XJG8qZyVvKiVNd3dxC6h55zThz+la+0uafrxltvjbX/+3+nWsShl18eI2fMSDWAvmfHkiWx5sILY8eKFamlrTIkH3nXXVU43r5wYXWv7PL670333Rc7V61KW+3GgAEx7F3viiFTplRDxge//vVpBfRdQjcA9IIyTL98ySUdTpq2J7Vhw1qDebPyf887dqRK3WHXXReHfPSjqQbQ97w0bdoeZxEfdMIJ1efdjmXLUsvuDZ48OYaecUYVsssh42YWp78RugGgF2z85jdj7Z/8SarlMfqrX43h55+fagB9y7prr40Ns2enWt1hn/1sNG3btsucFnsy5Dd+o/q8G3rWWTHwuONSK/RPQjcA9IJysp+XuzBBUE+VPT1H3XtvqgH0LRu+8Y3qTg2Nmu/EUFoxaVLsfOWVarkz5d0Zynt5l8PHB7/hDakV+j+hGwB6yYa///vY9J3vxPZFi6Jpw4bU2nMDjj46hpa3ujnzzBjxgQ+kVoC+ZfMDD8TLH/tYqtWVw8GPmDOnSBu1qr7x29+OtVdeWS03K4eJDy2vz/61X6tCdjl8HA5EQjcAZFAOp4yypC+clebl8hY2je2FWllvbmvcDqAP27F0aaw+//zYuXp1aolqkrQjvvvdGDR+fGqp2/B3fxfrPve5VKs74o47qlslwoHM/80BIIPa4MFRGzEiasOHt5Zhw+plyJD6+oYSgwYV31QH1ksZtgVuoB9Y9+d/3iZwl0bddNMugbt0yMc/HsPe/e5UqytvEQYHOj3dAABAtzVt3RrLTzwx1eoGjh0bA444ImqjRsWAQw+NnevWVddyNxVlx5o1u9wyceiZZ9aHocMBTOgGAAC6rWnz5lg+YUKq9cyhn/pUjLz66lSDA5OxawAAQLeVl8uM+OAHU637Br32tTGi3QRscCDS0w0AAPTYhq99LTbcdlvsWLYstXSunGRtyFveEoNPPz0OueSS+nwWcIATugE46Nz90+diziOLY/7il2Pr9p2ple4aMmhATB5/eEw7Y3xc8KbjUis5eM3SVzV+DvzOaWOiqbyGe/36aCpKbeTIaNq4MQYUP8vl8qeQzcFI6AbgoHL9dxfEzd9fmGr0lsveOSGued+kVKM3ec3SX/gcgI65phuAg0bZWyi85FGe1/L80ru8ZulPfA5Ax4RuAA4a5fBc8nF+e59zSn/jNQu7EroBOGiU18OSj/Pb+5xT+huvWdiV0A3AQcMEVHk5v73POaW/8ZqFXQndAAAAkInQDQAAAJkI3QAAAJCJ0A0AQO85562x4Otnx8xU7XUfOTuWfumtcVmqtqie94JYcMWE1NBDnT1+t0yOh74+Ne44J1W7qofPPfNzvfB7A9kI3QDQE+WX4+ILfnN56COpfX/IHXI4AEyIO77UcTArA9vSz01OtY50vm/fURzj1KNj5by7Y9JN6b7m3XlfVO9n7yEgD6EbAHri1gdj3HdWxbpYH3d84u4469bUDn3Swnho2bY47Phj2vWiTo5fH1usXTQ/1TuyMC76w4Yw2yfVj7HH78Py/fyJB2NGqgL0plpTIS0DwAFtXBGOe1XZk/b+YXF/85f1qj46Fjy9OaacPLLaZOG8u+OOI6fGNScPLmrbYt535sZFP2jdduXyiAljy3X1bVtDQzk89YSo9y027Jfa4+lVMebko+Ow5a/GwrGHpu1Kzdt2sn+7Y1z39IJeDVNlrz+9p1dfs83/9i2vpULZw3va5rj+D38cNxfVstf7oiKEl1pfG2VP96QY8/P667PaJlbFvMOOjikjyj86tQur7d8Xnb6W2z5fbFzVchztXXZF83soady2er7ivVCtaD6exucs1Z936dsanq/Q8p5rPA+7OSe7O8a2x1Fq/75rf4wdaPPc9fM+ZURa1+7cNSqP8dy1re/lNudr+ZIY99nWP6rs9lz2Ep8D0JaebgDoVYNjyqiXqrB0/dPbYsKUC+LyeLqq37G8WDe18XrNwTFmbX3duHnri22bh7eWX7ZPiDFF6KmvKwLy+9sOfZ1wfMSXy3Wf/UGc1dDjPu4T5Zfytvtf/3Ts8rzNx9i3ey/pVT9YEQs2Do5Jb2iNojNPHBnrlq2oAlcZxi46rAhg1etoSaw8eVLnl02MHR0xt9yuk/DYYjevxSJgtj5f8f5YVu2wq2K7a06OInDWtyvfK62KcF2E2XJYefUYy0fGRdVQ+fkdvC8iZnw2PUZRqvfnaXu4frqrx5iOI5rfs8X5a31ndXaMe1LvvW8+3urz421d2K86X5vT770g5h12QuulAW3W1c8BkJ/QDQC9alvM+1G9V+nmNZuL/66P+1OwXbi2/RfcbbHgF+mr+a0vFV+xR8avlyHnnGNi0ojW/dqsSxb+fDc9U+32v/kXr8S6EaPjrJZJnVqPkYNJuyHm57w1zh3b/BqcEGcdP7jhdTU/flaOwjixk5C3/IUOe1x3sZvX4mVHDosYMaylN3rGTR2/pss/DHT6fB85IiZsXBV3pBEiMxYVgXzsEV26Nrt6fzY8f0e6eozVcTS819vYi2NsVH1+HDZi938kKFR/SHl6SfpjSNt/8/q5fGkPfygBepvQDQB9zbHDGoao9kC1/8i4qHmitzZDXjmY3XzTC7GwOfS+YXQctvGVeKgKsyNjTMsw5l60m9fizTc9HfM2tq7reKK2CTGu2GHd2sbe7Vb1UHx0XNP8+FPql3V06iPlhGld3LbQtWNMx7FxcxFxd9XtY2xQjj5oPt42Q8I7VT9fHdv9uQTyEboBoM/YFiufL348vznW1Rt6ptq/eVhtc+n4WlAONmUPdjnEfHLVs908tLwckbFyY7XQu3b7WmwYPj1vfRx28skd3GJrYSzdzZuh6q0ur0lu8/idDHkvr6suAm95HXfzc+5ZV44xHUcnunWMjdoNq+/aUPDdna/dn0sgH6EbAPqAy674bzGhudexuvZ2ZJybetWqdUVw+VnLJGsdGRbjmsNAu/1LMz/ndkjUlcObDzv5hJgyouHyhiKQlcOQW65xroaeF627ndW8C3bzWrzsirNbA2wVzjfH0g7+MFQOqy6Pt/76nRB3nNbQU1xeejHi6LjoI6lerv9c43XaDe+LSuv7qBpqvQddPcZqXcNx1N+zyR6PcTdaRiLUh/93RfO/b/18TY6LTm7940p1LneZwR7ITegGgJ4oh6lWQ2XrQ097dp/uwTHl/c1DRzfHHS0zCC+Mi+auijh5UlpX9nbtpmfsBz+O+8tJlqrHmlqEhLJ3rj4RVvPQ1IvCdZwk1RwBhXbXSVdDqSMNg06Tgu39rfA6fy3evCZaXv/l862c1/FrvO0Q7+LNsKyxh7o+YdqYKelxvj4pJq1Nvfft3xdR1luHiv96EcD3pKvHWD7Xl9PEieW2l8cr9XNc2c0x7s6tS1r/PYrfe8y6Lk56duuD9cnaqv1OiAnLl7RMmNjm37goXRuyDuwttwwD4KBRDtHsM6pbCLW7fdMBoPwiT+/pU69ZDjjV7cNGvdDmlmK9wecAtKWnGwAADjr1IesmVoP8hG4AADgYlCNs0tDycpj7lHWtQ8+BfAwvB+CgYahufoaV9i6vWfojnwPQlp5uAA4aQwb5315Ozm/vc07pb7xmYVfeFQAcNCaPPzwtkYPz2/ucU/obr1nYldANwEFj2hnj0xI5OL+9zzmlv/GahV0J3QAcNC5403Fx2TsnpBq9qTyv5fmld3nN0p/4HICOmUgNgIPO3T99LuY8sjjmL345tm7fmVrprvLazXIoadmz5Yt2Xl6z9FU+B2DPhG4AAADIxPByAAAAyEToBgAAgEyEbgAAAMhE6AYAAIBMhG4AAADIROgGAACATIRuAAAAyEToBgAAgEyEbgAAAMhE6AYAAIBMhG4AAADIROgGAACATIRuAAAAyEToBgAAgEyEbgAAAMhE6AYAAIAsIv4/aVGfWyLdkz8AAAAASUVORK5CYII=;imageBorder=default;" vertex="1" parent="1">
          <mxGeometry x="456" y="1030" width="334" height="103.34" as="geometry" />
        </mxCell>
        <mxCell id="EsEte_tRfW7ecfYolJ52-56" value="" style="shape=image;html=1;verticalAlign=top;verticalLabelPosition=bottom;labelBackgroundColor=#ffffff;imageAspect=0;aspect=fixed;image=https://cdn0.iconfinder.com/data/icons/math-business-icon-set/93/1_9-128.png" vertex="1" parent="1">
          <mxGeometry x="324" y="29.5" width="37" height="37" as="geometry" />
        </mxCell>
        <UserObject label="" link="https://docs.google.com/spreadsheets/d/1ZgQmQ2uwpNnYsL8-d2eSQJ9e2ijCfO6E/edit?usp=sharing&amp;ouid=118140015082430901205&amp;rtpof=true&amp;sd=true" linkTarget="_blank" id="_PmnmOZ947o3DILdhZuU-5">
          <mxCell style="shape=image;verticalLabelPosition=bottom;labelBackgroundColor=default;verticalAlign=top;aspect=fixed;imageAspect=0;image=https://res-academy.cache.wpscdn.com/images/seo_posts/20230913/b9788edc42ea71aad4959f1222b27b34.png;clipPath=inset(10.22% 27.67% 30.29% 28.33%);" vertex="1" parent="1">
            <mxGeometry x="308" y="414" width="26.91" height="33.23" as="geometry" />
          </mxCell>
        </UserObject>
        <UserObject label="" link="https://docs.google.com/spreadsheets/d/1ZgQmQ2uwpNnYsL8-d2eSQJ9e2ijCfO6E/edit?usp=sharing&amp;ouid=118140015082430901205&amp;rtpof=true&amp;sd=true" linkTarget="_blank" id="_PmnmOZ947o3DILdhZuU-6">
          <mxCell style="shape=image;verticalLabelPosition=bottom;labelBackgroundColor=default;verticalAlign=top;aspect=fixed;imageAspect=0;image=https://res-academy.cache.wpscdn.com/images/seo_posts/20230913/b9788edc42ea71aad4959f1222b27b34.png;clipPath=inset(10.22% 27.67% 30.29% 28.33%);" vertex="1" parent="1">
            <mxGeometry x="334.09" y="480" width="26.91" height="33.23" as="geometry" />
          </mxCell>
        </UserObject>
        <mxCell id="Dj-Ovf57cEZ3DP5Jcv66-9" value="On copie les EAN (dans col A)" style="text;html=1;align=center;verticalAlign=middle;whiteSpace=wrap;rounded=0;" vertex="1" parent="1">
          <mxGeometry x="467.79545454545456" y="418" width="209.40909090909093" height="30" as="geometry" />
        </mxCell>
        <mxCell id="Dj-Ovf57cEZ3DP5Jcv66-10" value="On copie les PRIX au kilo (dans col C)" style="text;html=1;align=center;verticalAlign=middle;whiteSpace=wrap;rounded=0;" vertex="1" parent="1">
          <mxGeometry x="467.79545454545456" y="465" width="209.40909090909093" height="30" as="geometry" />
        </mxCell>
        <mxCell id="Dj-Ovf57cEZ3DP5Jcv66-24" value="On ajoute la date du jour (dans col B)" style="text;html=1;align=center;verticalAlign=middle;whiteSpace=wrap;rounded=0;" vertex="1" parent="1">
          <mxGeometry x="437" y="441" width="271.00000000000006" height="30" as="geometry" />
        </mxCell>
        <mxCell id="_PmnmOZ947o3DILdhZuU-24" value="Semaine concernée &lt;span style=&quot;font-weight: normal;&quot;&gt;(ex: S42)&lt;/span&gt;" style="swimlane;whiteSpace=wrap;html=1;fillColor=#dae8fc;strokeColor=#6c8ebf;" vertex="1" parent="1">
          <mxGeometry x="445" y="392" width="267" height="107" as="geometry" />
        </mxCell>
        <mxCell id="KzjSeOAMKi7fnWLU6lGR-1" value="&lt;b&gt;&lt;u&gt;N.B&lt;/u&gt;&lt;/b&gt; : Ne pas oublier de clôturer la tâche dans GSheet" style="rounded=1;whiteSpace=wrap;html=1;fillColor=#FFFFFF;strokeColor=#9673a6;dashed=1;" vertex="1" parent="1">
          <mxGeometry x="51" y="1124" width="335" height="26" as="geometry" />
        </mxCell>
      </root>
    </mxGraphModel>
  </diagram>
</mxfile>
